<svg width="192" height="35" viewBox="0 0 192 35" fill="none" xmlns="http://www.w3.org/2000/svg">
<path d="M1.9422 34.253C1.6482 33.175 1.3962 32.118 1.1862 31.082C0.976195 30.06 0.815195 29.143 0.703195 28.331C0.591195 27.519 0.535195 26.917 0.535195 26.525C0.535195 25.489 0.703195 24.544 1.0392 23.69C1.3752 22.836 1.8092 22.087 2.3412 21.443C2.8732 20.785 3.4472 20.232 4.0632 19.784C4.6792 19.322 5.2742 18.979 5.8482 18.755C6.4362 18.517 6.9332 18.398 7.3392 18.398C7.6892 18.398 7.9972 18.475 8.2632 18.629C8.5292 18.783 8.7882 19.084 9.0402 19.532C9.2922 19.98 9.5582 20.638 9.8382 21.506C10.1042 22.304 10.3562 22.913 10.5942 23.333C10.8322 23.739 11.0912 24.019 11.3712 24.173C11.6512 24.313 11.9732 24.383 12.3372 24.383C12.6312 24.383 12.8412 24.467 12.9672 24.635C13.1072 24.789 13.1772 24.978 13.1772 25.202C13.1772 25.426 13.0792 25.636 12.8832 25.832C12.6872 26.014 12.4352 26.105 12.1272 26.105C11.5812 26.105 11.1122 26.007 10.7202 25.811C10.3422 25.615 10.0132 25.349 9.7332 25.013L10.2162 24.614C10.0482 25.02 9.8312 25.356 9.5652 25.622C9.3132 25.874 9.0262 26.063 8.7042 26.189C8.3962 26.315 8.0672 26.378 7.7172 26.378C7.3112 26.378 6.8912 26.301 6.4572 26.147C6.0232 26.007 5.5962 25.797 5.1762 25.517C4.7562 25.223 4.3572 24.866 3.9792 24.446C3.6152 24.026 3.2932 23.55 3.0132 23.018L3.2232 23.06C2.8312 23.606 2.5722 24.201 2.4462 24.845C2.3202 25.475 2.2572 26.035 2.2572 26.525C2.2572 26.917 2.2992 27.414 2.3832 28.016C2.4672 28.632 2.5722 29.283 2.6982 29.969C2.8382 30.655 2.9852 31.334 3.1392 32.006C3.3072 32.692 3.4612 33.308 3.6012 33.854L1.9422 34.253ZM7.8852 24.656C8.1372 24.656 8.3402 24.607 8.4942 24.509C8.6622 24.411 8.7742 24.264 8.8302 24.068C8.8862 23.872 8.8652 23.627 8.7672 23.333C8.5992 22.829 8.4452 22.388 8.3052 22.01C8.1652 21.618 8.0252 21.296 7.8852 21.044C7.7592 20.778 7.6262 20.582 7.4862 20.456C7.3462 20.33 7.1992 20.267 7.0452 20.267C6.8912 20.267 6.6952 20.302 6.4572 20.372C6.2332 20.442 5.9882 20.547 5.7222 20.687C5.4702 20.827 5.2112 21.002 4.9452 21.212C4.6792 21.422 4.4272 21.667 4.1892 21.947L4.2102 21.779C4.5182 22.423 4.8892 22.962 5.3232 23.396C5.7712 23.83 6.2192 24.152 6.6672 24.362C7.1292 24.558 7.5352 24.656 7.8852 24.656ZM16.0302 16.022C15.4282 16.022 14.9732 15.84 14.6652 15.476C14.3712 15.112 14.2242 14.685 14.2242 14.195C14.2242 13.789 14.3012 13.425 14.4552 13.103C14.6232 12.767 14.8542 12.501 15.1482 12.305C15.4422 12.095 15.7712 11.99 16.1352 11.99C16.4712 11.99 16.7722 12.088 17.0382 12.284C17.3042 12.48 17.5142 12.739 17.6682 13.061C17.8222 13.383 17.8992 13.726 17.8992 14.09C17.8992 14.636 17.7242 15.098 17.3742 15.476C17.0242 15.84 16.5762 16.022 16.0302 16.022ZM16.0092 14.93C16.2472 14.93 16.4502 14.853 16.6182 14.699C16.8002 14.545 16.8912 14.342 16.8912 14.09C16.8912 13.824 16.8002 13.607 16.6182 13.439C16.4362 13.257 16.2402 13.166 16.0302 13.166C15.7642 13.166 15.5542 13.257 15.4002 13.439C15.2602 13.621 15.1902 13.831 15.1902 14.069C15.1902 14.321 15.2672 14.531 15.4212 14.699C15.5752 14.853 15.7712 14.93 16.0092 14.93ZM12.1172 26.105L12.3272 24.383C13.0272 24.383 13.5732 24.334 13.9652 24.236C14.3572 24.124 14.6512 23.921 14.8472 23.627C15.0572 23.319 15.2252 22.878 15.3512 22.304C15.4772 21.73 15.6312 20.981 15.8132 20.057L17.4512 20.372C17.3952 20.624 17.3322 20.904 17.2622 21.212C17.1922 21.52 17.1292 21.828 17.0732 22.136C17.0312 22.43 17.0102 22.689 17.0102 22.913C17.0102 23.123 17.0242 23.319 17.0522 23.501C17.0802 23.683 17.1852 23.837 17.3672 23.963C17.5492 24.089 17.8572 24.194 18.2912 24.278C18.7252 24.348 19.3482 24.383 20.1602 24.383C20.4542 24.383 20.6642 24.467 20.7902 24.635C20.9302 24.789 21.0002 24.978 21.0002 25.202C21.0002 25.426 20.9022 25.636 20.7062 25.832C20.5102 26.014 20.2582 26.105 19.9502 26.105C19.0962 26.105 18.4172 26.063 17.9132 25.979C17.4092 25.881 17.0242 25.741 16.7582 25.559C16.5062 25.377 16.3242 25.153 16.2122 24.887C16.1142 24.607 16.0372 24.285 15.9812 23.921L16.6112 23.963C16.3872 24.411 16.1422 24.775 15.8762 25.055C15.6242 25.335 15.3302 25.552 14.9942 25.706C14.6582 25.86 14.2522 25.965 13.7762 26.021C13.3142 26.077 12.7612 26.105 12.1172 26.105ZM17.4092 30.074C17.1152 30.074 16.8632 29.969 16.6532 29.759C16.4572 29.563 16.3592 29.325 16.3592 29.045C16.3592 28.765 16.4572 28.52 16.6532 28.31C16.8632 28.1 17.1152 27.995 17.4092 27.995C17.6892 27.995 17.9272 28.1 18.1232 28.31C18.3332 28.52 18.4382 28.765 18.4382 29.045C18.4382 29.325 18.3332 29.563 18.1232 29.759C17.9272 29.969 17.6892 30.074 17.4092 30.074ZM14.5322 30.074C14.2382 30.074 13.9862 29.969 13.7762 29.759C13.5802 29.563 13.4822 29.325 13.4822 29.045C13.4822 28.765 13.5802 28.52 13.7762 28.31C13.9862 28.1 14.2382 27.995 14.5322 27.995C14.8122 27.995 15.0502 28.1 15.2462 28.31C15.4562 28.52 15.5612 28.765 15.5612 29.045C15.5612 29.325 15.4562 29.563 15.2462 29.759C15.0502 29.969 14.8122 30.074 14.5322 30.074ZM23.6623 29.591V28.415L28.3663 27.029V28.226L23.6623 29.591ZM19.9512 26.105L20.1402 24.383C20.8682 24.383 21.5822 24.327 22.2822 24.215C22.9822 24.103 23.6682 23.942 24.3402 23.732C25.0122 23.522 25.6562 23.27 26.2722 22.976C26.9022 22.668 27.4972 22.318 28.0572 21.926C27.6932 21.604 27.2732 21.324 26.7972 21.086C26.3212 20.848 25.7962 20.666 25.2222 20.54C24.6622 20.4 24.0672 20.33 23.4372 20.33C23.2132 20.33 23.0032 20.337 22.8072 20.351C22.6112 20.365 22.4152 20.393 22.2192 20.435C22.0232 20.463 21.7992 20.505 21.5472 20.561L21.2112 18.965C21.5892 18.853 21.9672 18.769 22.3452 18.713C22.7232 18.643 23.0872 18.608 23.4372 18.608C24.1652 18.608 24.8232 18.699 25.4112 18.881C25.9992 19.049 26.5312 19.259 27.0072 19.511C27.4972 19.763 27.9522 20.015 28.3722 20.267C28.8062 20.519 29.2262 20.736 29.6322 20.918C30.0382 21.086 30.4582 21.17 30.8922 21.17H31.3332L31.4802 22.682C30.8782 22.682 30.3252 22.766 29.8212 22.934C29.3172 23.102 28.8202 23.319 28.3302 23.585C27.8542 23.837 27.3502 24.11 26.8182 24.404C26.2862 24.684 25.6982 24.957 25.0542 25.223C24.4102 25.475 23.6682 25.685 22.8282 25.853C22.0022 26.021 21.0432 26.105 19.9512 26.105ZM31.9679 11.358V10.182L36.6719 8.796V9.993L31.9679 11.358ZM33.224 15.589C32.664 15.589 32.293 15.407 32.111 15.043C31.929 14.665 31.838 14.266 31.838 13.846C31.838 13.692 31.845 13.531 31.859 13.363C31.887 13.181 31.922 12.978 31.964 12.754L33.014 12.46C32.972 12.698 32.937 12.922 32.909 13.132C32.895 13.328 32.888 13.503 32.888 13.657C32.888 13.923 32.93 14.119 33.014 14.245C33.098 14.371 33.231 14.434 33.413 14.434C33.623 14.434 33.798 14.329 33.938 14.119C34.078 13.895 34.155 13.454 34.169 12.796V12.166L35.177 11.788V13.069C35.177 13.265 35.212 13.44 35.282 13.594C35.366 13.734 35.534 13.804 35.786 13.804C36.038 13.804 36.206 13.727 36.29 13.573C36.374 13.419 36.416 13.223 36.416 12.985C36.416 12.747 36.388 12.509 36.332 12.271C36.276 12.019 36.199 11.774 36.101 11.536L37.046 11.242C37.186 11.508 37.298 11.816 37.382 12.166C37.48 12.502 37.529 12.81 37.529 13.09C37.529 13.552 37.396 13.972 37.13 14.35C36.878 14.714 36.479 14.896 35.933 14.896C35.499 14.896 35.142 14.784 34.862 14.56C34.596 14.322 34.463 14.042 34.463 13.72L34.946 13.909C34.946 14.385 34.778 14.784 34.442 15.106C34.12 15.428 33.714 15.589 33.224 15.589ZM31.5606 30.872L30.9516 29.276C31.9736 28.94 32.8206 28.555 33.4926 28.121C34.1786 27.687 34.7176 27.225 35.1096 26.735C35.5156 26.245 35.8026 25.748 35.9706 25.244C36.1386 24.726 36.2226 24.229 36.2226 23.753C36.2226 23.067 36.0686 22.374 35.7606 21.674C35.4666 20.96 35.1376 20.288 34.7736 19.658L36.3066 18.881C36.5726 19.371 36.8036 19.854 36.9996 20.33C37.2096 20.806 37.3916 21.254 37.5456 21.674C37.7136 22.094 37.8466 22.479 37.9446 22.829C38.1406 23.431 38.3926 23.844 38.7006 24.068C39.0226 24.278 39.4566 24.383 40.0026 24.383C40.2966 24.383 40.5066 24.467 40.6326 24.635C40.7726 24.789 40.8426 24.978 40.8426 25.202C40.8426 25.426 40.7446 25.636 40.5486 25.832C40.3526 26.014 40.1006 26.105 39.7926 26.105C39.1766 26.105 38.6726 26 38.2806 25.79C37.9026 25.566 37.6156 25.279 37.4196 24.929C37.2236 24.565 37.0906 24.187 37.0206 23.795L37.6926 24.173C37.6926 25.097 37.4826 25.937 37.0626 26.693C36.6566 27.463 36.1316 28.128 35.4876 28.688C34.8436 29.262 34.1716 29.731 33.4716 30.095C32.7716 30.459 32.1346 30.718 31.5606 30.872ZM39.8027 26.105L39.9917 24.383C40.7897 24.383 41.3497 24.306 41.6717 24.152C41.9937 23.998 42.1757 23.725 42.2177 23.333C42.2737 22.941 42.2877 22.395 42.2597 21.695L41.8607 11.006H43.5617L43.9817 21.506C44.0097 22.248 43.9817 22.906 43.8977 23.48C43.8277 24.054 43.6457 24.537 43.3517 24.929C43.0717 25.321 42.6447 25.615 42.0707 25.811C41.5107 26.007 40.7547 26.105 39.8027 26.105ZM47.1898 26L46.7698 11.006H48.4708L48.8908 26H47.1898ZM59.8175 33.591V32.415L64.5215 31.029V32.226L59.8175 33.591ZM56.0187 26.021C56.0187 25.517 56.0887 24.957 56.2287 24.341C56.3687 23.725 56.5927 23.046 56.9007 22.304L58.4127 22.892C58.1887 23.48 58.0207 24.019 57.9087 24.509C57.7967 24.999 57.7407 25.454 57.7407 25.874C57.7407 26.644 57.9297 27.267 58.3077 27.743C58.6997 28.233 59.2177 28.59 59.8617 28.814C60.5197 29.038 61.2407 29.15 62.0247 29.15C62.9767 29.15 63.7747 29.045 64.4187 28.835C65.0627 28.639 65.5737 28.366 65.9517 28.016C66.3297 27.666 66.5957 27.267 66.7497 26.819C66.9177 26.385 67.0017 25.93 67.0017 25.454C67.0017 24.838 66.9527 24.257 66.8547 23.711C66.7707 23.165 66.6517 22.633 66.4977 22.115C66.3577 21.583 66.2037 21.044 66.0357 20.498L67.7367 20.036C67.8907 20.568 68.0097 21.002 68.0937 21.338C68.1777 21.66 68.2407 21.919 68.2827 22.115C68.3387 22.311 68.3877 22.486 68.4297 22.64C68.5837 23.158 68.7867 23.543 69.0387 23.795C69.2907 24.033 69.5777 24.194 69.8997 24.278C70.2357 24.348 70.5787 24.383 70.9287 24.383C71.2227 24.383 71.4327 24.467 71.5587 24.635C71.6987 24.789 71.7687 24.978 71.7687 25.202C71.7687 25.426 71.6707 25.636 71.4747 25.832C71.2787 26.014 71.0267 26.105 70.7187 26.105C70.1307 26.105 69.6407 26.007 69.2487 25.811C68.8567 25.601 68.5487 25.342 68.3247 25.034C68.1147 24.726 67.9747 24.404 67.9047 24.068L68.7657 25.139C68.7237 25.853 68.5837 26.546 68.3457 27.218C68.1217 27.904 67.7577 28.52 67.2537 29.066C66.7497 29.626 66.0637 30.067 65.1957 30.389C64.3417 30.711 63.2637 30.872 61.9617 30.872C61.1637 30.872 60.4077 30.774 59.6937 30.578C58.9797 30.382 58.3427 30.081 57.7827 29.675C57.2367 29.283 56.8027 28.779 56.4807 28.163C56.1727 27.561 56.0187 26.847 56.0187 26.021ZM62.3607 17.642C62.0667 17.642 61.8147 17.544 61.6047 17.348C61.4087 17.138 61.3107 16.893 61.3107 16.613C61.3107 16.333 61.4087 16.088 61.6047 15.878C61.8147 15.668 62.0667 15.563 62.3607 15.563C62.6407 15.563 62.8787 15.668 63.0747 15.878C63.2847 16.088 63.3897 16.333 63.3897 16.613C63.3897 16.893 63.2847 17.138 63.0747 17.348C62.8787 17.544 62.6407 17.642 62.3607 17.642ZM74.4396 15.358V14.182L79.1436 12.796V13.993L74.4396 15.358ZM70.7285 26.105L70.9385 24.383C71.3305 24.383 71.6385 24.299 71.8625 24.131C72.1005 23.963 72.3245 23.683 72.5345 23.291C72.7585 22.899 73.0385 22.374 73.3745 21.716C73.7105 21.044 74.0465 20.498 74.3825 20.078C74.7325 19.644 75.0685 19.308 75.3905 19.07C75.7265 18.818 76.0415 18.643 76.3355 18.545C76.6295 18.447 76.9025 18.398 77.1545 18.398C77.6165 18.398 78.0295 18.503 78.3935 18.713C78.7575 18.909 79.1005 19.252 79.4225 19.742C79.7445 20.218 80.0735 20.876 80.4095 21.716C80.7315 22.486 81.0185 23.067 81.2705 23.459C81.5365 23.837 81.8095 24.089 82.0895 24.215C82.3835 24.327 82.7125 24.383 83.0765 24.383C83.3705 24.383 83.5805 24.467 83.7065 24.635C83.8465 24.789 83.9165 24.978 83.9165 25.202C83.9165 25.426 83.8185 25.636 83.6225 25.832C83.4265 26.014 83.1745 26.105 82.8665 26.105C82.3205 26.105 81.8165 26.014 81.3545 25.832C80.9065 25.65 80.5285 25.363 80.2205 24.971L80.5145 24.53C80.3605 24.964 80.1505 25.321 79.8845 25.601C79.6325 25.867 79.3455 26.063 79.0235 26.189C78.7015 26.329 78.3585 26.399 77.9945 26.399C77.5325 26.399 77.0565 26.301 76.5665 26.105C76.0905 25.909 75.6285 25.629 75.1805 25.265C74.7325 24.901 74.3405 24.474 74.0045 23.984C73.6405 24.628 73.2905 25.104 72.9545 25.412C72.6325 25.706 72.2965 25.895 71.9465 25.979C71.5965 26.063 71.1905 26.105 70.7285 26.105ZM74.8025 22.388C75.0405 22.78 75.2925 23.123 75.5585 23.417C75.8385 23.711 76.1185 23.956 76.3985 24.152C76.6785 24.334 76.9515 24.474 77.2175 24.572C77.4975 24.656 77.7495 24.698 77.9735 24.698C78.4635 24.698 78.8205 24.523 79.0445 24.173C79.2825 23.823 79.2755 23.333 79.0235 22.703C78.8975 22.381 78.7645 22.066 78.6245 21.758C78.4985 21.45 78.3585 21.17 78.2045 20.918C78.0505 20.652 77.8755 20.449 77.6795 20.309C77.4835 20.155 77.2665 20.078 77.0285 20.078C76.8185 20.078 76.5945 20.148 76.3565 20.288C76.1325 20.428 75.8875 20.666 75.6215 21.002C75.3695 21.338 75.0965 21.8 74.8025 22.388ZM86.1465 15.022C85.5445 15.022 85.0895 14.84 84.7815 14.476C84.4875 14.112 84.3405 13.685 84.3405 13.195C84.3405 12.789 84.4175 12.425 84.5715 12.103C84.7395 11.767 84.9705 11.501 85.2645 11.305C85.5585 11.095 85.8875 10.99 86.2515 10.99C86.5875 10.99 86.8885 11.088 87.1545 11.284C87.4205 11.48 87.6305 11.739 87.7845 12.061C87.9385 12.383 88.0155 12.726 88.0155 13.09C88.0155 13.636 87.8405 14.098 87.4905 14.476C87.1405 14.84 86.6925 15.022 86.1465 15.022ZM86.1255 13.93C86.3635 13.93 86.5665 13.853 86.7345 13.699C86.9165 13.545 87.0075 13.342 87.0075 13.09C87.0075 12.824 86.9165 12.607 86.7345 12.439C86.5525 12.257 86.3565 12.166 86.1465 12.166C85.8805 12.166 85.6705 12.257 85.5165 12.439C85.3765 12.621 85.3065 12.831 85.3065 13.069C85.3065 13.321 85.3835 13.531 85.5375 13.699C85.6915 13.853 85.8875 13.93 86.1255 13.93ZM82.8691 26.105L83.0581 24.383C83.7861 24.383 84.5001 24.327 85.2001 24.215C85.9001 24.103 86.5861 23.942 87.2581 23.732C87.9301 23.522 88.5741 23.27 89.1901 22.976C89.8201 22.668 90.4151 22.318 90.9751 21.926C90.6111 21.604 90.1911 21.324 89.7151 21.086C89.2391 20.848 88.7141 20.666 88.1401 20.54C87.5801 20.4 86.9851 20.33 86.3551 20.33C86.1311 20.33 85.9211 20.337 85.7251 20.351C85.5291 20.365 85.3331 20.393 85.1371 20.435C84.9411 20.463 84.7171 20.505 84.4651 20.561L84.1291 18.965C84.5071 18.853 84.8851 18.769 85.2631 18.713C85.6411 18.643 86.0051 18.608 86.3551 18.608C87.0831 18.608 87.7411 18.699 88.3291 18.881C88.9171 19.049 89.4491 19.259 89.9251 19.511C90.4151 19.763 90.8701 20.015 91.2901 20.267C91.7241 20.519 92.1441 20.736 92.5501 20.918C92.9561 21.086 93.3761 21.17 93.8101 21.17H94.2511L94.3981 22.682C93.7961 22.682 93.2431 22.766 92.7391 22.934C92.2351 23.102 91.7381 23.319 91.2481 23.585C90.7721 23.837 90.2681 24.11 89.7361 24.404C89.2041 24.684 88.6161 24.957 87.9721 25.223C87.3281 25.475 86.5861 25.685 85.7461 25.853C84.9201 26.021 83.9611 26.105 82.8691 26.105ZM96.142 15.589C95.582 15.589 95.211 15.407 95.029 15.043C94.847 14.665 94.756 14.266 94.756 13.846C94.756 13.692 94.763 13.531 94.777 13.363C94.805 13.181 94.84 12.978 94.882 12.754L95.932 12.46C95.89 12.698 95.855 12.922 95.827 13.132C95.813 13.328 95.806 13.503 95.806 13.657C95.806 13.923 95.848 14.119 95.932 14.245C96.016 14.371 96.149 14.434 96.331 14.434C96.541 14.434 96.716 14.329 96.856 14.119C96.996 13.895 97.073 13.454 97.087 12.796V12.166L98.095 11.788V13.069C98.095 13.265 98.13 13.44 98.2 13.594C98.284 13.734 98.452 13.804 98.704 13.804C98.956 13.804 99.124 13.727 99.208 13.573C99.292 13.419 99.334 13.223 99.334 12.985C99.334 12.747 99.306 12.509 99.25 12.271C99.194 12.019 99.117 11.774 99.019 11.536L99.964 11.242C100.104 11.508 100.216 11.816 100.3 12.166C100.398 12.502 100.447 12.81 100.447 13.09C100.447 13.552 100.314 13.972 100.048 14.35C99.796 14.714 99.397 14.896 98.851 14.896C98.417 14.896 98.06 14.784 97.78 14.56C97.514 14.322 97.381 14.042 97.381 13.72L97.864 13.909C97.864 14.385 97.696 14.784 97.36 15.106C97.038 15.428 96.632 15.589 96.142 15.589ZM94.8859 11.358V10.182L99.5899 8.796V9.993L94.8859 11.358ZM94.4785 30.872L93.8695 29.276C94.8915 28.94 95.7385 28.555 96.4105 28.121C97.0965 27.687 97.6355 27.225 98.0275 26.735C98.4335 26.245 98.7205 25.748 98.8885 25.244C99.0565 24.726 99.1405 24.229 99.1405 23.753C99.1405 23.067 98.9865 22.374 98.6785 21.674C98.3845 20.96 98.0555 20.288 97.6915 19.658L99.2245 18.881C99.4905 19.371 99.7215 19.854 99.9175 20.33C100.128 20.806 100.31 21.254 100.464 21.674C100.632 22.094 100.765 22.479 100.863 22.829C101.059 23.431 101.311 23.844 101.619 24.068C101.941 24.278 102.375 24.383 102.921 24.383C103.215 24.383 103.425 24.467 103.551 24.635C103.691 24.789 103.761 24.978 103.761 25.202C103.761 25.426 103.663 25.636 103.467 25.832C103.271 26.014 103.019 26.105 102.711 26.105C102.095 26.105 101.591 26 101.199 25.79C100.821 25.566 100.534 25.279 100.338 24.929C100.142 24.565 100.009 24.187 99.9385 23.795L100.611 24.173C100.611 25.097 100.401 25.937 99.9805 26.693C99.5745 27.463 99.0495 28.128 98.4055 28.688C97.7615 29.262 97.0895 29.731 96.3895 30.095C95.6895 30.459 95.0525 30.718 94.4785 30.872ZM102.721 26.105L102.91 24.383C103.708 24.383 104.268 24.306 104.59 24.152C104.912 23.998 105.094 23.725 105.136 23.333C105.192 22.941 105.206 22.395 105.178 21.695L104.779 11.006H106.48L106.9 21.506C106.928 22.248 106.9 22.906 106.816 23.48C106.746 24.054 106.564 24.537 106.27 24.929C105.99 25.321 105.563 25.615 104.989 25.811C104.429 26.007 103.673 26.105 102.721 26.105ZM110.108 26L109.688 11.006H111.389L111.809 26H110.108ZM121.485 29.591V28.415L126.189 27.029V28.226L121.485 29.591ZM128.513 26.105C127.757 26.105 127.085 26 126.497 25.79C125.923 25.566 125.461 25.195 125.111 24.677C124.775 24.145 124.586 23.41 124.544 22.472L124.208 15.164H125.909L126.245 22.094C126.287 22.752 126.406 23.249 126.602 23.585C126.798 23.907 127.071 24.124 127.421 24.236C127.785 24.334 128.219 24.383 128.723 24.383C129.017 24.383 129.227 24.467 129.353 24.635C129.493 24.789 129.563 24.978 129.563 25.202C129.563 25.426 129.465 25.636 129.269 25.832C129.073 26.014 128.821 26.105 128.513 26.105ZM125.342 23.795C124.544 24.047 123.767 24.173 123.011 24.173C122.255 24.173 121.569 24.061 120.953 23.837C120.337 23.613 119.847 23.291 119.483 22.871C119.119 22.437 118.937 21.919 118.937 21.317C118.937 20.729 119.084 20.176 119.378 19.658C119.686 19.14 120.099 18.678 120.617 18.272C121.149 17.866 121.758 17.53 122.444 17.264C123.144 16.984 123.886 16.795 124.67 16.697L124.964 18.461C124.264 18.489 123.641 18.587 123.095 18.755C122.563 18.909 122.108 19.112 121.73 19.364C121.366 19.616 121.086 19.889 120.89 20.183C120.694 20.477 120.596 20.764 120.596 21.044C120.596 21.352 120.708 21.604 120.932 21.8C121.156 21.996 121.443 22.15 121.793 22.262C122.143 22.36 122.528 22.423 122.948 22.451C123.368 22.465 123.774 22.451 124.166 22.409C124.558 22.353 124.894 22.276 125.174 22.178L125.342 23.795ZM128.621 3.358V2.182L133.325 0.795999V1.993L128.621 3.358ZM129.877 7.589C129.317 7.589 128.946 7.407 128.764 7.043C128.582 6.665 128.491 6.266 128.491 5.846C128.491 5.692 128.498 5.531 128.512 5.363C128.54 5.181 128.575 4.978 128.617 4.754L129.667 4.46C129.625 4.698 129.59 4.922 129.562 5.132C129.548 5.328 129.541 5.503 129.541 5.657C129.541 5.923 129.583 6.119 129.667 6.245C129.751 6.371 129.884 6.434 130.066 6.434C130.276 6.434 130.451 6.329 130.591 6.119C130.731 5.895 130.808 5.454 130.822 4.796V4.166L131.83 3.788V5.069C131.83 5.265 131.865 5.44 131.935 5.594C132.019 5.734 132.187 5.804 132.439 5.804C132.691 5.804 132.859 5.727 132.943 5.573C133.027 5.419 133.069 5.223 133.069 4.985C133.069 4.747 133.041 4.509 132.985 4.271C132.929 4.019 132.852 3.774 132.754 3.536L133.699 3.242C133.839 3.508 133.951 3.816 134.035 4.166C134.133 4.502 134.182 4.81 134.182 5.09C134.182 5.552 134.049 5.972 133.783 6.35C133.531 6.714 133.132 6.896 132.586 6.896C132.152 6.896 131.795 6.784 131.515 6.56C131.249 6.322 131.116 6.042 131.116 5.72L131.599 5.909C131.599 6.385 131.431 6.784 131.095 7.106C130.773 7.428 130.367 7.589 129.877 7.589ZM128.52 26.105L128.709 24.383C129.507 24.383 130.067 24.306 130.389 24.152C130.711 23.998 130.893 23.725 130.935 23.333C130.991 22.941 131.005 22.395 130.977 21.695L130.62 11.006H132.363L132.699 21.653C132.727 22.367 132.839 22.927 133.035 23.333C133.245 23.725 133.525 23.998 133.875 24.152C134.225 24.306 134.61 24.383 135.03 24.383C135.324 24.383 135.534 24.467 135.66 24.635C135.8 24.789 135.87 24.978 135.87 25.202C135.87 25.426 135.772 25.636 135.576 25.832C135.38 26.014 135.128 26.105 134.82 26.105C134.232 26.105 133.742 26.014 133.35 25.832C132.972 25.636 132.671 25.391 132.447 25.097C132.237 24.789 132.097 24.467 132.027 24.131L132.468 24.173C132.328 24.593 132.097 24.95 131.775 25.244C131.467 25.524 131.047 25.741 130.515 25.895C129.983 26.035 129.318 26.105 128.52 26.105ZM134.815 26.105L135.004 24.383C135.802 24.383 136.362 24.306 136.684 24.152C137.006 23.998 137.188 23.725 137.23 23.333C137.286 22.941 137.3 22.395 137.272 21.695L136.873 11.006H138.574L138.994 21.506C139.022 22.248 138.994 22.906 138.91 23.48C138.84 24.054 138.658 24.537 138.364 24.929C138.084 25.321 137.657 25.615 137.083 25.811C136.523 26.007 135.767 26.105 134.815 26.105ZM142.203 26L141.783 11.006H143.484L143.904 26H142.203ZM154.153 29.591V28.415L158.857 27.029V28.226L154.153 29.591ZM152.018 34.253C151.724 33.175 151.472 32.118 151.262 31.082C151.052 30.06 150.891 29.143 150.779 28.331C150.667 27.519 150.611 26.917 150.611 26.525C150.611 25.489 150.779 24.544 151.115 23.69C151.451 22.836 151.885 22.087 152.417 21.443C152.949 20.785 153.523 20.232 154.139 19.784C154.755 19.322 155.35 18.979 155.924 18.755C156.512 18.517 157.009 18.398 157.415 18.398C157.765 18.398 158.073 18.475 158.339 18.629C158.605 18.783 158.864 19.084 159.116 19.532C159.368 19.98 159.634 20.638 159.914 21.506C160.18 22.304 160.432 22.913 160.67 23.333C160.908 23.739 161.167 24.019 161.447 24.173C161.727 24.313 162.049 24.383 162.413 24.383C162.707 24.383 162.917 24.467 163.043 24.635C163.183 24.789 163.253 24.978 163.253 25.202C163.253 25.426 163.155 25.636 162.959 25.832C162.763 26.014 162.511 26.105 162.203 26.105C161.657 26.105 161.188 26.007 160.796 25.811C160.418 25.615 160.089 25.349 159.809 25.013L160.292 24.614C160.124 25.02 159.907 25.356 159.641 25.622C159.389 25.874 159.102 26.063 158.78 26.189C158.472 26.315 158.143 26.378 157.793 26.378C157.387 26.378 156.967 26.301 156.533 26.147C156.099 26.007 155.672 25.797 155.252 25.517C154.832 25.223 154.433 24.866 154.055 24.446C153.691 24.026 153.369 23.55 153.089 23.018L153.299 23.06C152.907 23.606 152.648 24.201 152.522 24.845C152.396 25.475 152.333 26.035 152.333 26.525C152.333 26.917 152.375 27.414 152.459 28.016C152.543 28.632 152.648 29.283 152.774 29.969C152.914 30.655 153.061 31.334 153.215 32.006C153.383 32.692 153.537 33.308 153.677 33.854L152.018 34.253ZM157.961 24.656C158.213 24.656 158.416 24.607 158.57 24.509C158.738 24.411 158.85 24.264 158.906 24.068C158.962 23.872 158.941 23.627 158.843 23.333C158.675 22.829 158.521 22.388 158.381 22.01C158.241 21.618 158.101 21.296 157.961 21.044C157.835 20.778 157.702 20.582 157.562 20.456C157.422 20.33 157.275 20.267 157.121 20.267C156.967 20.267 156.771 20.302 156.533 20.372C156.309 20.442 156.064 20.547 155.798 20.687C155.546 20.827 155.287 21.002 155.021 21.212C154.755 21.422 154.503 21.667 154.265 21.947L154.286 21.779C154.594 22.423 154.965 22.962 155.399 23.396C155.847 23.83 156.295 24.152 156.743 24.362C157.205 24.558 157.611 24.656 157.961 24.656ZM170.967 15.022C170.365 15.022 169.91 14.84 169.602 14.476C169.308 14.112 169.161 13.685 169.161 13.195C169.161 12.789 169.238 12.425 169.392 12.103C169.56 11.767 169.791 11.501 170.085 11.305C170.379 11.095 170.708 10.99 171.072 10.99C171.408 10.99 171.709 11.088 171.975 11.284C172.241 11.48 172.451 11.739 172.605 12.061C172.759 12.383 172.836 12.726 172.836 13.09C172.836 13.636 172.661 14.098 172.311 14.476C171.961 14.84 171.513 15.022 170.967 15.022ZM170.946 13.93C171.184 13.93 171.387 13.853 171.555 13.699C171.737 13.545 171.828 13.342 171.828 13.09C171.828 12.824 171.737 12.607 171.555 12.439C171.373 12.257 171.177 12.166 170.967 12.166C170.701 12.166 170.491 12.257 170.337 12.439C170.197 12.621 170.127 12.831 170.127 13.069C170.127 13.321 170.204 13.531 170.358 13.699C170.512 13.853 170.708 13.93 170.946 13.93ZM162.193 26.105L162.403 24.383C162.851 24.383 163.215 24.355 163.495 24.299C163.775 24.229 164.006 24.068 164.188 23.816C164.384 23.55 164.566 23.137 164.734 22.577C164.902 22.017 165.098 21.233 165.322 20.225L166.897 20.666C166.813 21.016 166.715 21.436 166.603 21.926C166.491 22.416 166.435 22.864 166.435 23.27C166.435 23.494 166.491 23.69 166.603 23.858C166.715 24.026 166.904 24.159 167.17 24.257C167.45 24.341 167.821 24.383 168.283 24.383C168.703 24.383 169.046 24.348 169.312 24.278C169.578 24.208 169.795 24.04 169.963 23.774C170.145 23.508 170.306 23.081 170.446 22.493C170.586 21.905 170.733 21.1 170.887 20.078L172.483 20.372C172.441 20.624 172.392 20.932 172.336 21.296C172.28 21.66 172.224 22.024 172.168 22.388C172.126 22.738 172.105 23.032 172.105 23.27C172.105 23.466 172.147 23.655 172.231 23.837C172.329 24.005 172.511 24.138 172.777 24.236C173.057 24.334 173.47 24.383 174.016 24.383C174.716 24.383 175.22 24.236 175.528 23.942C175.85 23.648 176.011 23.2 176.011 22.598C176.011 22.276 176.004 21.94 175.99 21.59C175.976 21.226 175.948 20.827 175.906 20.393C175.878 19.945 175.829 19.434 175.759 18.86L177.292 18.755C177.376 19.889 177.467 20.82 177.565 21.548C177.677 22.276 177.831 22.85 178.027 23.27C178.237 23.676 178.517 23.963 178.867 24.131C179.217 24.299 179.679 24.383 180.253 24.383C180.547 24.383 180.757 24.467 180.883 24.635C181.023 24.789 181.093 24.978 181.093 25.202C181.093 25.426 180.995 25.636 180.799 25.832C180.603 26.014 180.351 26.105 180.043 26.105C179.567 26.105 179.14 26.042 178.762 25.916C178.398 25.776 178.076 25.594 177.796 25.37C177.53 25.132 177.306 24.866 177.124 24.572C176.956 24.264 176.837 23.942 176.767 23.606L177.145 23.732C176.991 24.362 176.746 24.852 176.41 25.202C176.088 25.538 175.703 25.776 175.255 25.916C174.807 26.042 174.331 26.105 173.827 26.105C173.211 26.105 172.707 26.028 172.315 25.874C171.923 25.72 171.615 25.489 171.391 25.181C171.181 24.859 171.041 24.453 170.971 23.963H171.685C171.419 24.565 171.139 25.02 170.845 25.328C170.551 25.636 170.187 25.846 169.753 25.958C169.319 26.056 168.745 26.105 168.031 26.105C167.681 26.105 167.303 26.049 166.897 25.937C166.505 25.825 166.162 25.608 165.868 25.286C165.574 24.95 165.399 24.453 165.343 23.795L165.973 23.669C165.735 24.383 165.441 24.915 165.091 25.265C164.755 25.601 164.349 25.825 163.873 25.937C163.397 26.049 162.837 26.105 162.193 26.105ZM180.137 33.591V32.415L184.841 31.029V32.226L180.137 33.591ZM180.035 26.105L180.245 24.383C180.931 24.383 181.477 24.341 181.883 24.257C182.289 24.173 182.583 24.005 182.765 23.753C182.947 23.487 183.038 23.095 183.038 22.577C183.038 22.227 182.982 21.814 182.87 21.338C182.758 20.848 182.611 20.33 182.429 19.784C182.247 19.238 182.051 18.699 181.841 18.167L183.542 17.537C183.724 17.985 183.892 18.496 184.046 19.07C184.214 19.644 184.354 20.211 184.466 20.771C184.578 21.331 184.634 21.821 184.634 22.241C184.634 22.801 184.571 23.298 184.445 23.732C184.333 24.152 184.158 24.516 183.92 24.824C183.682 25.118 183.374 25.363 182.996 25.559C182.632 25.741 182.205 25.881 181.715 25.979C181.225 26.063 180.665 26.105 180.035 26.105ZM182.282 30.011C181.988 30.011 181.736 29.906 181.526 29.696C181.33 29.5 181.232 29.262 181.232 28.982C181.232 28.702 181.33 28.457 181.526 28.247C181.736 28.037 181.988 27.932 182.282 27.932C182.562 27.932 182.8 28.037 182.996 28.247C183.206 28.457 183.311 28.702 183.311 28.982C183.311 29.262 183.206 29.5 182.996 29.696C182.8 29.906 182.562 30.011 182.282 30.011ZM186.515 29.591V28.415L191.219 27.029V28.226L186.515 29.591Z" fill="#701651"/>
</svg>
