<svg width="57" height="47" viewBox="0 0 57 47" fill="none" xmlns="http://www.w3.org/2000/svg">
<path d="M29.2062 7.29636C29.0569 5.05434 30.2974 2.61519 32.0591 1.40739C32.5871 1.05201 32.9111 0.456618 33.4439 0.156447C33.5279 0.10842 33.6071 0.0675955 33.684 0.0459753C34.2264 -0.143775 34.4546 0.278663 34.9012 0.857088C36.3034 2.62355 37.1512 4.51976 36.5299 6.84116C35.9759 8.90569 34.7952 10.7399 32.5892 11.0068C32.3587 10.9781 32.1379 10.9349 31.9314 10.8701C30.311 10.352 29.2977 8.68863 29.2062 7.29636Z" fill="#FF81A0"/>
<path d="M31.9242 10.8653C31.576 10.2173 31.3526 9.47556 31.2493 8.89707C30.7086 6.00939 31.8457 2.46124 33.684 0.0459753C33.8064 0.00274126 33.9048 -0.00448056 34.0008 0.00750203C34.3345 0.0530423 34.5554 0.408269 34.9012 0.857088C35.6695 1.82672 36.2771 2.8348 36.5533 3.93417C36.784 4.8367 36.8082 5.79929 36.5179 6.84356C35.9639 8.90809 34.7832 10.7423 32.5772 11.0092C32.3467 10.9805 32.1259 10.9373 31.9194 10.8725L31.9242 10.8653Z" fill="#FF8FB3"/>
<path d="M32.7293 3.6637C32.9859 2.51382 33.3385 1.06385 34.0008 0.00750203C34.3345 0.0530423 34.5554 0.408269 34.9012 0.857088C35.6695 1.82672 36.2771 2.8348 36.5533 3.93417C36.3471 4.68076 36.0495 5.37696 35.6752 6.06358C34.9817 7.33838 34.3242 8.41873 33.1842 9.30235C32.0581 8.04232 32.384 5.14967 32.7221 3.6589L32.7293 3.6637Z" fill="#FFA3BE"/>
<path d="M33.1053 11.1843C33.4654 11.1123 33.8206 10.9537 34.1663 10.716C34.5335 10.4615 35.6064 9.80355 35.3782 9.22508C34.4229 9.50373 33.4628 10.008 32.4161 9.89303C31.8616 9.83553 31.3959 9.66039 30.9181 9.36283C30.498 9.10366 29.965 8.90453 29.5833 8.58775C29.4369 8.94785 29.7539 9.5335 29.9652 9.80951C30.2726 10.2223 30.6567 10.5511 31.0961 10.8127C31.3145 10.9375 31.5402 11.0358 31.7611 11.1102C31.5694 13.0834 31.8819 15.1118 31.5607 17.0923C31.3784 18.2085 31.1122 19.3104 30.7332 20.3787C30.4549 21.1709 29.6869 22.1985 29.9176 23.0386C29.9368 23.1034 29.9968 23.1226 30.0616 23.1034C30.9041 22.7911 31.2399 21.4132 31.547 20.6402C31.9956 19.483 32.3819 18.2947 32.6577 17.0848C33.0702 15.2484 33.5186 13.0926 33.1101 11.1771L33.1053 11.1843Z" fill="#714120"/>
<path d="M41.2469 7.02022C41.9762 4.89564 44.0619 3.12365 46.1622 2.70313C46.7863 2.57818 47.3144 2.16039 47.9241 2.08825C48.0225 2.08102 48.1089 2.07621 48.1905 2.07859C48.7594 2.11448 48.8051 2.59217 49.0021 3.29547C49.6051 5.46538 49.6583 7.53939 48.18 9.44568C46.8697 11.1311 45.0696 12.3653 42.933 11.7632C42.729 11.648 42.5465 11.5161 42.3809 11.3745C41.0916 10.2657 40.8007 8.34538 41.2541 7.02502L41.2469 7.02022Z" fill="#FF81A0"/>
<path d="M42.3737 11.3697C42.3015 10.6351 42.3901 9.86216 42.5077 9.29562C43.1312 6.42451 45.5479 3.59384 48.1785 2.08099C48.3057 2.09297 48.4042 2.11695 48.4834 2.16975C48.7739 2.34252 48.8316 2.75539 48.9853 3.30507C49.3168 4.49324 49.4875 5.65744 49.3197 6.78331C49.1855 7.70272 48.828 8.59818 48.1632 9.45529C46.8529 11.1407 45.0528 12.3749 42.9162 11.7728C42.7122 11.6577 42.5297 11.5257 42.3641 11.3841L42.3737 11.3697Z" fill="#FF8FB3"/>
<path d="M45.8939 5.04126C46.5754 4.08093 47.4633 2.8733 48.4882 2.16255C48.7787 2.33532 48.8364 2.74819 48.9901 3.29787C49.3216 4.48604 49.4923 5.65024 49.3245 6.7761C48.8469 7.38352 48.2973 7.91175 47.6901 8.40157C46.5549 9.30919 45.53 10.0511 44.1378 10.4235C43.5806 8.8249 45.0131 6.28489 45.8939 5.04126Z" fill="#FFA3BE"/>
<path d="M43.3292 12.1208C43.6869 12.1928 44.0782 12.1831 44.4862 12.1014C44.9231 12.0077 46.1641 11.8154 46.1832 11.1936C45.1942 11.0858 44.114 11.1773 43.1921 10.6566C42.7071 10.3854 42.3398 10.047 42.0108 9.58858C41.7251 9.19016 41.3097 8.79897 41.084 8.35733C40.808 8.63104 40.8729 9.29836 40.9594 9.63681C41.0843 10.1361 41.3053 10.5849 41.6198 11.0025C41.7735 11.209 41.9392 11.3818 42.1192 11.533C41.1762 13.2759 40.6821 15.266 39.6191 16.9706C39.0119 17.9285 38.3472 18.848 37.584 19.6811C37.0152 20.3006 35.9159 20.9513 35.8033 21.8227C35.7985 21.8923 35.8441 21.9331 35.9017 21.9403C36.7947 21.9738 37.6467 20.8358 38.2202 20.2403C39.0842 19.3496 39.9002 18.406 40.6153 17.3952C41.7072 15.8659 42.9527 14.0437 43.3244 12.128L43.3292 12.1208Z" fill="#714120"/>
<path d="M40.3079 40.2697C40.2047 40.2841 40.1039 40.2793 40.0079 40.2673C39.2157 40.1763 38.8698 39.353 38.5648 38.6713C38.2718 38.0184 37.8132 37.4736 37.5274 36.8255C37.2729 36.2399 37.3832 35.6997 37.4095 35.0828C37.4501 34.1946 37.1066 33.1337 37.7762 32.363C37.9298 32.1949 38.1146 32.0581 38.3138 31.962C39.0651 31.5994 40.0877 31.6568 40.8342 31.6758C41.9505 31.702 43.086 31.949 44.1518 32.2537C44.8672 32.4599 45.8203 32.6374 46.4661 32.9949C46.6365 33.0357 46.7325 33.1413 46.7662 33.2781C47.028 34.2743 44.1241 37.3523 43.6273 37.7701C42.9121 38.3751 42.0625 39.4939 41.1168 40.0078C40.8456 40.1495 40.572 40.248 40.2911 40.2793L40.3079 40.2697Z" fill="#FFA3BE"/>
<path d="M40.0127 40.26C39.2206 40.1689 38.8747 39.3456 38.5697 38.664C38.2767 38.0111 37.8181 37.4663 37.5323 36.8182C37.2778 36.2325 37.3881 35.6924 37.4143 35.0755C37.455 34.1873 37.1115 33.1263 37.7811 32.3557C37.9347 32.1876 38.1195 32.0507 38.3187 31.9547C39.07 31.592 40.0926 31.6494 40.8391 31.6685C41.9554 31.6947 43.0908 31.9417 44.1567 32.2463C44.8721 32.4526 45.8251 32.63 46.4709 32.9876C46.6414 33.0284 46.7374 33.134 46.7711 33.2708C45.835 33.9263 43.3456 33.4011 42.5607 33.5021C40.794 33.7185 39.5291 34.5397 39.1502 36.3882C38.8888 37.7013 39.3668 39.0287 39.9959 40.2696L40.0127 40.26Z" fill="#FF81A0"/>
<path d="M40.3079 40.2697C39.2973 40.3659 38.9035 39.4272 38.5697 38.664C38.2767 38.0111 37.8181 37.4663 37.5323 36.8182C37.2778 36.2325 37.3881 35.6924 37.4143 35.0755C37.455 34.1873 37.1115 33.1263 37.7811 32.3557C37.9347 32.1876 38.1195 32.0507 38.3187 31.9547C37.8868 32.9774 37.8704 34.7033 38.1778 35.6154C38.4468 36.4291 39.0734 36.597 39.6208 37.149C40.0266 37.5546 39.8394 37.8979 39.9427 38.414C40.0869 39.1029 40.6415 39.5349 41.1337 39.9981C40.8625 40.1398 40.5888 40.2384 40.3079 40.2697Z" fill="#FFB3CB"/>
<path d="M43.7874 33.3939C41.9414 33.1206 39.7688 32.2449 38.4674 30.7329C37.9656 30.1593 37.6006 29.4896 37.4228 28.7263C37.1176 27.4205 38.5122 26.9041 39.165 25.9558C39.8705 24.9282 40.4561 24.268 41.649 23.8044C42.3091 23.5474 43.046 23.3312 43.7542 23.4079C44.2631 23.4558 44.676 23.6166 45.0073 23.8685C45.0505 23.8973 45.0937 23.9261 45.125 23.9573C46.3206 24.9413 46.4963 27.0033 46.7366 28.4531C46.8784 29.3173 46.917 30.1334 46.9052 31.0096C46.898 31.4105 46.7781 31.8714 46.735 32.3107C46.7086 32.5531 46.7039 32.7788 46.7519 32.9876C46.9369 33.7869 44.1787 33.4466 43.7922 33.3867L43.7874 33.3939Z" fill="#FFA3BE"/>
<path d="M43.7874 33.3939C41.9414 33.1206 39.7688 32.2449 38.4674 30.7329C37.9656 30.1593 37.6006 29.4896 37.4228 28.7263C37.1176 27.4205 38.5122 26.9041 39.165 25.9558C39.8705 24.9282 40.4561 24.268 41.649 23.8044C42.3091 23.5474 43.046 23.3312 43.7542 23.4079C44.2631 23.4558 44.676 23.6166 45.0073 23.8685C45.0505 23.8973 45.0937 23.9261 45.125 23.9573C44.7433 24.0462 44.3088 24.0895 44.052 24.1784C43.5239 24.3465 43.1735 24.5291 42.7174 24.8388C41.6854 25.5448 40.8934 26.2651 40.0582 27.2374C39.4822 27.9145 38.8966 28.5123 39.0481 29.4245C39.2019 30.3174 39.7565 31.0927 40.412 31.6855C41.0987 32.3094 42.2294 32.9693 43.1944 32.6451C42.8532 31.3777 44.1233 32.3904 44.4594 32.5416C45.2588 32.8871 45.8612 32.1548 46.6846 32.3083C46.699 32.3179 46.711 32.3155 46.7302 32.3179C46.7038 32.5603 46.6991 32.786 46.7471 32.9948C46.9321 33.7941 44.1739 33.4538 43.7874 33.3939Z" fill="#FF81A0"/>
<path d="M38.4601 30.728C37.9582 30.1544 37.5932 29.4847 37.4154 28.7214C37.1103 27.4156 38.5049 26.8992 39.1576 25.9509C39.8631 24.9233 40.4487 24.2631 41.6417 23.7995C42.3018 23.5425 43.0387 23.3263 43.7468 23.403C44.2557 23.4509 44.6686 23.6117 45 23.8636C43.6653 23.6815 41.6825 24.066 41.8509 25.5614C41.9423 26.4232 42.7057 26.5887 41.8128 27.273C41.2608 27.6956 40.4879 27.8566 39.859 28.2072C38.8509 28.7523 38.7767 29.7845 38.4625 30.74L38.4601 30.728Z" fill="#FFB3CB"/>
<path d="M47.1859 43.3241C46.5953 42.8993 46.5307 43.6987 46.0362 43.8164C45.5969 43.9293 44.9055 43.2189 44.6053 42.9669C44.2956 42.6981 43.9787 42.3933 43.729 42.0501C43.5249 41.7789 43.3568 41.4693 43.2727 41.1428C43.0012 40.0987 42.9602 39.0521 43.1808 38.0342C43.2624 37.6621 43.3823 37.2948 43.5335 36.9275C43.9078 36.0537 44.3349 35.163 45.0357 34.5171C45.4821 34.097 45.9765 33.4799 46.615 33.3646C46.687 33.3502 46.7662 33.3405 46.843 33.3501C48.0144 33.3715 48.7759 35.9903 49.1722 36.8471C49.4628 37.488 49.7606 38.0713 49.9455 38.6834C50.1113 39.2306 50.2002 39.7995 50.1307 40.4501C50.102 40.7429 50.042 41.067 49.9461 41.3983C49.6918 42.3417 49.2047 43.3381 48.5135 43.8759C47.6375 44.5506 47.7213 43.7224 47.1811 43.3313L47.1859 43.3241Z" fill="#FFA3BE"/>
<path d="M47.1859 43.3241C46.5953 42.8993 46.5307 43.6987 46.0362 43.8164C45.5969 43.9293 44.9055 43.2189 44.6053 42.9669C44.2956 42.6981 43.9787 42.3933 43.729 42.0501C44.1347 42.4245 44.5598 42.7388 44.9103 42.9619C45.6329 43.4227 45.957 43.3266 46.6386 42.8967C47.4307 42.3949 47.1452 43.0575 47.8462 43.3478C48.3287 43.5445 48.9071 43.0667 49.1975 42.709C49.5191 42.32 49.7134 41.8567 49.9366 41.4126C49.9366 41.4126 49.9462 41.3982 49.951 41.391C49.6967 42.3344 49.2096 43.3307 48.5184 43.8686C47.6424 44.5433 47.7261 43.7152 47.1859 43.3241Z" fill="#FFB3CB"/>
<path d="M49.9432 38.6712C49.0236 37.7568 48.4497 36.4175 47.6789 35.4046C47.5517 35.5175 47.3813 35.6015 47.2637 35.7312C46.8363 35.2176 46.8529 34.5526 46.3466 35.3281C45.8043 36.1732 45.9842 35.5442 45.4512 35.0018C44.9568 35.494 44.4887 35.775 44.1144 36.3992C43.7976 36.9369 43.4473 37.4627 43.1857 38.0269C43.2673 37.6548 43.3872 37.2875 43.5384 36.9202C43.9127 36.0463 44.3398 35.1557 45.0406 34.5098C45.487 34.0896 45.9813 33.4726 46.6199 33.3572C46.6919 33.3428 46.7711 33.3332 46.8479 33.3428C48.0193 33.3641 48.7808 35.9829 49.1771 36.8398C49.4677 37.4807 49.7655 38.0639 49.9504 38.676L49.9432 38.6712Z" fill="#FF81A0"/>
<path d="M54.0868 40.2571C53.9188 40.2907 53.7435 40.3196 53.5779 40.334C53.1482 40.3701 52.7257 40.3486 52.3104 40.2694C51.1293 40.044 50.0634 39.3649 49.247 38.4049C48.6588 37.7113 48.2841 36.9 47.7919 36.156C47.631 35.9135 47.4701 35.6399 47.326 35.3567C47.0666 34.8406 46.8793 34.279 46.8432 33.7245C46.8335 33.614 46.8311 33.5084 46.8407 33.4004C46.8023 33.4268 46.7351 33.4652 46.6223 33.5253C46.7903 33.3044 47.0375 33.1675 47.2967 33.0594C47.9256 32.8024 48.6889 32.4686 49.3538 32.298C49.4786 32.2668 49.6034 32.2356 49.7306 32.2164C50.5276 32.0506 51.4253 31.952 52.2079 31.839C53.0888 31.7188 54.2123 31.8746 54.9277 32.4553C55.0406 32.5513 55.163 32.6641 55.2711 32.7985C55.9218 33.5545 56.4357 34.8435 56.3951 35.7317C56.3712 36.267 56.1792 36.1806 55.8264 36.5072C55.404 36.8913 55.5312 37.0593 55.697 37.5754C56.1461 38.9772 55.5918 39.9495 54.0748 40.2595L54.0868 40.2571Z" fill="#FFA3BE"/>
<path d="M48.3123 33.7986C47.8394 33.7122 47.3689 33.7628 46.8936 33.7268C46.8864 33.722 46.8624 33.7269 46.8432 33.7245C46.8335 33.614 46.8311 33.5084 46.8407 33.4004C46.8023 33.4268 46.7351 33.4652 46.6223 33.5253C46.7903 33.3044 47.0375 33.1675 47.2967 33.0594C47.9256 32.8024 48.6889 32.4686 49.3538 32.298C49.4786 32.2668 49.6034 32.2356 49.7306 32.2164C50.5276 32.0506 51.4253 31.952 52.2079 31.839C53.0888 31.7188 54.2123 31.8746 54.9277 32.4553C55.0406 32.5513 55.163 32.6641 55.2711 32.7985C54.4741 32.5898 53.5667 32.4844 53.0218 32.5685C52.4649 32.6551 51.6104 33.0321 51.1712 33.3947C51.308 33.5483 51.4881 33.6995 51.5626 33.9155C51.3825 34.014 51.1689 34.0068 50.9625 33.9733C51.0129 34.1629 51.5579 34.5781 51.5051 34.7197C51.3972 35.0222 50.5857 34.5542 50.408 34.4775C49.7551 34.2088 49.0181 33.9256 48.3123 33.7986Z" fill="#FF81A0"/>
<path d="M52.3152 40.2622C51.1341 40.0368 50.0682 39.3577 49.2518 38.3977C48.6636 37.7041 48.2889 36.8928 47.7967 36.1487C47.6358 35.9063 47.4749 35.6327 47.3308 35.3495C48.3943 35.8294 49.5466 36.1604 50.5477 36.7027C50.0461 36.9716 49.6356 37.0101 50.147 37.6006C50.3415 37.8238 50.8336 37.9125 50.9657 38.1357C51.0402 38.2581 50.8842 38.383 50.9394 38.503C51.0763 38.8126 51.907 39.595 52.3224 40.267L52.3152 40.2622Z" fill="#FF81A0"/>
<path d="M54.0868 40.2571C53.9188 40.2907 53.7435 40.3196 53.5779 40.334C55.1333 39.8728 55.486 38.8285 54.9527 37.1939C54.7341 36.5386 55.0246 36.4929 55.3726 35.9864C55.6845 35.5182 55.6268 35.0741 55.4611 34.558C55.0095 33.1755 53.8284 32.6068 52.4984 32.355C51.7014 32.2087 50.9309 32.2257 50.1315 32.2235C50.0067 32.2235 49.8747 32.2187 49.7378 32.2212C50.5348 32.0554 51.4325 31.9567 52.2151 31.8438C53.096 31.7236 54.2195 31.8794 54.9349 32.4601C55.7392 33.1105 56.4429 34.6923 56.4023 35.7365C56.3784 36.2718 56.1864 36.1854 55.8336 36.512C55.4112 36.8961 55.5384 37.0641 55.7042 37.5802C56.1533 38.982 55.599 39.9543 54.082 40.2643L54.0868 40.2571Z" fill="#FFB3CB"/>
<path d="M51.8647 32.432C50.7198 32.7923 49.5556 33.0254 48.3866 33.2969C47.4505 33.5155 46.7736 33.8133 46.7086 32.8339C46.1131 32.2291 46.0384 30.9209 45.9206 30.1143C45.762 29.0101 45.7258 28.0499 45.908 26.9649C46.0638 26.0599 46.2917 25.1716 46.714 24.3818C46.9396 23.9497 47.2323 23.5415 47.5899 23.1766C47.5995 23.1622 47.6043 23.155 47.6163 23.1526C48.9027 21.9088 51.7162 22.5564 52.5879 24.0109C52.9793 24.6566 53.3803 25.2878 53.839 25.895C54.3072 26.5191 54.821 26.8718 54.9628 27.6736C55.0373 28.0768 55.047 28.4993 55.0014 28.9266C54.9248 29.6972 54.6609 30.4678 54.2385 31.0704C54.1713 31.1712 54.0945 31.2553 54.0129 31.3465C53.4369 31.9611 52.6448 32.1821 51.8359 32.444L51.8647 32.432Z" fill="#FFA3BE"/>
<path d="M55.0254 28.9218C54.8405 28.4657 54.6796 27.9425 54.4947 27.6112C54.2497 27.1672 54.0552 26.788 53.7527 26.3991C53.1188 25.6023 52.6314 25.3816 51.58 25.4298C50.375 25.4901 49.4965 25.9031 48.8433 24.6982C48.596 24.2422 48.1805 23.5077 47.6331 23.143C48.9196 21.8992 51.7331 22.5468 52.6047 24.0013C52.9961 24.647 53.3972 25.2782 53.8558 25.8854C54.324 26.5095 54.8378 26.8622 54.9796 27.6639C55.0541 28.0672 55.0638 28.4897 55.0182 28.917L55.0254 28.9218Z" fill="#FFB3CB"/>
<path d="M51.8647 32.432C50.7198 32.7923 49.5556 33.0254 48.3866 33.2969C47.4505 33.5155 46.7736 33.8133 46.7086 32.8339C46.1131 32.2291 46.0384 30.9209 45.9206 30.1143C45.762 29.0101 45.7258 28.0499 45.908 26.9649C46.0638 26.0599 46.2917 25.1716 46.714 24.3818C46.5437 24.9027 46.3806 25.4285 46.3351 25.9806C46.2872 26.6143 46.2249 27.2385 46.177 27.8722C46.1052 28.9164 45.9975 30.2175 46.7034 30.9063C46.7322 30.9255 47.0154 30.9375 47.1163 31.0359C47.2867 31.2015 47.2028 31.4367 47.3252 31.6119C47.6278 32.0632 47.6422 32.1352 48.2039 32.1351C48.6408 32.135 49.1208 31.8204 49.5625 31.8755C50.0162 31.9282 50.0955 32.2307 50.5372 32.317C51.1086 32.4273 52.2055 32.0142 52.7336 31.8149C53.1224 31.6683 53.5713 31.5098 54.0297 31.3369C53.4537 31.9515 52.6616 32.1725 51.8527 32.4344L51.8647 32.432Z" fill="#FF81A0"/>
<path d="M48.7781 34.5666C48.4372 34.2666 48.0675 33.9787 47.6809 33.7315C47.7722 33.7195 47.8586 33.7146 47.945 33.7098C48.4155 33.6905 48.8908 33.6952 49.3661 33.6999C49.4285 33.6999 49.4549 33.6135 49.3949 33.5943C48.7755 33.4 47.9065 33.2681 47.2128 33.4507C47.1408 33.4027 47.0591 33.3691 46.9823 33.3283C46.9799 33.3163 46.9775 33.3043 46.9751 33.2923C46.9751 33.2923 46.9991 33.2875 47.0111 33.2851C47.5776 33.0906 48.0912 32.6632 48.3792 32.1374C48.4175 32.0798 48.3335 32.003 48.2711 32.0342C47.7983 32.2912 47.3254 32.6105 46.8862 32.9419C46.8478 32.8123 46.8166 32.6875 46.7805 32.5698C46.694 32.2002 46.6339 31.8065 46.4202 31.4873C46.3866 31.4441 46.317 31.4705 46.3146 31.5209C46.2499 31.9458 46.406 32.3827 46.4949 32.7955C46.5021 32.8315 46.5069 32.8555 46.5141 32.8916C46.2788 32.6828 46.022 32.4908 45.7771 32.2964C45.3857 31.994 45.0208 31.6676 44.5598 31.4853C44.471 31.4469 44.399 31.5549 44.4591 31.6365C44.752 32.0397 45.1673 32.3061 45.5587 32.6085C45.6451 32.6661 45.7267 32.7309 45.8156 32.8005L45.8012 32.7909C45.3738 32.6205 44.8313 32.3734 44.3632 32.4047C44.1544 32.4215 44.176 32.6856 44.3225 32.7624C44.5457 32.88 44.8074 32.9087 45.0523 32.9783C45.2779 33.0454 45.4988 33.1198 45.7148 33.2014C45.9045 33.2758 46.1013 33.3549 46.2814 33.4437C45.6837 33.451 45.0284 33.6696 44.5291 33.857C44.4355 33.8882 44.4836 34.0346 44.5748 34.0226C45.0044 33.9553 45.4413 33.924 45.8782 33.8927C46.1543 33.8686 46.4255 33.883 46.6992 33.8469C46.368 34.0942 46.0343 34.392 45.792 34.7089C45.744 34.7809 45.8232 34.8961 45.9072 34.8481C46.2528 34.6416 46.5696 34.3534 46.8576 34.0461C47.0786 34.4013 47.3067 34.7614 47.5948 35.047C47.6716 35.119 47.8156 35.0589 47.7676 34.9437C47.5995 34.5405 47.333 34.1756 47.0808 33.8204C47.585 34.1876 48.1516 34.4923 48.7134 34.7419C48.8238 34.7947 48.8862 34.6386 48.8093 34.5666L48.7781 34.5666Z" fill="#FCFBFC"/>
<path d="M45.0279 31.3916C44.9247 31.1563 44.6222 31.0172 44.3845 31.1396C44.1469 31.2621 44.0198 31.531 44.1326 31.783C44.2359 32.0183 44.5384 32.1574 44.776 32.0349C45.0136 31.9125 45.1408 31.6436 45.0279 31.3916Z" fill="#FFDC37"/>
<path d="M44.7641 32.5679C44.6801 32.3662 44.4136 32.2511 44.2096 32.3543C44.0055 32.4576 43.8976 32.6977 43.9912 32.9161C44.0753 33.1177 44.3418 33.2329 44.5458 33.1296C44.7498 33.0263 44.8578 32.7863 44.7593 32.5751L44.7641 32.5679Z" fill="#FFDC37"/>
<path d="M45.1652 33.636C45.0523 33.384 44.7234 33.2376 44.4738 33.3625C44.2122 33.4898 44.0778 33.785 44.2003 34.0539C44.3132 34.3059 44.6421 34.4523 44.8917 34.3274C45.1533 34.2001 45.2877 33.9048 45.1652 33.636Z" fill="#FFDC37"/>
<path d="M45.9216 34.6392L45.936 34.6176C45.9887 34.3512 45.6646 34.1664 45.4582 34.2576C45.2398 34.3513 45.1558 34.7114 45.3959 34.8506C45.3959 34.8506 45.4103 34.8602 45.4175 34.865C45.6432 34.9946 45.8736 34.8985 45.9336 34.6368L45.9216 34.6392Z" fill="#FFDC37"/>
<path d="M47.9716 34.6844C47.8563 34.4204 47.5202 34.2692 47.2538 34.4037C46.9922 34.531 46.8482 34.8407 46.9731 35.1215C47.0884 35.3855 47.4245 35.5367 47.6909 35.4022C47.9525 35.2749 48.0965 34.9652 47.9716 34.6844Z" fill="#FFDC37"/>
<path d="M46.3725 32.9012C46.3725 32.9012 46.3101 32.8388 46.2789 32.8076C46.1204 32.6708 45.8156 32.8005 45.8084 33.0141C45.8108 33.0573 45.8012 33.1029 45.8156 33.1437C45.8613 33.3406 46.0558 33.4702 46.2502 33.3813C46.4398 33.2997 46.4854 33.0596 46.3653 32.8964L46.3725 32.9012Z" fill="#FFDC37"/>
<path d="M47.5489 33.6019C47.3976 33.2514 46.8527 33.4916 47.0088 33.8348C47.1601 34.1853 47.705 33.9451 47.5489 33.6019Z" fill="#FFDC37"/>
<path d="M46.9723 31.3143C46.6505 30.5799 45.508 31.077 45.8298 31.8115C46.1516 32.546 47.2941 32.0488 46.9723 31.3143Z" fill="#FFDC37"/>
<path d="M48.6431 31.7413C48.5158 31.4485 48.1389 31.2805 47.8437 31.427C47.5485 31.5735 47.3925 31.9168 47.5294 32.2264C47.6567 32.5192 48.0336 32.6872 48.3288 32.5407C48.6241 32.3942 48.78 32.0509 48.6431 31.7413Z" fill="#FFDC37"/>
<path d="M48.8234 33.1095C48.6073 32.6223 47.8488 32.9489 48.065 33.4361C48.2811 33.9234 49.0396 33.5968 48.8234 33.1095Z" fill="#FFDC37"/>
<path d="M50.0574 33.5678C49.7764 32.9125 48.7539 33.3544 49.0421 34.0145C49.3231 34.6697 50.3456 34.2278 50.0574 33.5678Z" fill="#FFDC37"/>
<path d="M49.3999 34.8041C49.1237 34.1729 48.142 34.6004 48.4182 35.2316C48.6944 35.8629 49.6761 35.4354 49.3999 34.8041Z" fill="#FFDC37"/>
<path d="M45.6474 32.3036C45.5177 31.9988 45.0401 32.2005 45.177 32.5102C45.3067 32.815 45.7843 32.6133 45.6474 32.3036Z" fill="#FFDC37"/>
<path d="M47.1478 32.5962C47.0109 32.2865 46.5213 32.4907 46.6605 32.8123C46.7974 33.1219 47.2871 32.9178 47.1478 32.5962Z" fill="#FFDC37"/>
<path d="M46.8504 34.0101C46.8504 34.0101 46.86 33.9957 46.8576 33.9837C46.908 33.7052 46.5863 33.5013 46.3438 33.5997C46.1086 33.703 46.0223 34.0823 46.2768 34.2311C46.2768 34.2311 46.2912 34.2407 46.2984 34.2455C46.5336 34.3919 46.8025 34.2694 46.8552 34.0029L46.8504 34.0101Z" fill="#FFDC37"/>
<path d="M11.0718 25.0517C10.9685 25.0661 10.8677 25.0613 10.7717 25.0494C9.97952 24.9583 9.63368 24.135 9.32868 23.4533C9.03568 22.8005 8.57708 22.2556 8.29129 21.6076C8.03672 21.0219 8.14703 20.4818 8.17331 19.8648C8.21393 18.9767 7.87044 17.9157 8.54002 17.145C8.69361 16.977 8.87842 16.8401 9.07764 16.744C9.82892 16.3814 10.8515 16.4388 11.5981 16.4579C12.7143 16.484 13.8498 16.731 14.9157 17.0357C15.6311 17.242 16.5841 17.4194 17.2299 17.777C17.4003 17.8177 17.4964 17.9233 17.53 18.0601C17.7919 19.0563 14.8831 22.1415 14.3911 22.5521C13.6759 23.1572 12.8264 24.276 11.8807 24.7899C11.6094 24.9316 11.3358 25.03 11.055 25.0613L11.0718 25.0517Z" fill="#FFA3BE"/>
<path d="M10.7717 25.0494C9.97952 24.9583 9.63368 24.135 9.32868 23.4533C9.03568 22.8005 8.57708 22.2556 8.29129 21.6076C8.03672 21.0219 8.14703 20.4818 8.17331 19.8648C8.21393 18.9767 7.87044 17.9157 8.54002 17.145C8.69361 16.977 8.87842 16.8401 9.07764 16.744C9.82892 16.3814 10.8515 16.4388 11.5981 16.4579C12.7143 16.484 13.8498 16.731 14.9157 17.0357C15.6311 17.242 16.5841 17.4194 17.2299 17.777C17.4003 17.8177 17.4964 17.9233 17.53 18.0601C16.594 18.7157 14.1046 18.1905 13.3196 18.2915C11.5529 18.5079 10.288 19.3291 9.90913 21.1776C9.64775 22.4907 10.1257 23.818 10.7549 25.059L10.7717 25.0494Z" fill="#FF81A0"/>
<path d="M11.0718 25.0517C10.0612 25.1479 9.6673 24.2094 9.33348 23.4461C9.04049 22.7933 8.58188 22.2484 8.29609 21.6004C8.04152 21.0147 8.15183 20.4746 8.1781 19.8576C8.21873 18.9695 7.87524 17.9085 8.54482 17.1378C8.69841 16.9698 8.88322 16.8329 9.08244 16.7368C8.65057 17.7595 8.63412 19.4855 8.94157 20.3976C9.21059 21.2113 9.83716 21.3792 10.3846 21.9312C10.7831 22.332 10.6032 22.6801 10.7065 23.1962C10.8507 23.8851 11.4053 24.3171 11.8975 24.7803C11.6262 24.922 11.3526 25.0204 11.0718 25.0517Z" fill="#FFB3CB"/>
<path d="M14.5464 18.1833C12.7004 17.91 10.5277 17.0343 9.22636 15.5222C8.72454 14.9486 8.35953 14.279 8.18173 13.5157C7.8766 12.2099 9.27118 11.6935 9.92391 10.7451C10.6294 9.71758 11.215 9.05733 12.408 8.59379C13.0681 8.3368 13.805 8.1206 14.5131 8.19727C15.022 8.24518 15.4349 8.40592 15.7663 8.65791C15.8095 8.6867 15.8527 8.7155 15.8839 8.7467C17.0795 9.73065 17.2552 11.7926 17.4956 13.2425C17.6374 14.1066 17.6759 14.9228 17.6641 15.799C17.657 16.1998 17.5371 16.6608 17.494 17.1001C17.4676 17.3425 17.4628 17.5682 17.5109 17.777C17.6959 18.5763 14.9377 18.236 14.5512 18.1761L14.5464 18.1833Z" fill="#FFA3BE"/>
<path d="M14.5464 18.1833C12.7004 17.91 10.5277 17.0343 9.22636 15.5222C8.72454 14.9486 8.35953 14.279 8.18173 13.5157C7.8766 12.2099 9.27118 11.6935 9.92391 10.7451C10.6294 9.71758 11.215 9.05733 12.408 8.59379C13.0681 8.3368 13.805 8.1206 14.5131 8.19727C15.022 8.24518 15.4349 8.40592 15.7663 8.65791C15.8095 8.6867 15.8527 8.7155 15.8839 8.7467C15.5022 8.8356 15.0678 8.8789 14.8109 8.96777C14.2829 9.13591 13.9324 9.31842 13.4764 9.62818C12.4443 10.3341 11.6523 11.0544 10.8172 12.0268C10.2412 12.7039 9.65559 13.3017 9.80701 14.2139C9.96082 15.1068 10.5155 15.8821 11.1709 16.4748C11.8576 17.0988 12.9884 17.7587 13.9533 17.4345C13.6122 16.1671 14.8822 17.1798 15.2183 17.331C16.0178 17.6765 16.6201 16.9442 17.4435 17.0977C17.4579 17.1073 17.4699 17.1049 17.4892 17.1073C17.4628 17.3497 17.458 17.5754 17.5061 17.7842C17.6911 18.5835 14.9329 18.2432 14.5464 18.1833Z" fill="#FF81A0"/>
<path d="M9.21902 15.5174C8.7172 14.9437 8.35219 14.2741 8.17439 13.5108C7.86926 12.205 9.26384 11.6886 9.91657 10.7402C10.6221 9.71269 11.2077 9.05243 12.4006 8.58889C13.0607 8.33191 13.7976 8.11571 14.5058 8.19238C15.0147 8.24029 15.4276 8.40103 15.7589 8.65301C14.4242 8.47085 12.4415 8.85534 12.6098 10.3508C12.7012 11.2126 13.4646 11.378 12.5718 12.0624C12.0198 12.485 11.2468 12.646 10.618 12.9966C9.60989 13.5417 9.53569 14.5739 9.21422 15.5246L9.21902 15.5174Z" fill="#FFB3CB"/>
<path d="M17.9377 28.1086C17.3471 27.6839 17.2824 28.4832 16.788 28.601C16.3487 28.7139 15.6572 28.0035 15.3571 27.7515C15.0474 27.4827 14.7304 27.1779 14.4807 26.8347C14.2766 26.5635 14.1085 26.2538 14.0244 25.9274C13.753 24.8832 13.712 23.8366 13.9326 22.8188C14.0141 22.4467 14.1341 22.0794 14.2852 21.7121C14.6595 20.8382 15.0866 19.9476 15.7874 19.3017C16.241 18.8863 16.7282 18.2645 17.3667 18.1491C17.4387 18.1347 17.5179 18.1251 17.5948 18.1347C18.7662 18.1561 19.5277 20.7748 19.924 21.6317C20.2145 22.2726 20.5123 22.8558 20.6973 23.4679C20.863 24.0152 20.952 24.5841 20.8825 25.2346C20.8537 25.5275 20.7938 25.8516 20.6978 26.1829C20.4436 27.1263 19.9565 28.1226 19.2653 28.6605C18.3892 29.3352 18.4731 28.507 17.9329 28.1158L17.9377 28.1086Z" fill="#FFA3BE"/>
<path d="M17.9377 28.1086C17.3471 27.6839 17.2824 28.4832 16.788 28.601C16.3487 28.7139 15.6572 28.0035 15.3571 27.7515C15.0474 27.4827 14.7304 27.1779 14.4807 26.8347C14.8865 27.2091 15.3115 27.5233 15.662 27.7465C16.3847 28.2072 16.7087 28.1111 17.3904 27.6813C18.1824 27.1795 17.8969 27.842 18.5979 28.1324C19.0805 28.3291 19.6589 27.8513 19.9493 27.4936C20.2708 27.1046 20.4652 26.6413 20.6883 26.1971C20.6883 26.1971 20.6979 26.1827 20.7027 26.1755C20.4485 27.119 19.9614 28.1153 19.2702 28.6531C18.3941 29.3278 18.4779 28.4998 17.9377 28.1086Z" fill="#FFB3CB"/>
<path d="M20.7023 23.4607C19.7827 22.5463 19.2087 21.2069 18.438 20.1941C18.3108 20.3069 18.1404 20.391 18.0228 20.5206C17.5954 20.007 17.612 19.3421 17.1057 20.1175C16.5562 20.9578 16.7433 20.3337 16.2103 19.7913C15.7159 20.2835 15.2478 20.5644 14.8735 21.1886C14.5567 21.7264 14.2064 22.2522 13.9448 22.8163C14.0264 22.4443 14.1463 22.077 14.2975 21.7096C14.6718 20.8358 15.0989 19.9451 15.7997 19.2992C16.2533 18.8839 16.7404 18.262 17.3789 18.1467C17.451 18.1323 17.5302 18.1227 17.607 18.1322C18.7784 18.1536 19.5399 20.7724 19.9362 21.6293C20.2268 22.2701 20.5246 22.8534 20.7095 23.4655L20.7023 23.4607Z" fill="#FF81A0"/>
<path d="M24.8457 25.0464C24.6777 25.0801 24.5025 25.1089 24.3369 25.1234C23.9072 25.1595 23.4847 25.1379 23.0694 25.0588C21.8883 24.8334 20.8223 24.1543 20.006 23.1943C19.4177 22.5007 19.0431 21.6894 18.5508 20.9453C18.3899 20.7029 18.229 20.4293 18.085 20.1461C17.8256 19.63 17.6383 19.0683 17.6021 18.5138C17.5925 18.4034 17.5901 18.2978 17.5997 18.1898C17.5613 18.2162 17.4941 18.2546 17.3812 18.3146C17.5492 18.0938 17.7965 17.9569 18.0557 17.8488C18.6846 17.5918 19.4478 17.258 20.1127 17.0874C20.2376 17.0562 20.3624 17.025 20.4896 17.0057C21.2865 16.8399 22.1843 16.7413 22.9668 16.6283C23.8478 16.5081 24.9712 16.6639 25.6867 17.2447C25.7995 17.3407 25.922 17.4535 26.03 17.5879C26.6807 18.3439 27.1947 19.6329 27.1541 20.5211C27.1302 21.0564 26.9381 20.97 26.5853 21.2965C26.1629 21.6807 26.2902 21.8487 26.4559 22.3648C26.9051 23.7666 26.3508 24.7389 24.8337 25.0489L24.8457 25.0464Z" fill="#FFA3BE"/>
<path d="M19.0712 18.5879C18.5983 18.5016 18.1278 18.5521 17.6525 18.5162C17.6453 18.5114 17.6213 18.5162 17.6021 18.5138C17.5925 18.4034 17.5901 18.2978 17.5997 18.1898C17.5613 18.2162 17.4941 18.2546 17.3812 18.3146C17.5492 18.0938 17.7965 17.9569 18.0557 17.8488C18.6846 17.5918 19.4478 17.258 20.1127 17.0874C20.2376 17.0562 20.3624 17.025 20.4896 17.0057C21.2865 16.8399 22.1843 16.7413 22.9668 16.6283C23.8478 16.5081 24.9712 16.6639 25.6867 17.2447C25.7995 17.3407 25.922 17.4535 26.03 17.5879C25.233 17.3792 24.3256 17.2738 23.7807 17.3579C23.2238 17.4444 22.3694 17.8215 21.9301 18.1841C22.067 18.3377 22.2471 18.4889 22.3215 18.7049C22.1415 18.8033 21.9279 18.7962 21.7214 18.7626C21.7719 18.9523 22.3169 19.3674 22.2641 19.5091C22.1561 19.8115 21.3447 19.3436 21.167 19.2668C20.514 18.9981 19.777 18.715 19.0712 18.5879Z" fill="#FF81A0"/>
<path d="M23.0742 25.0516C21.8931 24.8262 20.8271 24.1471 20.0108 23.1871C19.4225 22.4935 19.0479 21.6822 18.5556 20.9381C18.3947 20.6957 18.2339 20.4221 18.0898 20.1389C19.1533 20.6187 20.3056 20.9498 21.3067 21.4921C20.805 21.761 20.3946 21.7995 20.906 22.3899C21.1005 22.6131 21.5926 22.7018 21.7247 22.9251C21.7991 23.0475 21.6431 23.1723 21.6983 23.2923C21.8352 23.602 22.666 24.3844 23.0814 25.0564L23.0742 25.0516Z" fill="#FF81A0"/>
<path d="M24.8457 25.0464C24.6777 25.0801 24.5025 25.1089 24.3369 25.1234C25.8923 24.6622 26.2449 23.6179 25.7117 21.9833C25.4931 21.328 25.7836 21.2823 26.1315 20.7757C26.4435 20.3076 26.3858 19.8635 26.22 19.3474C25.7685 17.9648 24.5873 17.3962 23.2574 17.1444C22.4604 16.9981 21.6898 17.0151 20.8905 17.0128C20.7657 17.0129 20.6336 17.0081 20.4968 17.0105C21.2937 16.8447 22.1915 16.7461 22.974 16.6331C23.855 16.5129 24.9784 16.6687 25.6939 17.2495C26.4982 17.8999 27.2019 19.4816 27.1613 20.5259C27.1374 21.0612 26.9453 20.9748 26.5925 21.3013C26.1701 21.6855 26.2974 21.8535 26.4631 22.3696C26.9123 23.7714 26.358 24.7437 24.8409 25.0537L24.8457 25.0464Z" fill="#FFB3CB"/>
<path d="M22.6165 17.2165C21.4715 17.5768 20.3073 17.8099 19.1383 18.0814C18.2022 18.3001 17.5253 18.5979 17.4603 17.6185C16.8649 17.0137 16.7902 15.7054 16.6724 14.8989C16.5137 13.7947 16.4775 12.8345 16.6597 11.7495C16.8156 10.8444 17.0434 9.95621 17.4658 9.16637C17.6913 8.73423 17.9841 8.32609 18.3417 7.96114C18.3513 7.94674 18.3561 7.93954 18.3681 7.93713C19.6545 6.69342 22.468 7.34097 23.3397 8.79548C23.7311 9.44113 24.1321 10.0724 24.5907 10.6796C25.0589 11.3036 25.5727 11.6564 25.7145 12.4581C25.789 12.8614 25.7987 13.2839 25.7532 13.7112C25.6765 14.4817 25.4126 15.2524 24.9903 15.855C24.9231 15.9558 24.8463 16.0398 24.7647 16.1311C24.1887 16.7457 23.3966 16.9667 22.5877 17.2285L22.6165 17.2165Z" fill="#FFA3BE"/>
<path d="M25.7844 13.7112C25.5995 13.2551 25.4385 12.7318 25.2536 12.4006C25.0087 11.9566 24.8142 11.5773 24.5116 11.1885C23.8777 10.3917 23.3904 10.1709 22.339 10.2192C21.1339 10.2794 20.2554 10.6925 19.6023 9.48759C19.3549 9.03155 18.9395 8.29709 18.3921 7.93233C19.6785 6.68861 22.492 7.33616 23.3637 8.79067C23.7551 9.43632 24.1561 10.0676 24.6147 10.6748C25.0829 11.2988 25.5967 11.6516 25.7385 12.4533C25.813 12.8566 25.8227 13.2791 25.7772 13.7064L25.7844 13.7112Z" fill="#FFB3CB"/>
<path d="M22.6165 17.2165C21.4715 17.5768 20.3073 17.8099 19.1383 18.0814C18.2022 18.3001 17.5253 18.5979 17.4603 17.6185C16.8649 17.0137 16.7902 15.7054 16.6724 14.8989C16.5137 13.7947 16.4775 12.8345 16.6597 11.7495C16.8156 10.8444 17.0434 9.95621 17.4658 9.16637C17.2954 9.68731 17.1323 10.213 17.0868 10.7652C17.0389 11.3989 16.9767 12.023 16.9288 12.6568C16.857 13.701 16.7492 15.0021 17.4551 15.6909C17.4839 15.7101 17.7672 15.722 17.868 15.8204C18.0385 15.986 17.9545 16.2213 18.077 16.3965C18.3795 16.8477 18.394 16.9197 18.9557 16.9196C19.3926 16.9195 19.8726 16.605 20.3143 16.6601C20.768 16.7128 20.8473 17.0153 21.289 17.1016C21.8603 17.2119 22.9573 16.7988 23.4853 16.5994C23.8742 16.4529 24.323 16.2944 24.7815 16.1215C24.2055 16.7361 23.4134 16.9571 22.6045 17.2189L22.6165 17.2165Z" fill="#FF81A0"/>
<path d="M19.5371 19.356C19.1962 19.056 18.8264 18.768 18.4399 18.5209C18.5311 18.5088 18.6175 18.504 18.7039 18.4992C19.1744 18.4799 19.6497 18.4846 20.125 18.4893C20.1874 18.4893 20.2138 18.4029 20.1538 18.3837C19.5345 18.1894 18.6655 18.0575 17.9717 18.2401C17.8997 18.1921 17.8181 18.1585 17.7413 18.1177C17.7389 18.1057 17.7365 18.0937 17.7341 18.0817C17.7341 18.0817 17.7581 18.0769 17.7701 18.0745C18.3365 17.8799 18.8502 17.4526 19.1381 16.9268C19.1765 16.8692 19.0925 16.7924 19.0301 16.8236C18.5572 17.0805 18.0844 17.3999 17.6452 17.7313C17.6067 17.6016 17.5755 17.4768 17.5395 17.3592C17.453 16.9895 17.3929 16.5959 17.1792 16.2767C17.1456 16.2335 17.076 16.2599 17.0736 16.3103C17.0088 16.7352 17.165 17.172 17.2539 17.5849C17.2611 17.6209 17.2659 17.6449 17.2731 17.6809C17.0378 17.4721 16.7809 17.2801 16.536 17.0858C16.1447 16.7834 15.7797 16.457 15.3188 16.2746C15.23 16.2363 15.158 16.3443 15.218 16.4259C15.511 16.8291 15.9263 17.0955 16.3176 17.3979C16.4041 17.4555 16.4857 17.5203 16.5745 17.5898C16.5745 17.5898 16.5673 17.585 16.5601 17.5802C16.1328 17.4099 15.5902 17.1628 15.1222 17.1941C14.9133 17.2109 14.935 17.475 15.0814 17.5518C15.3047 17.6693 15.5664 17.6981 15.8112 17.7676C16.0369 17.8348 16.2577 17.9092 16.4738 17.9908C16.6634 18.0651 16.8603 18.1443 17.0404 18.2331C16.4426 18.2404 15.7874 18.459 15.2881 18.6463C15.1945 18.6776 15.2425 18.824 15.3337 18.812C15.7634 18.7446 16.2003 18.7134 16.6372 18.6821C16.9132 18.658 17.1845 18.6723 17.4581 18.6363C17.1269 18.8836 16.7933 19.1813 16.5509 19.4982C16.5029 19.5703 16.5822 19.6855 16.6662 19.6374C17.0118 19.4309 17.3286 19.1428 17.6166 18.8355C17.8375 19.1907 18.0656 19.5507 18.3538 19.8363C18.4258 19.9155 18.5746 19.8483 18.5266 19.7331C18.3585 19.3298 18.0919 18.965 17.8398 18.6098C18.344 18.977 18.9106 19.2817 19.4723 19.5312C19.5828 19.584 19.6451 19.428 19.5683 19.356L19.5371 19.356Z" fill="#FCFBFC"/>
<path d="M15.7869 16.1809C15.6836 15.9457 15.3811 15.8065 15.1435 15.929C14.9059 16.0515 14.7787 16.3204 14.8916 16.5724C14.9949 16.8076 15.2973 16.9468 15.535 16.8243C15.7726 16.7018 15.8998 16.433 15.7869 16.1809Z" fill="#FFDC37"/>
<path d="M15.5231 17.3572C15.439 17.1556 15.1725 17.0404 14.9613 17.1389C14.7573 17.2422 14.6493 17.4822 14.743 17.7007C14.827 17.9023 15.0935 18.0174 15.3047 17.919C15.5088 17.8157 15.6167 17.5756 15.5231 17.3572Z" fill="#FFDC37"/>
<path d="M15.9242 18.4254C15.8113 18.1733 15.4824 18.027 15.2328 18.1518C14.9711 18.2791 14.8368 18.5744 14.9593 18.8432C15.0721 19.0953 15.401 19.2416 15.6507 19.1168C15.9123 18.9895 16.0467 18.6942 15.9242 18.4254Z" fill="#FFDC37"/>
<path d="M16.6805 19.4286L16.6949 19.407C16.7477 19.1405 16.4236 18.9558 16.2172 19.047C15.9987 19.1407 15.9148 19.5008 16.1549 19.64C16.1549 19.64 16.1693 19.6496 16.1765 19.6544C16.4021 19.7839 16.6326 19.6879 16.6925 19.4262L16.6805 19.4286Z" fill="#FFDC37"/>
<path d="M18.7306 19.4738C18.6153 19.2098 18.2792 19.0586 18.0128 19.1931C17.7511 19.3204 17.6072 19.6301 17.732 19.9109C17.8473 20.1749 18.1834 20.3261 18.4498 20.1916C18.7115 20.0643 18.8554 19.7546 18.7306 19.4738Z" fill="#FFDC37"/>
<path d="M17.1315 17.6906C17.1315 17.6906 17.069 17.6282 17.0378 17.597C16.8794 17.4602 16.5745 17.5899 16.5674 17.8035C16.5698 17.8467 16.5602 17.8923 16.5746 17.9331C16.6203 18.13 16.8147 18.2595 17.0091 18.1707C17.1988 18.089 17.2443 17.849 17.1243 17.6858L17.1315 17.6906Z" fill="#FFDC37"/>
<path d="M18.3078 18.3913C18.1565 18.0408 17.6117 18.281 17.7678 18.6242C17.9191 18.9747 18.4639 18.7345 18.3078 18.3913Z" fill="#FFDC37"/>
<path d="M17.7313 16.1037C17.4094 15.3692 16.2669 15.8664 16.5887 16.6008C16.9105 17.3353 18.0531 16.8382 17.7313 16.1037Z" fill="#FFDC37"/>
<path d="M19.4069 16.5234C19.2796 16.2306 18.9027 16.0627 18.6075 16.2092C18.3122 16.3556 18.1563 16.6989 18.2932 17.0086C18.4204 17.3014 18.7974 17.4694 19.0926 17.3229C19.3878 17.1764 19.5438 16.8331 19.4069 16.5234Z" fill="#FFDC37"/>
<path d="M19.5752 17.8941C19.3591 17.4068 18.6006 17.7335 18.8167 18.2207C19.0329 18.708 19.7913 18.3813 19.5752 17.8941Z" fill="#FFDC37"/>
<path d="M20.8163 18.3571C20.5354 17.7019 19.5128 18.1438 19.801 18.8038C20.082 19.4591 21.1045 19.0172 20.8163 18.3571Z" fill="#FFDC37"/>
<path d="M20.1589 19.5935C19.8827 18.9622 18.901 19.3897 19.1772 20.021C19.4533 20.6523 20.4351 20.2248 20.1589 19.5935Z" fill="#FFDC37"/>
<path d="M16.4064 17.093C16.2767 16.7882 15.7991 16.9899 15.9359 17.2995C16.0656 17.6044 16.5433 17.4026 16.4064 17.093Z" fill="#FFDC37"/>
<path d="M17.8996 17.3807C17.7627 17.0711 17.273 17.2752 17.4123 17.5969C17.5492 17.9065 18.0389 17.7024 17.8996 17.3807Z" fill="#FFDC37"/>
<path d="M17.6094 18.7995C17.6094 18.7995 17.619 18.7851 17.6166 18.7731C17.6669 18.4946 17.3452 18.2906 17.1028 18.3891C16.8676 18.4924 16.7812 18.8717 17.0357 19.0204C17.0357 19.0204 17.0501 19.03 17.0573 19.0348C17.2926 19.1812 17.5614 19.0587 17.6142 18.7923L17.6094 18.7995Z" fill="#FFDC37"/>
<path d="M22.7914 39.4763C22.6642 39.4956 22.5466 39.5004 22.4337 39.498C21.4735 39.4406 21.0004 38.4805 20.5802 37.6908C20.184 36.9276 19.5789 36.3059 19.1971 35.5523C18.8489 34.873 18.9424 34.2177 18.9278 33.4591C18.906 32.3837 18.4136 31.1403 19.1672 30.1656C19.3351 29.9447 19.544 29.7718 19.7792 29.6374C20.6528 29.1379 21.8891 29.14 22.7869 29.1038C24.1311 29.0531 25.5091 29.2641 26.8198 29.5447C27.6936 29.7317 28.8531 29.8803 29.6597 30.2618C29.8685 30.3074 29.991 30.4202 30.0462 30.5714C30.4378 31.7476 27.1715 35.6659 26.6171 36.2013C25.8011 36.9888 24.87 38.3861 23.7611 39.0824C23.4443 39.2769 23.1227 39.4162 22.7842 39.4715L22.7914 39.4763Z" fill="#FFC5D5"/>
<path d="M22.4386 39.4907C21.4784 39.4332 21.0053 38.4731 20.5851 37.6835C20.1889 36.9202 19.5838 36.2986 19.202 35.5449C18.8538 34.8657 18.9472 34.2103 18.9327 33.4518C18.9109 32.3764 18.4185 31.133 19.1721 30.1583C19.34 29.9374 19.5488 29.7645 19.7841 29.63C20.6577 29.1305 21.894 29.1327 22.7918 29.0965C24.136 29.0458 25.5139 29.2568 26.8247 29.5373C27.6985 29.7244 28.8579 29.873 29.6646 30.2545C29.8734 30.3001 29.9959 30.4129 30.0511 30.5641C28.9735 31.4165 25.9392 30.9754 25.0078 31.1556C22.8955 31.5474 21.4338 32.6327 21.1294 34.8844C20.9113 36.476 21.5862 38.0385 22.4314 39.4859L22.4386 39.4907Z" fill="#FFAABD"/>
<path d="M22.7914 39.4763C21.5936 39.6662 21.0438 38.5716 20.5851 37.6835C20.1889 36.9202 19.5838 36.2986 19.202 35.5449C18.8538 34.8657 18.9472 34.2103 18.9327 33.4518C18.9109 32.3764 18.4185 31.133 19.1721 30.1583C19.34 29.9374 19.5488 29.7645 19.7841 29.63C19.345 30.8976 19.4535 32.9668 19.8858 34.0349C20.2701 34.9878 21.0335 35.1533 21.7369 35.7677C22.2459 36.2212 22.0516 36.6534 22.2245 37.2679C22.4504 38.084 23.1442 38.5567 23.7732 39.0799C23.4564 39.2744 23.1348 39.4137 22.7963 39.469L22.7914 39.4763Z" fill="#FDF2F8"/>
<path d="M26.4577 30.9465C24.2108 30.7597 21.5365 29.8721 19.8558 28.1489C19.2195 27.4961 18.7152 26.7233 18.4534 25.8207C17.9898 24.2845 19.622 23.552 20.3395 22.366C21.1122 21.0816 21.7601 20.2341 23.1667 19.5905C23.9444 19.2351 24.8037 18.9132 25.6654 18.9466C26.2752 18.9681 26.7889 19.1337 27.2115 19.4048C27.2619 19.4384 27.3123 19.472 27.3627 19.5056C28.8728 20.5951 29.2406 23.0555 29.6371 24.7862C29.8725 25.8064 29.9759 26.7905 30.0314 27.8467C30.0531 28.3292 29.9476 28.8934 29.9237 29.4287C29.9069 29.7191 29.919 29.9976 29.9935 30.2448C30.2769 31.193 26.9402 30.9872 26.4649 30.9513L26.4577 30.9465Z" fill="#FFC5D5"/>
<path d="M26.4577 30.9465C24.2108 30.7597 21.5365 29.8721 19.8558 28.1489C19.2195 27.4961 18.7152 26.7233 18.4534 25.8207C17.9898 24.2845 19.622 23.552 20.3395 22.366C21.1122 21.0816 21.7601 20.2341 23.1667 19.5905C23.9444 19.2351 24.8037 18.9132 25.6654 18.9466C26.2752 18.9681 26.7889 19.1337 27.2115 19.4048C27.2619 19.4384 27.3123 19.472 27.3627 19.5056C26.909 19.6401 26.3906 19.7315 26.0905 19.8539C25.4712 20.0965 25.0584 20.3415 24.54 20.7448C23.3471 21.6765 22.4568 22.5912 21.5232 23.8205C20.8777 24.68 20.2177 25.4363 20.4796 26.526C20.7294 27.587 21.457 28.4774 22.2829 29.1422C23.1592 29.8406 24.5684 30.5508 25.6917 30.0825C25.1801 28.5871 26.7911 29.7126 27.2016 29.8613C28.1907 30.2188 28.8602 29.2921 29.8589 29.4167C29.8733 29.4263 29.8973 29.4215 29.9165 29.4239C29.8997 29.7143 29.9118 29.9928 29.9863 30.24C30.2697 31.1882 26.933 30.9824 26.4577 30.9465Z" fill="#FFAABD"/>
<path d="M19.8558 28.1489C19.2195 27.4961 18.7152 26.7233 18.4534 25.8207C17.9898 24.2845 19.622 23.552 20.3395 22.366C21.1122 21.0816 21.7601 20.2341 23.1667 19.5905C23.9444 19.2351 24.8037 18.9132 25.6654 18.9466C26.2752 18.9681 26.7889 19.1337 27.2115 19.4048C25.5959 19.2851 23.2412 19.9001 23.5488 21.686C23.729 22.711 24.6581 22.862 23.6236 23.7432C22.99 24.2883 22.0755 24.5525 21.3434 25.0112C20.1721 25.7388 20.1604 26.9894 19.851 28.1561L19.8558 28.1489Z" fill="#FDF2F8"/>
<path d="M31.2874 42.6312C30.5455 42.1681 30.5313 43.1259 29.9384 43.3132C29.4224 43.479 28.534 42.6894 28.1571 42.3966C27.7658 42.0942 27.36 41.751 27.0383 41.3598C26.7693 41.0454 26.5484 40.6902 26.4211 40.3037C26.0104 39.0628 25.8853 37.8145 26.0795 36.5711C26.1514 36.1198 26.2593 35.6612 26.4249 35.2099C26.8087 34.1344 27.255 33.0277 28.0446 32.2018C28.5558 31.6688 29.0981 30.8861 29.859 30.6963C29.9478 30.6723 30.0391 30.6602 30.1327 30.6602C31.5369 30.5975 32.6562 33.6939 33.1917 34.6852C33.5904 35.4293 33.989 36.1109 34.2652 36.8358C34.5126 37.4791 34.6543 38.156 34.6185 38.9434C34.609 39.301 34.5562 39.6923 34.4699 40.1028C34.2325 41.2551 33.7262 42.4987 32.9414 43.1926C31.943 44.0666 31.9788 43.0607 31.2946 42.636L31.2874 42.6312Z" fill="#FFC5D5"/>
<path d="M31.2874 42.6312C30.5455 42.1681 30.5313 43.1259 29.9384 43.3132C29.4224 43.479 28.534 42.6894 28.1571 42.3966C27.7658 42.0942 27.36 41.751 27.0383 41.3598C27.552 41.775 28.0899 42.1228 28.5197 42.3676C29.4175 42.8619 29.8088 42.7274 30.5936 42.1583C31.5105 41.5004 31.213 42.3214 32.0748 42.6045C32.6702 42.8036 33.3206 42.1866 33.6494 41.74C34.0117 41.243 34.1989 40.6813 34.4436 40.1267C34.4484 40.1195 34.4532 40.1123 34.458 40.1051C34.2206 41.2574 33.7143 42.5009 32.9295 43.1948C31.9311 44.0688 31.9669 43.063 31.2827 42.6383L31.2874 42.6312Z" fill="#FDF2F8"/>
<path d="M34.2582 36.831C33.0794 35.8062 32.2965 34.2341 31.2904 33.0748C31.144 33.2165 30.9424 33.3318 30.82 33.4998C30.2726 32.9166 30.2364 32.1124 29.6893 33.0896C29.1014 34.1435 29.2669 33.3801 28.5874 32.7609C28.033 33.39 27.4882 33.755 27.0899 34.54C26.7492 35.2074 26.37 35.87 26.0917 36.5686C26.1636 36.1173 26.2716 35.6588 26.4371 35.2075C26.821 34.132 27.2672 33.0253 28.0568 32.1993C28.568 31.6663 29.1103 30.8836 29.8713 30.6938C29.9601 30.6698 30.0513 30.6578 30.1449 30.6578C31.5492 30.5951 32.6684 33.6915 33.204 34.6828C33.6026 35.4268 34.0012 36.1085 34.2774 36.8334L34.2582 36.831Z" fill="#FFAABD"/>
<path d="M39.3522 38.4262C39.1506 38.479 38.9466 38.5199 38.7473 38.5535C38.2337 38.6376 37.7223 38.6401 37.223 38.5778C35.7875 38.3909 34.4623 37.6638 33.401 36.5718C32.6447 35.787 32.1308 34.8413 31.4777 33.9797C31.2592 33.6989 31.0527 33.3844 30.8558 33.0556C30.5052 32.458 30.2362 31.8003 30.1521 31.1306C30.1328 31.0034 30.1256 30.8737 30.1304 30.7417C30.0872 30.7753 30.0056 30.8354 29.8832 30.9098C30.0655 30.6361 30.3584 30.4464 30.6536 30.2999C31.3929 29.9397 32.281 29.481 33.0611 29.2312C33.2075 29.1832 33.3539 29.1351 33.5027 29.0991C34.4485 28.8348 35.5166 28.6522 36.4576 28.4575C37.5138 28.2461 38.8701 28.349 39.78 28.997C39.9312 29.0977 40.0705 29.2321 40.2121 29.3785C41.0525 30.2401 41.7657 31.7451 41.7876 32.8205C41.7973 33.4614 41.562 33.3775 41.1588 33.7952C40.6836 34.2898 40.8469 34.4818 41.0871 35.0891C41.7284 36.7333 41.1477 37.9481 39.3402 38.4286L39.3522 38.4262Z" fill="#FFC5D5"/>
<path d="M31.9262 31.1063C31.3452 31.0416 30.7955 31.1329 30.2146 31.1307C30.1954 31.1283 30.1762 31.1259 30.1594 31.1355C30.1402 31.0082 30.1329 30.8786 30.1377 30.7466C30.0945 30.7802 30.0129 30.8402 29.8905 30.9147C30.0729 30.641 30.3657 30.4513 30.6609 30.3048C31.4002 29.9446 32.2883 29.4859 33.0684 29.2361C33.2148 29.188 33.3612 29.14 33.5101 29.104C34.4558 28.8397 35.524 28.6571 36.4649 28.4624C37.5211 28.251 38.8774 28.3539 39.7873 29.0019C39.9386 29.1026 40.0778 29.237 40.2195 29.3834C39.2448 29.1916 38.1478 29.1366 37.5021 29.2784C36.8444 29.4225 35.8435 29.9413 35.3371 30.4047C35.5148 30.5751 35.7429 30.7478 35.8437 31.0023C35.6277 31.1391 35.3733 31.1464 35.1236 31.1152C35.2053 31.3361 35.8847 31.7992 35.8319 31.9721C35.7192 32.3442 34.7085 31.8475 34.4996 31.7707C33.6954 31.4948 32.7904 31.2141 31.9334 31.1111L31.9262 31.1063Z" fill="#FFAABD"/>
<path d="M37.2158 38.573C35.7803 38.3861 34.4551 37.659 33.3938 36.567C32.6375 35.7822 32.1236 34.8365 31.4705 33.9749C31.252 33.6941 31.0455 33.3797 30.8486 33.0508C32.1594 33.5499 33.5757 33.8592 34.8145 34.4351C34.2312 34.7953 33.7344 34.8698 34.3946 35.549C34.6467 35.8106 35.2469 35.8777 35.415 36.1249C35.5182 36.2665 35.3382 36.4274 35.4103 36.569C35.5952 36.9314 36.6636 37.8098 37.199 38.5826L37.2158 38.573Z" fill="#FFAABD"/>
<path d="M39.3522 38.4262C39.1506 38.479 38.9466 38.5199 38.7473 38.5535C40.586 37.8858 40.929 36.6063 40.1628 34.6812C39.853 33.9131 40.1915 33.8266 40.5706 33.1952C40.9161 32.6143 40.8104 32.0862 40.5702 31.4789C39.9194 29.8491 38.4574 29.2493 36.8394 29.0552C35.872 28.9306 34.9478 29.022 33.9852 29.0774C33.8316 29.0894 33.6757 29.0895 33.5101 29.104C34.4558 28.8397 35.524 28.6571 36.4649 28.4624C37.5211 28.251 38.8774 28.3539 39.7873 29.0019C40.7933 29.7242 41.7681 31.5699 41.7948 32.8253C41.8045 33.4662 41.5692 33.3823 41.166 33.8C40.6908 34.2946 40.8541 34.4866 41.0943 35.0939C41.7356 36.7381 41.1549 37.9529 39.3474 38.4334L39.3522 38.4262Z" fill="#FDF2F8"/>
<path d="M36.0856 29.1875C34.7366 29.7135 33.354 30.0714 31.9714 30.4918C30.8649 30.8257 30.0656 31.2292 29.9261 30.065C29.165 29.381 28.9703 27.8159 28.7732 26.8629C28.4921 25.5523 28.3862 24.4001 28.5276 23.0798C28.645 21.9828 28.8584 20.8977 29.3047 19.9158C29.547 19.3805 29.8566 18.8691 30.2742 18.3985C30.2838 18.3841 30.2886 18.3769 30.2982 18.3625C31.7453 16.7683 35.1781 17.3293 36.3403 19.019C36.8518 19.7654 37.3896 20.4879 37.9851 21.1863C38.5974 21.9063 39.236 22.2903 39.469 23.236C39.5891 23.7113 39.6349 24.2202 39.6134 24.7363C39.5824 25.6725 39.3209 26.6111 38.8602 27.365C38.7786 27.4874 38.7018 27.6026 38.6106 27.7083C37.9674 28.4862 37.0289 28.8176 36.0784 29.1827L36.0856 29.1875Z" fill="#FFC5D5"/>
<path d="M39.6255 24.7337C39.3685 24.1985 39.1403 23.5888 38.8882 23.2024C38.5616 22.6935 38.3023 22.2399 37.9037 21.8079C37.085 20.8983 36.4776 20.6704 35.2246 20.8026C33.7843 20.9662 32.7594 21.5209 31.8757 20.1312C31.5468 19.6104 30.9873 18.7487 30.3031 18.3552C31.7502 16.7609 35.183 17.322 36.3452 19.0117C36.8567 19.7581 37.3945 20.4805 37.99 21.179C38.6023 21.899 39.2409 22.2829 39.4739 23.2287C39.594 23.7039 39.6398 24.2128 39.6183 24.7289L39.6255 24.7337Z" fill="#FDF2F8"/>
<path d="M36.0856 29.1875C34.7366 29.7135 33.354 30.0714 31.9714 30.4918C30.8649 30.8257 30.0656 31.2292 29.9261 30.065C29.165 29.381 28.9703 27.8159 28.7732 26.8629C28.4921 25.5523 28.3862 24.4001 28.5276 23.0798C28.645 21.9828 28.8584 20.8977 29.3047 19.9158C29.1392 20.5544 28.9882 21.2024 28.9715 21.8674C28.9573 22.6379 28.9334 23.3917 28.924 24.155C28.9122 25.4057 28.8862 26.99 29.7889 27.758C29.8249 27.782 30.173 27.7747 30.2954 27.8875C30.5139 28.0747 30.4348 28.3652 30.5932 28.5644C30.9846 29.0852 31.0134 29.1668 31.6856 29.1259C32.2089 29.0897 32.7681 28.6719 33.3058 28.7078C33.8555 28.7413 33.9708 29.099 34.5085 29.1661C35.2071 29.2572 36.4888 28.676 37.1081 28.4022C37.5666 28.1981 38.097 27.9795 38.6275 27.7297C37.9843 28.5076 37.0458 28.8391 36.0953 29.2042L36.0856 29.1875Z" fill="#FFAABD"/>
<path d="M32.5383 31.9823C32.1086 31.6439 31.6404 31.3319 31.1555 31.0608C31.2587 31.0463 31.3667 31.0247 31.4699 31.0103C32.0316 30.9478 32.6053 30.914 33.1742 30.8875C33.2486 30.8851 33.2774 30.7795 33.1982 30.7579C32.442 30.566 31.381 30.4726 30.5673 30.7416C30.4712 30.6984 30.3752 30.6552 30.2792 30.612C30.2768 30.6 30.272 30.576 30.2696 30.564C30.2816 30.5616 30.2936 30.5592 30.3056 30.5568C30.9729 30.2734 31.5633 29.7308 31.8632 29.0778C31.904 29.001 31.7935 28.917 31.7215 28.9626C31.1671 29.3108 30.6271 29.731 30.1255 30.156C30.0702 30.0048 30.0222 29.8583 29.9741 29.7119C29.8372 29.2775 29.7435 28.8094 29.4578 28.4422C29.417 28.3942 29.3305 28.4302 29.3306 28.4926C29.2899 29.0063 29.4988 29.52 29.6405 30.0097C29.6477 30.0457 29.6622 30.0865 29.6694 30.1225C29.3669 29.8897 29.0499 29.6785 28.7378 29.4601C28.2457 29.1218 27.7847 28.7522 27.2134 28.5795C27.1005 28.5459 27.0213 28.6803 27.0934 28.7595C27.4799 29.2251 27.9937 29.5155 28.4907 29.8467C28.5987 29.9187 28.6995 29.9858 28.8076 30.0578C28.8076 30.0578 28.7932 30.0482 28.786 30.0434C28.2578 29.8683 27.5832 29.6164 27.0239 29.6909C26.7743 29.7222 26.82 30.0438 27.0048 30.1254C27.2857 30.2502 27.6002 30.2621 27.893 30.3221C28.1667 30.3796 28.438 30.4564 28.7045 30.5404C28.9373 30.6123 29.1726 30.6963 29.403 30.7875C28.6781 30.8452 27.9148 31.1478 27.3316 31.4144C27.2235 31.4673 27.2884 31.6353 27.4012 31.6064C27.9101 31.4983 28.4382 31.4238 28.9543 31.3517C29.2759 31.306 29.6168 31.2939 29.936 31.2362C29.552 31.5628 29.1776 31.9373 28.9161 32.3455C28.8585 32.4319 28.9617 32.5735 29.0601 32.5039C29.461 32.2301 29.8234 31.858 30.1401 31.4762C30.4331 31.8795 30.7356 32.2995 31.1006 32.6259C31.199 32.7123 31.367 32.6162 31.2974 32.4866C31.0668 32.021 30.7211 31.6034 30.3897 31.1953C31.0259 31.5985 31.7269 31.92 32.4207 32.1743C32.5552 32.2223 32.6248 32.0399 32.5215 31.9607L32.5383 31.9823Z" fill="#FCFBFC"/>
<path d="M27.8062 28.4545C27.6646 28.1833 27.2925 28.0393 27.0116 28.1954C26.7308 28.3515 26.606 28.6948 26.7525 28.9901C26.8942 29.2613 27.2663 29.4052 27.5472 29.2491C27.828 29.093 27.9527 28.7498 27.8062 28.4545Z" fill="#FFDC37"/>
<path d="M27.5641 29.8949C27.4416 29.6572 27.1175 29.5349 26.8775 29.6766C26.6423 29.811 26.5271 30.1087 26.6592 30.3631C26.7817 30.6008 27.1058 30.7231 27.3458 30.5814C27.581 30.447 27.6962 30.1493 27.5641 29.8949Z" fill="#FFDC37"/>
<path d="M28.1261 31.143C27.9724 30.843 27.5691 30.699 27.2714 30.8647C26.969 31.0376 26.8299 31.4025 26.9932 31.7194C27.1468 32.0194 27.5502 32.1633 27.8478 31.9976C28.1502 31.8247 28.2894 31.4598 28.1261 31.143Z" fill="#FFDC37"/>
<path d="M29.1105 32.2878L29.1249 32.2662C29.1728 31.9445 28.7695 31.7382 28.5199 31.8631C28.2655 31.9951 28.1911 32.4344 28.4816 32.576C28.4888 32.5808 28.496 32.5856 28.5032 32.5904C28.7865 32.7272 29.0529 32.5927 29.1033 32.283L29.1105 32.2878Z" fill="#FFDC37"/>
<path d="M31.5806 32.1865C31.4269 31.8865 31.0092 31.7329 30.6995 31.901C30.3923 32.0811 30.2484 32.4532 30.4141 32.7821C30.5678 33.0821 30.9855 33.2356 31.2951 33.0675C31.6023 32.8874 31.7463 32.5153 31.5806 32.1865Z" fill="#FFDC37"/>
<path d="M29.5229 30.1705C29.4893 30.1273 29.4461 30.0985 29.4077 30.0625C29.2012 29.9041 28.8508 30.0866 28.858 30.3411C28.8557 30.3915 28.8605 30.4467 28.8701 30.4947C28.9349 30.7252 29.1822 30.8691 29.415 30.7539C29.6407 30.6338 29.679 30.3577 29.5157 30.1657L29.5229 30.1705Z" fill="#FFDC37"/>
<path d="M30.997 30.924C30.7905 30.5159 30.1568 30.8425 30.3633 31.2506C30.5699 31.6586 31.2035 31.332 30.997 30.924Z" fill="#FFDC37"/>
<path d="M30.1251 28.2212C29.6856 27.3667 28.3487 28.0463 28.7953 28.9056C29.2348 29.7601 30.5717 29.0805 30.1251 28.2212Z" fill="#FFDC37"/>
<path d="M32.1728 28.5976C31.9974 28.252 31.5341 28.0889 31.1909 28.2762C30.8429 28.4707 30.6845 28.8956 30.8694 29.2581C31.0447 29.6037 31.5081 29.7668 31.8513 29.5795C32.1993 29.385 32.3577 28.9601 32.1728 28.5976Z" fill="#FFDC37"/>
<path d="M32.4876 30.2323C32.1922 29.6611 31.3089 30.1125 31.5995 30.691C31.8948 31.2622 32.7781 30.8108 32.4876 30.2323Z" fill="#FFDC37"/>
<path d="M34.0096 30.6953C33.6133 29.932 32.43 30.5372 32.8262 31.3005C33.2225 32.0637 34.4058 31.4586 34.0096 30.6953Z" fill="#FFDC37"/>
<path d="M33.3041 32.2221C32.9247 31.4805 31.775 32.0664 32.1544 32.8081C32.5338 33.5498 33.6836 32.9638 33.3041 32.2221Z" fill="#FFDC37"/>
<path d="M28.6106 29.5106C28.4329 29.1529 27.8785 29.4387 28.0562 29.7963C28.2339 30.154 28.7883 29.8682 28.6106 29.5106Z" fill="#FFDC37"/>
<path d="M30.4302 29.7454C30.2381 29.3782 29.6717 29.6664 29.859 30.0408C30.0511 30.4081 30.6176 30.1199 30.4302 29.7454Z" fill="#FFDC37"/>
<path d="M30.1881 31.4666C30.1881 31.4666 30.1977 31.4522 30.1953 31.4402C30.2457 31.0994 29.8328 30.8762 29.5543 31.0131C29.2711 31.1572 29.2136 31.6181 29.5209 31.7812C29.5281 31.786 29.5353 31.7908 29.5425 31.7956C29.8354 31.9492 30.1522 31.7859 30.1929 31.4594L30.1881 31.4666Z" fill="#FFDC37"/>
<path d="M0.329694 36.4899C0.272075 36.4515 0.224054 36.3987 0.188035 36.3435C-0.160124 35.9139 0.0678034 35.3377 0.245339 34.8528C0.413276 34.3823 0.446781 33.895 0.617121 33.4364C0.770666 33.0187 1.08509 32.8122 1.39949 32.5121C1.85069 32.0847 2.18662 31.3933 2.89235 31.3331C3.04598 31.3211 3.20681 31.3451 3.35325 31.3907C3.9006 31.5682 4.3808 32.0962 4.74816 32.4658C5.28358 33.0202 5.73501 33.685 6.12402 34.3499C6.38096 34.7915 6.77236 35.3436 6.92129 35.838C6.98613 35.9436 6.98614 36.0373 6.94055 36.1213C6.59741 36.7455 3.65925 36.8781 3.21515 36.8422C2.56941 36.7967 1.60685 36.9457 0.88666 36.7467C0.682608 36.6939 0.502553 36.6051 0.346496 36.4803L0.329694 36.4899Z" fill="#FFC5D5"/>
<path d="M0.188035 36.3435C-0.160124 35.9139 0.0678034 35.3377 0.245339 34.8528C0.413276 34.3823 0.446781 33.895 0.617121 33.4364C0.770666 33.0187 1.08509 32.8122 1.39949 32.5121C1.85069 32.0847 2.18662 31.3933 2.89235 31.3331C3.04598 31.3211 3.20681 31.3451 3.35325 31.3907C3.9006 31.5682 4.3808 32.0962 4.74816 32.4658C5.28358 33.0202 5.73501 33.685 6.12402 34.3499C6.38096 34.7915 6.77236 35.3436 6.92129 35.838C6.98613 35.9436 6.98614 36.0373 6.94055 36.1213C6.16037 35.9966 5.16867 34.5349 4.73411 34.2037C3.74736 33.4526 2.72231 33.2584 1.64705 33.9979C0.8838 34.519 0.483104 35.4169 0.192835 36.3363L0.188035 36.3435Z" fill="#FFAABD"/>
<path d="M0.329694 36.4899C-0.220107 36.0507 0.0412719 35.3929 0.2332 34.8551C0.401136 34.3846 0.434642 33.8973 0.604981 33.4387C0.758526 33.021 1.07295 32.8145 1.38735 32.5144C1.83855 32.087 2.17448 31.3956 2.88021 31.3355C3.03383 31.3234 3.19467 31.3474 3.34111 31.393C2.62823 31.698 1.79304 32.5455 1.5075 33.1457C1.25316 33.6835 1.47409 34.0699 1.4862 34.598C1.49108 34.9965 1.23185 35.0733 1.03267 35.3879C0.771102 35.796 0.843216 36.2809 0.862517 36.7514C0.658465 36.6986 0.47841 36.6098 0.322353 36.485L0.329694 36.4899Z" fill="#FDF2F8"/>
<path d="M5.37261 34.7436C4.58024 33.7164 3.927 32.2306 4.00593 30.8479C4.03223 30.3246 4.17375 29.8157 4.45451 29.3475C4.93205 28.5529 5.87552 28.9632 6.65565 28.807C7.50778 28.6364 8.11509 28.5834 8.93373 28.9313C9.38506 29.1281 9.85081 29.3656 10.1774 29.7496C10.4055 30.016 10.5303 30.2969 10.5808 30.5801C10.588 30.6161 10.588 30.6473 10.5952 30.6833C10.7155 31.7515 9.80832 32.8631 9.23238 33.6962C8.88921 34.1956 8.51242 34.6206 8.08042 35.0503C7.88363 35.252 7.6052 35.4201 7.37 35.617C7.23559 35.725 7.12759 35.8403 7.05321 35.9675C6.76285 36.4501 5.55269 34.9572 5.38462 34.7412L5.37261 34.7436Z" fill="#FFC5D5"/>
<path d="M5.37261 34.7436C4.58024 33.7164 3.927 32.2306 4.00593 30.8479C4.03223 30.3246 4.17375 29.8157 4.45451 29.3475C4.93205 28.5529 5.87552 28.9632 6.65565 28.807C7.50778 28.6364 8.11509 28.5834 8.93373 28.9313C9.38506 29.1281 9.85081 29.3656 10.1774 29.7496C10.4055 30.016 10.5303 30.2969 10.5808 30.5801C10.588 30.6161 10.588 30.6473 10.5952 30.6833C10.3672 30.5417 10.1247 30.3594 9.95181 30.2754C9.60611 30.1074 9.34684 30.0283 8.97235 29.9659C8.11295 29.8197 7.3784 29.7982 6.49503 29.8752C5.87572 29.9306 5.29961 29.9523 4.93724 30.4805C4.58688 31.0062 4.4862 31.6568 4.51993 32.2617C4.56087 32.9026 4.8107 33.7763 5.44449 34.0739C5.88361 33.2744 6.02787 34.4002 6.12394 34.6306C6.3545 35.1899 7.00742 35.1154 7.33878 35.5858C7.34599 35.5906 7.35319 35.5954 7.35559 35.6074C7.22119 35.7154 7.11319 35.8307 7.0388 35.9579C6.74844 36.4405 5.53829 34.9476 5.37021 34.7316L5.37261 34.7436Z" fill="#FFAABD"/>
<path d="M4.00593 30.8479C4.03223 30.3246 4.17375 29.8157 4.45451 29.3475C4.93205 28.5529 5.87552 28.9632 6.65565 28.807C7.50778 28.6364 8.11509 28.5834 8.93373 28.9313C9.38506 29.1281 9.85081 29.3656 10.1774 29.7496C10.4055 30.016 10.5303 30.2969 10.5808 30.5801C10.0045 29.8529 8.83294 29.0826 8.19218 29.9037C7.82501 30.3766 8.11556 30.8303 7.34738 30.7344C6.86727 30.6745 6.40392 30.3865 5.9286 30.257C5.1676 30.0411 4.62759 30.5237 4.01073 30.8407L4.00593 30.8479Z" fill="#FDF2F8"/>
<path d="M2.27735 41.324C2.19083 40.8295 1.77082 41.1945 1.46592 41.0121C1.19703 40.8537 1.19209 40.1744 1.16803 39.8983C1.14877 39.6151 1.1319 39.3126 1.17265 39.0174C1.20621 38.7797 1.26617 38.5492 1.38135 38.3452C1.75089 37.697 2.23568 37.1568 2.83572 36.7558C3.05653 36.6117 3.29175 36.4772 3.54618 36.3763C4.15105 36.1242 4.79673 35.8888 5.45447 35.9006C5.87456 35.9102 6.42185 35.838 6.79638 36.0876C6.83959 36.1164 6.88281 36.1452 6.91642 36.1884C7.49266 36.7596 6.60483 38.4353 6.39131 39.0523C6.22817 39.5156 6.09623 39.9477 5.89468 40.3438C5.70991 40.6992 5.48193 41.0257 5.13392 41.3138C4.97312 41.4459 4.79311 41.5755 4.58669 41.698C4.00105 42.0462 3.28575 42.308 2.68082 42.2481C1.92225 42.169 2.36386 41.7873 2.27975 41.336L2.27735 41.324Z" fill="#FFC5D5"/>
<path d="M2.27735 41.324C2.19083 40.8295 1.77082 41.1945 1.46592 41.0121C1.19703 40.8537 1.19209 40.1744 1.16803 39.8983C1.14877 39.6151 1.1319 39.3126 1.17265 39.0174C1.19193 39.3942 1.25202 39.7567 1.32169 40.0423C1.46104 40.6136 1.6651 40.7288 2.21244 40.8439C2.85099 40.9782 2.38293 41.1655 2.59188 41.648C2.73837 41.9744 3.25209 42.0151 3.57135 41.9887C3.91941 41.9502 4.24104 41.8109 4.56269 41.7028C4.56269 41.7028 4.56749 41.6956 4.57949 41.6932C3.99384 42.0414 3.27855 42.3032 2.67362 42.2433C1.91505 42.1642 2.35666 41.7825 2.27255 41.3312L2.27735 41.324Z" fill="#FDF2F8"/>
<path d="M5.89947 40.3366C5.87528 39.4365 6.24236 38.4954 6.3478 37.6192C6.22778 37.612 6.10775 37.5736 5.98532 37.5857C6.02364 37.1224 6.35244 36.8006 5.71874 36.94C5.04423 37.0938 5.43066 36.8728 5.43055 36.3423C4.94566 36.352 4.57837 36.2633 4.0935 36.3978C3.67344 36.5131 3.24857 36.6044 2.84292 36.7606C3.06373 36.6165 3.29895 36.482 3.55338 36.3811C4.15825 36.129 4.80394 35.8936 5.46167 35.9054C5.88176 35.915 6.42905 35.8428 6.80358 36.0924C6.84679 36.1212 6.89001 36.15 6.92363 36.1932C7.49986 36.7644 6.61203 38.4401 6.39851 39.0571C6.23537 39.5204 6.10344 39.9525 5.90188 40.3486L5.89947 40.3366Z" fill="#FFAABD"/>
<path d="M7.19405 43.1234C7.09322 43.0562 6.99238 42.9891 6.90355 42.9195C6.66586 42.7299 6.46658 42.5139 6.3009 42.2786C5.82066 41.5946 5.61884 40.7425 5.67627 39.8759C5.71935 39.2494 5.92087 38.666 6.03597 38.0563C6.07674 37.8546 6.1223 37.6457 6.19187 37.4321C6.30942 37.0528 6.48458 36.6807 6.74377 36.3854C6.79417 36.3253 6.84697 36.2773 6.89977 36.2293C6.86136 36.2245 6.81575 36.2149 6.72932 36.1885C6.91656 36.1573 7.10861 36.2125 7.29106 36.282C7.72558 36.4572 8.27053 36.6539 8.68106 36.8963C8.75309 36.9443 8.82991 36.9851 8.90914 37.0379C9.3869 37.3354 9.88148 37.717 10.328 38.0458C10.8322 38.4129 11.3124 39.0346 11.3894 39.6683C11.4038 39.7715 11.4014 39.8843 11.3943 40.0043C11.3512 40.6933 10.9865 41.5839 10.5353 42.0113C10.2617 42.2658 10.2161 42.1314 9.87759 42.1243C9.4815 42.11 9.46713 42.2564 9.30397 42.5949C8.85046 43.5096 8.11356 43.7258 7.20606 43.1522L7.19405 43.1234Z" fill="#FFC5D5"/>
<path d="M7.43503 37.127C7.24293 36.8534 6.97884 36.6566 6.76034 36.407C6.75314 36.4022 6.74594 36.3974 6.73153 36.3878C6.78193 36.3278 6.83473 36.2798 6.88753 36.2318C6.84912 36.227 6.80351 36.2174 6.71709 36.191C6.90432 36.1597 7.09637 36.2149 7.27882 36.2845C7.71335 36.4596 8.2583 36.6564 8.66883 36.8987C8.74086 36.9467 8.81768 36.9875 8.8969 37.0403C9.37466 37.3379 9.86924 37.7194 10.3158 38.0482C10.82 38.4154 11.3002 39.037 11.3772 39.6707C11.3916 39.7739 11.3892 39.8868 11.382 40.0068C11.0843 39.5172 10.6809 39.0299 10.3736 38.8044C10.0543 38.5812 9.44689 38.3533 9.0532 38.3197C9.05083 38.4638 9.07007 38.6222 8.99328 38.7686C8.85405 38.7279 8.746 38.6247 8.66676 38.5094C8.60197 38.6223 8.67169 39.0952 8.57568 39.1456C8.37646 39.2417 8.19629 38.6224 8.14586 38.4952C7.94892 38.0415 7.72078 37.5566 7.43263 37.1462L7.43503 37.127Z" fill="#FFAABD"/>
<path d="M6.30556 42.2714C5.82532 41.5873 5.6235 40.7352 5.68093 39.8686C5.72401 39.2421 5.92553 38.6587 6.04063 38.049C6.0814 37.8473 6.12696 37.6385 6.19653 37.4248C6.49675 38.1761 6.90978 38.8986 7.14759 39.6499C6.77069 39.5443 6.5474 39.3643 6.51151 39.902C6.49715 40.1109 6.70365 40.3941 6.66288 40.5645C6.63889 40.663 6.50446 40.6462 6.47807 40.7326C6.3965 40.9487 6.43748 41.7456 6.31276 42.2761L6.30556 42.2714Z" fill="#FFAABD"/>
<path d="M7.19405 43.1234C7.09322 43.0562 6.99238 42.9891 6.90355 42.9195C7.89986 43.4378 8.57898 43.0895 9.10207 42.0235C9.30842 41.589 9.48128 41.7042 9.88935 41.6225C10.2734 41.5456 10.4534 41.2911 10.6166 40.9526C11.0533 40.0475 10.7506 39.1906 10.1983 38.4274C9.87659 37.9738 9.47803 37.6042 9.08428 37.2274C9.02185 37.165 8.95942 37.1026 8.8898 37.0354C9.36755 37.3329 9.86213 37.7145 10.3087 38.0433C10.8129 38.4104 11.2931 39.0321 11.37 39.6658C11.4566 40.3787 11.0464 41.5094 10.5208 42.0016C10.2471 42.2561 10.2015 42.1217 9.86304 42.1146C9.46696 42.1003 9.45259 42.2467 9.28942 42.5852C8.83592 43.4999 8.09902 43.7161 7.19151 43.1425L7.19405 43.1234Z" fill="#FDF2F8"/>
<path d="M9.85733 38.1587C9.1083 37.7844 8.42647 37.3405 7.71104 36.9157C7.13725 36.575 6.65712 36.3902 7.1035 35.8764C7.09858 35.2907 7.69136 34.6041 8.01773 34.1455C8.46649 33.5189 8.91048 33.0243 9.53211 32.5753C10.0505 32.2031 10.5834 31.8717 11.1811 31.6771C11.5027 31.5691 11.846 31.5066 12.2012 31.5041C12.2012 31.5041 12.2204 31.5065 12.2324 31.5041C13.4687 31.5062 14.5589 33.1792 14.2902 34.3314C14.1727 34.8356 14.0696 35.3493 14.0049 35.8678C13.9378 36.4055 14.0219 36.8256 13.7099 37.2938C13.5515 37.5314 13.3572 37.7451 13.1267 37.9348C12.7163 38.2854 12.2171 38.5351 11.713 38.636C11.629 38.6529 11.5498 38.6625 11.4682 38.6601C10.8872 38.689 10.3831 38.4155 9.85733 38.1587Z" fill="#FFC5D5"/>
<path d="M13.1267 37.9348C13.2515 37.6227 13.4268 37.2817 13.4939 37.0248C13.5827 36.6887 13.669 36.403 13.7074 36.0646C13.7792 35.3636 13.6351 35.018 13.0949 34.5332C12.4659 33.9788 11.8297 33.7629 12.084 32.8507C12.1775 32.5074 12.3262 31.9408 12.2301 31.492C13.4664 31.4941 14.5565 33.167 14.2879 34.3193C14.1704 34.8234 14.0673 35.3372 14.0026 35.8557C13.9355 36.3934 14.0196 36.8135 13.7076 37.2816C13.5492 37.5193 13.3548 37.733 13.1244 37.9227L13.1267 37.9348Z" fill="#FDF2F8"/>
<path d="M9.85733 38.1587C9.1083 37.7844 8.42647 37.3405 7.71104 36.9157C7.13725 36.575 6.65712 36.3902 7.1035 35.8764C7.09858 35.2907 7.69136 34.6041 8.01773 34.1455C8.46649 33.5189 8.91048 33.0243 9.53211 32.5753C10.0505 32.2031 10.5834 31.8717 11.1811 31.6771C10.8426 31.8573 10.5115 32.042 10.2235 32.2869C9.89468 32.5775 9.55867 32.8632 9.22986 33.1537C8.68985 33.6363 8.01064 34.2342 8.03479 34.9159C8.03959 34.9399 8.17405 35.0815 8.18127 35.1799C8.1837 35.348 8.03009 35.4224 8.00851 35.564C7.93898 35.9337 7.91018 35.977 8.19589 36.2505C8.41198 36.4569 8.80808 36.5337 8.99537 36.7833C9.19466 37.0305 9.08907 37.2202 9.26436 37.4722C9.49968 37.8058 10.2439 38.1249 10.5992 38.2785C10.8657 38.3936 11.1682 38.5328 11.4755 38.6648C10.8945 38.6937 10.3904 38.4201 9.86463 38.1634L9.85733 38.1587Z" fill="#FFAABD"/>
<path d="M7.29362 37.7294C7.26715 37.4102 7.21667 37.0957 7.14699 36.7789C7.19741 36.8125 7.24303 36.8533 7.28864 36.8941C7.53834 37.1125 7.77123 37.3405 7.99933 37.5757C8.03534 37.5997 8.08815 37.5828 8.06653 37.5372C7.85521 37.1364 7.48544 36.6612 7.0485 36.4116C7.03168 36.3588 7.01246 36.294 6.98845 36.2364C6.99325 36.2292 6.99805 36.222 7.00285 36.2148C7.00285 36.2148 7.01725 36.2244 7.02445 36.2292C7.40136 36.3971 7.85987 36.4427 8.25352 36.3202C8.29432 36.3057 8.29191 36.2313 8.2511 36.2145C7.8934 36.1114 7.49971 36.0467 7.12763 35.9963C7.17322 35.9123 7.21401 35.8355 7.2548 35.7586C7.38438 35.533 7.55237 35.3121 7.59312 35.048C7.59792 35.0096 7.5499 34.988 7.5283 35.0048C7.29549 35.1825 7.15392 35.473 7.00515 35.7275C6.99075 35.7491 6.98115 35.7635 6.96675 35.7851C6.9475 35.5643 6.91625 35.3458 6.8922 35.1322C6.84892 34.7913 6.82485 34.4529 6.67595 34.1456C6.64473 34.0832 6.56072 34.1001 6.54873 34.1649C6.49839 34.5057 6.57767 34.8394 6.63296 35.1779C6.64737 35.2499 6.65459 35.3171 6.66421 35.3963C6.66421 35.3963 6.66421 35.3963 6.65701 35.3915C6.52972 35.0987 6.37121 34.7122 6.12391 34.5058C6.01107 34.4098 5.89108 34.5587 5.92471 34.6643C5.97755 34.8347 6.0976 34.9667 6.18405 35.1179C6.2681 35.2571 6.34014 35.3988 6.40739 35.5476C6.46503 35.6796 6.52266 35.8116 6.5731 35.9388C6.26578 35.6508 5.83845 35.4493 5.50235 35.2981C5.43993 35.2669 5.39675 35.3629 5.44236 35.4037C5.68965 35.5789 5.92254 35.7757 6.16022 35.9653C6.30908 36.0853 6.44353 36.2269 6.58999 36.3349C6.30192 36.299 5.99946 36.2846 5.72101 36.3279C5.661 36.3399 5.64422 36.4431 5.70903 36.4551C5.9827 36.5127 6.28037 36.5342 6.56362 36.5149C6.50126 36.7958 6.44131 37.0887 6.44857 37.3743C6.45099 37.4487 6.55182 37.4847 6.58541 37.4031C6.69817 37.1246 6.73652 36.8174 6.78206 36.5149C6.86137 36.9422 6.98868 37.3598 7.14959 37.7583C7.18322 37.8327 7.28163 37.7942 7.27921 37.7198L7.29362 37.7294Z" fill="#FCFBFC"/>
<path d="M6.95925 34.3448C7.01923 34.1768 6.93277 33.9631 6.75992 33.9104C6.58708 33.8576 6.39025 33.9345 6.32547 34.1097C6.2655 34.2777 6.35196 34.4914 6.5248 34.5442C6.69765 34.5969 6.89447 34.5201 6.95925 34.3448Z" fill="#FFDC37"/>
<path d="M6.2584 34.8035C6.31119 34.6618 6.23673 34.477 6.08309 34.4266C5.92945 34.3762 5.76143 34.4411 5.70625 34.6019C5.65347 34.7436 5.72792 34.9284 5.88157 34.9788C6.03521 35.0291 6.20323 34.9643 6.2584 34.8035Z" fill="#FFDC37"/>
<path d="M5.94169 35.5285C6.01127 35.346 5.9152 35.1156 5.72795 35.0532C5.5407 34.9908 5.32707 35.0773 5.2527 35.267C5.18312 35.4494 5.27919 35.6798 5.46644 35.7422C5.65369 35.8046 5.86731 35.7181 5.94169 35.5285Z" fill="#FFDC37"/>
<path d="M5.83384 36.3927L5.84344 36.3783C6.01146 36.2822 5.93699 36.035 5.78095 35.9726C5.63211 35.915 5.41129 36.0591 5.45934 36.2367C5.45934 36.2367 5.45934 36.2367 5.46174 36.2487C5.51459 36.4191 5.67063 36.4815 5.82664 36.3879L5.83384 36.3927Z" fill="#FFDC37"/>
<path d="M6.83506 37.4031C6.90463 37.2206 6.80616 36.9782 6.61411 36.923C6.41966 36.8558 6.20604 36.9423 6.13406 37.144C6.06449 37.3264 6.16296 37.5688 6.35501 37.624C6.54946 37.6912 6.76309 37.6047 6.83506 37.4031Z" fill="#FFDC37"/>
<path d="M6.88993 35.7443C6.88993 35.7443 6.88991 35.6819 6.88991 35.6507C6.87307 35.5043 6.66422 35.4275 6.55861 35.5235C6.54422 35.5451 6.51061 35.5644 6.50342 35.5908C6.42662 35.706 6.46506 35.8668 6.6067 35.9196C6.74114 35.9676 6.87795 35.8715 6.89472 35.7371L6.88993 35.7443Z" fill="#FFDC37"/>
<path d="M7.14937 36.666C7.24294 36.4164 6.85883 36.2748 6.76526 36.5245C6.6717 36.7742 7.0558 36.9157 7.14937 36.666Z" fill="#FFDC37"/>
<path d="M7.96284 35.2424C8.15237 34.7239 7.35535 34.4216 7.15381 34.9425C6.96428 35.461 7.76131 35.7633 7.96284 35.2424Z" fill="#FFDC37"/>
<path d="M8.58477 36.2601C8.66155 36.0512 8.55347 35.792 8.33981 35.7224C8.12616 35.6528 7.88373 35.7513 7.80216 35.9674C7.72538 36.1762 7.83346 36.4355 8.04712 36.505C8.26077 36.5746 8.5032 36.4761 8.58477 36.2601Z" fill="#FFDC37"/>
<path d="M8.02082 37.0283C8.15037 36.6778 7.61742 36.4787 7.48067 36.8244C7.35112 37.1749 7.88406 37.374 8.02082 37.0283Z" fill="#FFDC37"/>
<path d="M8.41707 37.854C8.59221 37.3883 7.87201 37.1268 7.70167 37.5853C7.52653 38.051 8.24673 38.3126 8.41707 37.854Z" fill="#FFDC37"/>
<path d="M7.49055 38.1519C7.65609 37.7006 6.96229 37.4462 6.78955 37.8928C6.62401 38.3441 7.3178 38.5984 7.49055 38.1519Z" fill="#FFDC37"/>
<path d="M6.82258 35.0962C6.90415 34.8801 6.57286 34.753 6.49129 34.969C6.40971 35.1851 6.74101 35.3123 6.82258 35.0962Z" fill="#FFDC37"/>
<path d="M7.42768 35.9674C7.51405 35.7442 7.16355 35.6146 7.07718 35.8379C6.99081 36.0612 7.34131 36.1907 7.42768 35.9674Z" fill="#FFDC37"/>
<path d="M6.60443 36.5317C6.60443 36.5317 6.60923 36.5245 6.61403 36.5173C6.77244 36.4045 6.71477 36.1476 6.53953 36.0829C6.37148 36.0229 6.14587 36.1742 6.19632 36.3638C6.19632 36.3638 6.19631 36.3638 6.19872 36.3758C6.24196 36.5606 6.43642 36.6278 6.59003 36.5221L6.60443 36.5317Z" fill="#FFDC37"/>
<path d="M9.8093 36.9513C9.75888 36.8864 9.71566 36.8264 9.68924 36.7568C9.41067 36.2072 9.79463 35.631 10.1018 35.1388C10.4018 34.6731 10.5505 34.1377 10.8504 33.672C11.124 33.2614 11.5153 33.0957 11.9281 32.8508C12.5185 32.4954 13.0633 31.8183 13.8459 31.9238C14.0187 31.9454 14.182 32.0126 14.3356 32.0941C14.895 32.4253 15.2936 33.1069 15.5986 33.6014C16.0572 34.3334 16.3815 35.1735 16.6457 35.9944C16.8186 36.5465 17.1068 37.2378 17.1598 37.8139C17.2054 37.9483 17.1814 38.0467 17.1046 38.1308C16.5694 38.731 13.3359 38.1676 12.8581 38.026C12.162 37.8221 11.0745 37.7528 10.3351 37.364C10.1262 37.256 9.94136 37.1121 9.8021 36.9464L9.8093 36.9513Z" fill="#FFA3BE"/>
<path d="M9.677 36.7593C9.39843 36.2096 9.78239 35.6334 10.0896 35.1413C10.3895 34.6755 10.5382 34.1402 10.8382 33.6744C11.1118 33.2639 11.503 33.0982 11.9159 32.8532C12.5063 32.4978 13.0511 31.8208 13.8336 31.9263C14.0065 31.9478 14.1697 32.015 14.3234 32.0966C14.8828 32.4277 15.2814 33.1094 15.5863 33.6038C16.045 34.3359 16.3692 35.176 16.6335 35.9969C16.8064 36.549 17.0946 37.2402 17.1475 37.8164C17.1932 37.9508 17.1692 38.0492 17.0924 38.1332C16.2666 37.8117 15.5364 35.9731 15.1378 35.5099C14.2398 34.4539 13.1619 33.9956 11.8106 34.5408C10.8529 34.9323 10.1977 35.8062 9.6626 36.7497L9.677 36.7593Z" fill="#FF81A0"/>
<path d="M9.8093 36.9513C9.31228 36.3392 9.74903 35.6838 10.1018 35.1388C10.4018 34.6731 10.5505 34.1377 10.8504 33.672C11.124 33.2614 11.5153 33.0957 11.9281 32.8508C12.5185 32.4954 13.0633 31.8183 13.8459 31.9238C14.0187 31.9454 14.182 32.0126 14.3356 32.0941C13.4883 32.2575 12.3722 32.9804 11.9042 33.5734C11.4914 34.0992 11.65 34.5792 11.5301 35.165C11.4413 35.5947 11.1413 35.6235 10.8509 35.9189C10.4669 36.3078 10.4262 36.8527 10.3423 37.3689C10.1334 37.2609 9.94857 37.1169 9.8093 36.9513Z" fill="#FFB3CB"/>
<path d="M15.743 36.2562C15.1234 34.9384 14.7606 33.1574 15.1804 31.669C15.3411 31.1 15.6098 30.5719 16.0274 30.1325C16.7378 29.3786 17.6717 30.0529 18.5623 30.0744C19.5273 30.0934 20.2067 30.182 21.0205 30.7556C21.4647 31.0724 21.9209 31.4491 22.1826 31.946C22.3651 32.2964 22.4396 32.6373 22.4277 32.9517C22.4229 32.9902 22.4253 33.0334 22.4205 33.0718C22.2983 34.2696 21.0431 35.2637 20.2007 36.044C19.7063 36.505 19.1878 36.8772 18.619 37.247C18.3598 37.4175 18.0093 37.5376 17.7045 37.6985C17.5341 37.7825 17.3853 37.881 17.2725 38.0034C16.8405 38.4644 15.8751 36.5418 15.743 36.2562Z" fill="#FFA3BE"/>
<path d="M15.743 36.2562C15.1234 34.9384 14.7606 33.1574 15.1804 31.669C15.3411 31.1 15.6098 30.5719 16.0274 30.1325C16.7378 29.3786 17.6717 30.0529 18.5623 30.0744C19.5273 30.0934 20.2067 30.182 21.0205 30.7556C21.4647 31.0724 21.9209 31.4491 22.1826 31.946C22.3651 32.2964 22.4396 32.6373 22.4277 32.9517C22.4229 32.9902 22.4253 33.0334 22.4205 33.0718C22.2044 32.8654 21.9835 32.6038 21.8203 32.4742C21.4793 32.2054 21.2177 32.0518 20.8239 31.8935C19.9213 31.5312 19.1243 31.3225 18.1329 31.2027C17.4415 31.1164 16.8053 30.9941 16.2869 31.4911C15.7709 31.9689 15.5046 32.6651 15.4087 33.3397C15.2961 34.055 15.3611 35.0656 15.9877 35.5456C16.6645 34.7797 16.5543 36.0376 16.5976 36.316C16.713 36.9857 17.4451 37.0576 17.7021 37.6553C17.7093 37.6601 17.7069 37.6793 17.7141 37.6841C17.5437 37.7681 17.3949 37.8666 17.2821 37.989C16.8501 38.45 15.8847 36.5274 15.7526 36.2418L15.743 36.2562Z" fill="#FF81A0"/>
<path d="M15.1804 31.669C15.3411 31.1 15.6098 30.5719 16.0274 30.1325C16.7378 29.3786 17.6717 30.0529 18.5623 30.0744C19.5273 30.0934 20.2067 30.182 21.0205 30.7556C21.4647 31.0724 21.9209 31.4491 22.1826 31.946C22.3651 32.2964 22.4396 32.6373 22.4277 32.9517C21.9714 32.0132 20.8741 30.8972 19.9741 31.6392C19.4605 32.0666 19.6743 32.6354 18.8484 32.3452C18.3443 32.1652 17.8977 31.7428 17.408 31.4789C16.6253 31.0614 15.9245 31.4576 15.178 31.657L15.1804 31.669Z" fill="#FFB3CB"/>
<path d="M10.7753 42.7123C10.7943 42.1529 10.2543 42.4483 9.96858 42.1747C9.70928 41.9395 9.86516 41.1905 9.9107 40.8881C9.95385 40.5736 10.0114 40.2375 10.1242 39.9278C10.2177 39.6782 10.3449 39.4405 10.5177 39.2436C11.0793 38.6194 11.7393 38.1439 12.4858 37.8509C12.7642 37.7452 13.0523 37.6564 13.3547 37.6083C14.0772 37.4761 14.8358 37.3679 15.5512 37.543C16.0169 37.6558 16.6266 37.7084 16.9747 38.0756C17.0204 38.1164 17.054 38.1596 17.0828 38.21C17.5727 38.9733 16.1999 40.5963 15.8184 41.2157C15.5304 41.6791 15.276 42.1232 14.9593 42.505C14.6785 42.8483 14.3521 43.1508 13.8984 43.379C13.6944 43.4822 13.4592 43.5855 13.2071 43.6671C12.487 43.9049 11.6301 44.0203 10.9939 43.8044C10.1777 43.5309 10.7538 43.2284 10.7753 42.7123Z" fill="#FFA3BE"/>
<path d="M10.7753 42.7123C10.7943 42.1529 10.2543 42.4483 9.96858 42.1747C9.70928 41.9395 9.86516 41.1905 9.9107 40.8881C9.95385 40.5736 10.0114 40.2375 10.1242 39.9278C10.0522 40.3479 10.0356 40.7631 10.0429 41.0799C10.0574 41.7449 10.2543 41.9177 10.8232 42.172C11.4882 42.4695 10.9338 42.5681 11.0491 43.1441C11.1284 43.5402 11.6853 43.7033 12.043 43.7441C12.4319 43.7848 12.816 43.7079 13.1952 43.6694C13.1952 43.6694 13.2072 43.667 13.2192 43.6646C12.4991 43.9024 11.6422 44.0178 11.006 43.8019C10.1898 43.5284 10.7659 43.2258 10.7874 42.7097L10.7753 42.7123Z" fill="#FFB3CB"/>
<path d="M14.9714 42.5024C15.1656 41.5086 15.7895 40.5723 16.1134 39.6336C15.9886 39.6024 15.8541 39.5232 15.7317 39.504C15.8828 39.0119 16.3196 38.731 15.5971 38.7383C14.8193 38.7505 15.2946 38.5992 15.4217 38.0182C14.8888 37.9127 14.5143 37.7255 13.9454 37.7521C13.4629 37.7738 12.9708 37.7787 12.4907 37.8436C12.7691 37.7379 13.0572 37.649 13.3596 37.601C14.0821 37.4688 14.8407 37.3606 15.556 37.5357C16.0218 37.6484 16.6315 37.7011 16.9796 38.0683C17.0253 38.1091 17.0589 38.1523 17.0877 38.2027C17.5775 38.966 16.2048 40.589 15.8233 41.2084C15.5353 41.6717 15.2809 42.1159 14.9642 42.4976L14.9714 42.5024Z" fill="#FF81A0"/>
<path d="M15.7185 45.8607C15.6249 45.7671 15.536 45.6663 15.4472 45.5655C15.2383 45.3015 15.0702 45.023 14.9477 44.723C14.5875 43.8589 14.5729 42.8819 14.8415 41.9481C15.031 41.2735 15.3982 40.6757 15.6645 40.0419C15.7533 39.8306 15.8588 39.6098 15.9788 39.3985C16.202 39.0168 16.478 38.6495 16.8308 38.3853C16.8956 38.3349 16.9676 38.2893 17.0396 38.2437C17.0108 38.2245 16.9508 38.2053 16.8667 38.1597C17.0756 38.174 17.2773 38.2772 17.4573 38.3972C17.8967 38.69 18.4368 39.0499 18.8306 39.3955C18.9002 39.4627 18.9771 39.5347 19.0467 39.6019C19.4981 40.0483 19.9423 40.5835 20.3528 41.0443C20.8066 41.5652 21.1957 42.3548 21.1214 43.075C21.107 43.1902 21.0879 43.3126 21.0447 43.4399C20.8312 44.1817 20.2216 45.0652 19.6264 45.4278C19.276 45.6415 19.2447 45.4855 18.8822 45.3895C18.4549 45.2816 18.4046 45.4352 18.1334 45.7642C17.4182 46.6501 16.5517 46.7175 15.7065 45.8631L15.7185 45.8607Z" fill="#FFA3BE"/>
<path d="M17.4192 39.3597C17.2751 39.014 17.0326 38.738 16.8549 38.4116C16.8477 38.4068 16.8453 38.3948 16.8357 38.378C16.9005 38.3276 16.9725 38.2819 17.0445 38.2363C17.0157 38.2171 16.9557 38.1979 16.8716 38.1523C17.0805 38.1667 17.2821 38.2699 17.4622 38.3899C17.9016 38.6826 18.4417 39.0426 18.8355 39.3882C18.9051 39.4554 18.9819 39.5274 19.0516 39.5946C19.503 40.041 19.9472 40.5762 20.3577 41.037C20.8115 41.5578 21.2006 42.3475 21.1263 43.0677C21.1119 43.1829 21.0928 43.3053 21.0496 43.4325C20.8406 42.8253 20.5212 42.1964 20.2331 41.8796C19.9378 41.558 19.3352 41.1668 18.903 41.0349C18.8647 41.1861 18.8455 41.371 18.7351 41.5054C18.5887 41.4286 18.5046 41.2894 18.4374 41.1406C18.3414 41.2535 18.2983 41.7864 18.1855 41.8152C17.9406 41.8705 17.8949 41.1431 17.8732 41.0039C17.7651 40.4638 17.6281 39.8733 17.412 39.3549L17.4192 39.3597Z" fill="#FF81A0"/>
<path d="M14.9526 44.7157C14.5924 43.8516 14.5778 42.8746 14.8464 41.9407C15.0359 41.2661 15.4031 40.6684 15.6694 40.0346C15.7582 39.8233 15.8637 39.6024 15.9837 39.3912C16.1255 40.2865 16.409 41.1722 16.4908 42.0484C16.0994 41.8396 15.905 41.5852 15.7346 42.1686C15.6723 42.387 15.826 42.7495 15.742 42.9223C15.694 43.0256 15.5476 42.98 15.4948 43.0592C15.3508 43.2753 15.2021 44.1539 14.9454 44.7109L14.9526 44.7157Z" fill="#FF81A0"/>
<path d="M15.7185 45.8607C15.6249 45.7671 15.536 45.6663 15.4472 45.5655C16.4148 46.3766 17.2382 46.1555 18.0637 45.1039C18.3973 44.6813 18.5486 44.8445 19.0239 44.8492C19.4559 44.8564 19.7224 44.6283 19.9863 44.2945C20.6823 43.4062 20.5501 42.4028 20.137 41.4307C19.8968 40.8547 19.5486 40.3626 19.2077 39.8442C19.1524 39.7554 19.0996 39.6786 19.0444 39.5898C19.4958 40.0362 19.94 40.5714 20.3505 41.0322C20.8043 41.553 21.1934 42.3427 21.1191 43.0629C21.0473 43.8574 20.3274 45.0002 19.6313 45.4204C19.2809 45.6342 19.2496 45.4781 18.8871 45.3822C18.4598 45.2743 18.4095 45.4279 18.1383 45.7568C17.4231 46.6427 16.5565 46.7101 15.7114 45.8557L15.7185 45.8607Z" fill="#FFB3CB"/>
<path d="M19.8272 41.0683C19.1046 40.4827 18.4563 39.8324 17.7792 39.194C17.2342 38.6852 16.7517 38.3636 17.3613 37.917C17.5004 37.2712 18.314 36.6589 18.7796 36.2412C19.4252 35.6625 20.0253 35.2303 20.8174 34.8845C21.4654 34.5987 22.1423 34.3633 22.8288 34.3007C23.2081 34.2622 23.597 34.2718 23.9883 34.3557C23.9955 34.3605 24.0027 34.3653 24.0147 34.3629C25.3662 34.6603 26.1612 36.7605 25.5878 37.9489C25.3382 38.4795 25.1007 39.0076 24.9064 39.5646C24.7024 40.1359 24.6929 40.6184 24.2369 41.053C24.0065 41.2739 23.7377 41.4588 23.4449 41.6173C22.9144 41.8983 22.3047 42.064 21.7334 42.0473C21.6398 42.0473 21.551 42.0402 21.4598 42.021C20.814 41.9131 20.3314 41.4979 19.8176 41.0827L19.8272 41.0683Z" fill="#FFA3BE"/>
<path d="M23.4545 41.6029C23.6657 41.286 23.9368 40.957 24.0712 40.693C24.2512 40.3449 24.4168 40.0496 24.5319 39.6895C24.7742 38.9357 24.7045 38.5252 24.2243 37.8724C23.6744 37.1211 23.0286 36.7324 23.5205 35.7913C23.7053 35.436 24.0004 34.8526 24.0099 34.3389C25.3614 34.6363 26.1564 36.7365 25.5829 37.9249C25.3334 38.4555 25.0959 38.9836 24.9015 39.5406C24.6976 40.1119 24.6881 40.5944 24.2321 41.029C24.0017 41.2499 23.7329 41.4348 23.4401 41.5933L23.4545 41.6029Z" fill="#FFB3CB"/>
<path d="M19.8272 41.0683C19.1046 40.4827 18.4563 39.8324 17.7792 39.194C17.2342 38.6852 16.7517 38.3636 17.3613 37.917C17.5004 37.2712 18.314 36.6589 18.7796 36.2412C19.4252 35.6625 20.0253 35.2303 20.8174 34.8845C21.4654 34.5987 22.1423 34.3633 22.8288 34.3007C22.4208 34.4136 22.0079 34.5337 21.6383 34.7451C21.2063 34.9876 20.7766 35.2109 20.3446 35.4535C19.6437 35.8497 18.7508 36.3468 18.6142 37.0982C18.607 37.1246 18.727 37.319 18.7103 37.4222C18.6719 37.6047 18.4943 37.6527 18.4247 37.8039C18.2591 38.1929 18.2231 38.2313 18.4584 38.5961C18.6457 38.8769 19.0563 39.0569 19.2124 39.3689C19.3757 39.6857 19.2053 39.8634 19.3446 40.185C19.5223 40.6051 20.2593 41.1378 20.6099 41.3922C20.8716 41.577 21.1669 41.805 21.4718 42.0186C20.826 41.9107 20.3434 41.4955 19.8296 41.0803L19.8272 41.0683Z" fill="#FF81A0"/>
<path d="M17.1265 39.9863C17.1744 39.6334 17.1959 39.2733 17.1935 38.918C17.2415 38.9708 17.2775 39.026 17.3255 39.0788C17.5416 39.3788 17.7457 39.6813 17.9402 39.9981C17.9666 40.0365 18.0387 40.0221 18.0218 39.9693C17.8873 39.4844 17.5943 38.8627 17.1838 38.4955C17.1766 38.4283 17.1693 38.3611 17.1621 38.2939C17.1669 38.2867 17.1717 38.2795 17.1813 38.2651C17.1813 38.2651 17.1957 38.2747 17.2029 38.2795C17.5775 38.5603 18.0696 38.7114 18.5305 38.6753C18.5857 38.6705 18.5929 38.5817 18.5521 38.5649C18.1823 38.3705 17.7742 38.2026 17.3709 38.0586C17.4357 37.977 17.5029 37.9074 17.5629 37.8329C17.7621 37.612 17.9901 37.4104 18.1101 37.1367C18.1341 37.1007 18.0765 37.0623 18.0429 37.0815C17.7404 37.2232 17.522 37.5041 17.294 37.737C17.2796 37.7586 17.258 37.7754 17.2364 37.7922C17.27 37.5545 17.2819 37.3025 17.3083 37.06C17.337 36.6735 17.3946 36.3063 17.3057 35.9246C17.2912 35.8526 17.1904 35.8478 17.1664 35.915C17.0273 36.2799 17.0346 36.6592 17.0058 37.0457C17.0035 37.1273 16.9939 37.2041 16.9867 37.2929C16.9867 37.2929 16.9867 37.2929 16.9843 37.2809C16.9074 36.9281 16.8353 36.4744 16.6144 36.1816C16.5135 36.052 16.3527 36.184 16.3648 36.3065C16.384 36.4961 16.4777 36.6833 16.5401 36.8705C16.593 37.041 16.641 37.2186 16.6818 37.3914C16.7131 37.5475 16.7443 37.7035 16.7708 37.8667C16.5066 37.4827 16.0913 37.1539 15.7504 36.9163C15.6855 36.8731 15.6159 36.962 15.664 37.0148C15.8897 37.2692 16.0986 37.5332 16.3075 37.7972C16.4347 37.9652 16.5524 38.1476 16.6844 38.3084C16.382 38.2005 16.0459 38.1117 15.7362 38.0926C15.6666 38.0878 15.6258 38.1958 15.6882 38.227C15.9715 38.3638 16.2932 38.4429 16.6101 38.4981C16.4757 38.7934 16.3365 39.0958 16.279 39.4007C16.2646 39.4847 16.3702 39.5447 16.423 39.4655C16.6102 39.1846 16.7326 38.8605 16.8501 38.5436C16.8286 39.0285 16.8767 39.5182 16.9536 39.9959C16.9657 40.0871 17.0929 40.0679 17.1073 39.9839L17.1265 39.9863Z" fill="#FCFBFC"/>
<path d="M17.5674 36.203C17.6778 36.0373 17.6321 35.7781 17.4496 35.6773C17.272 35.5693 17.0367 35.6102 16.924 35.7951C16.8136 35.9607 16.8592 36.22 17.0417 36.3207C17.2194 36.4287 17.4546 36.3879 17.5674 36.203Z" fill="#FFDC37"/>
<path d="M16.6913 36.5345C16.7873 36.3904 16.7488 36.1672 16.5952 36.0856C16.4391 35.992 16.2399 36.0256 16.1463 36.1817C16.0503 36.3257 16.0887 36.549 16.2424 36.6306C16.3984 36.7242 16.5977 36.6905 16.6913 36.5345Z" fill="#FFDC37"/>
<path d="M16.1729 37.2499C16.2929 37.0698 16.2448 36.7986 16.0528 36.681C15.8607 36.5634 15.6135 36.6067 15.4839 36.8012C15.3639 36.9812 15.412 37.2525 15.604 37.37C15.7961 37.4876 16.0433 37.4444 16.1729 37.2499Z" fill="#FFDC37"/>
<path d="M15.8514 38.1694L15.861 38.1549C16.0675 38.0949 16.0458 37.7996 15.8945 37.6988C15.7433 37.5981 15.4697 37.6965 15.4817 37.9126C15.4817 37.9126 15.4769 37.9198 15.4793 37.9318C15.4938 38.1286 15.6594 38.239 15.8394 38.1718L15.8514 38.1694Z" fill="#FFDC37"/>
<path d="M16.7015 39.5159C16.8215 39.3358 16.7758 39.0453 16.5789 38.935C16.3821 38.8246 16.1276 38.863 15.998 39.0575C15.8781 39.2376 15.9237 39.528 16.1206 39.6384C16.3175 39.7488 16.5719 39.7103 16.7015 39.5159Z" fill="#FFDC37"/>
<path d="M17.1644 37.713C17.1644 37.713 17.1764 37.6482 17.1884 37.6146C17.2124 37.4537 16.9963 37.3097 16.8571 37.3938C16.8235 37.413 16.8019 37.4298 16.7755 37.4538C16.6675 37.5691 16.6651 37.7443 16.8092 37.8403C16.946 37.9315 17.1116 37.8546 17.1764 37.7106L17.1644 37.713Z" fill="#FFDC37"/>
<path d="M17.2222 38.7812C17.3854 38.5363 16.9989 38.2891 16.8405 38.5268C16.6773 38.7717 17.0639 39.0189 17.2222 38.7812Z" fill="#FFDC37"/>
<path d="M18.4486 37.4247C18.7942 36.9061 17.9779 36.383 17.6443 36.8991C17.2988 37.4177 18.115 37.9408 18.4486 37.4247Z" fill="#FFDC37"/>
<path d="M18.8954 38.6896C19.0297 38.488 18.9721 38.1687 18.7584 38.0367C18.5399 37.9119 18.2495 37.9576 18.1055 38.1737C17.9711 38.3754 18.0288 38.6946 18.2425 38.8266C18.4609 38.9514 18.7514 38.9057 18.8954 38.6896Z" fill="#FFDC37"/>
<path d="M18.0865 39.3883C18.3169 39.0426 17.7719 38.6899 17.5536 39.0332C17.3232 39.3789 17.8682 39.7317 18.0865 39.3883Z" fill="#FFDC37"/>
<path d="M18.3172 40.3845C18.6244 39.9235 17.8993 39.4508 17.5993 39.9165C17.2922 40.3775 18.0172 40.8503 18.3172 40.3845Z" fill="#FFDC37"/>
<path d="M17.2394 40.4879C17.537 40.0414 16.8335 39.583 16.5432 40.0344C16.2456 40.4809 16.949 40.9393 17.2394 40.4879Z" fill="#FFDC37"/>
<path d="M17.2387 36.9928C17.3827 36.7768 17.0393 36.5584 16.9074 36.7721C16.7634 36.9881 17.1067 37.2065 17.2387 36.9928Z" fill="#FFDC37"/>
<path d="M17.695 38.0874C17.8438 37.8641 17.4933 37.6409 17.3493 37.857C17.2005 38.0803 17.551 38.3034 17.695 38.0874Z" fill="#FFDC37"/>
<path d="M16.6605 38.5005C16.6605 38.5005 16.6653 38.4933 16.6773 38.4908C16.8789 38.4068 16.874 38.1019 16.7036 37.9987C16.5307 37.8836 16.2547 38.0012 16.2619 38.2245C16.2619 38.2245 16.2571 38.2317 16.2595 38.2437C16.2644 38.4549 16.4588 38.5845 16.6557 38.5077L16.6605 38.5005Z" fill="#FFDC37"/>
</svg>
