<svg width="72" height="72" viewBox="0 0 72 72" fill="none" xmlns="http://www.w3.org/2000/svg">
<g clip-path="url(#clip0_128_231)">
<path d="M32.4291 41.3402C32.1425 41.5834 31.8459 41.8032 31.5494 42.023C30.5668 42.7222 29.5831 43.2514 28.9128 43.4712C25.7389 44.5297 22.8468 44.3026 19.7659 43.0783C18.0957 42.4101 17.7477 40.8595 16.2477 40.0941C16.3634 36.8723 18.704 34.2336 21.6206 32.5589C22.571 32.0164 23.5778 31.5736 24.595 31.239C25.8374 30.8332 27.0862 30.6034 28.2383 30.5659C29.237 30.5361 30.7652 30.3686 31.2484 31.2761C31.5893 31.9143 30.8951 33.2768 31.154 34.0516C32.3098 34.6092 34.7567 36.2027 34.8835 37.3829C35.026 38.6775 33.8435 40.1519 32.4238 41.3343L32.4291 41.3402Z" fill="#FFC5D5"/>
<path d="M31.5555 42.0177C30.5729 42.7169 29.5892 43.2461 28.9189 43.4658C25.745 44.5243 22.8529 44.2972 19.772 43.0729C18.1018 42.4047 17.5168 41.2136 16.0108 40.4534C16.1265 37.2317 18.7101 34.2282 21.6267 32.5536C20.0705 33.9316 18.1963 36.0719 19.2956 36.9999C20.6052 38.1049 24.3118 35.7307 23.0121 38.9539C22.8454 39.3686 22.4071 39.7781 22.6965 40.2375C23.0945 40.8679 24.2135 40.4432 24.7454 40.8268C25.0982 41.0806 25.1333 41.5302 25.4562 41.8104C26.5005 42.7124 28.5318 42.281 29.7378 42.1958C30.3581 42.1487 30.9505 42.0941 31.5502 42.0117L31.5555 42.0177Z" fill="#FFAABD"/>
<path d="M32.4292 41.3402C33.3728 40.1628 34.0111 38.8818 33.6537 37.393C33.2911 35.8981 31.8335 35.5544 30.5852 35.1215C28.9427 34.557 29.8152 33.8057 30.006 32.5258C30.2061 31.1842 29.2469 31.0295 28.0549 31.0702C27.0728 31.1066 25.8257 31.1213 24.5951 31.239C25.8375 30.8331 27.0862 30.6033 28.2384 30.5659C29.2371 30.5361 30.7653 30.3686 31.2485 31.276C31.5894 31.9142 30.8951 33.2767 31.1541 34.0516C32.3099 34.6091 34.7567 36.2026 34.8835 37.3829C35.0261 38.6774 33.8436 40.1518 32.4239 41.3342L32.4292 41.3402Z" fill="#FDF2F8"/>
<path d="M15.6522 41.7003C14.9968 41.2979 12.5049 40.8232 11.3903 40.2398C9.75498 39.3699 8.19504 37.9097 6.99954 36.5114C6.17979 35.5495 5.64564 34.5483 5.34595 33.5104C4.81979 31.7224 4.99496 29.8581 5.58451 27.9794C5.81756 27.2175 6.12431 26.4545 6.47092 25.6882C6.94397 25.921 7.59726 25.9834 8.06962 26.2274C8.39617 24.7632 8.03463 24.5599 9.33091 24.1064C9.93288 23.8939 11.2436 23.951 11.8731 23.9384C13.6925 23.9189 15.0489 24.4377 16.2754 25.9795C16.7703 26.5988 17.1868 27.2982 17.5209 28.0493C18.0653 29.255 18.3923 30.5891 18.5301 31.9627C18.8819 35.5074 17.8934 39.2991 15.6462 41.7056L15.6522 41.7003Z" fill="#FFC5D5"/>
<path d="M15.6521 41.7003C14.9967 41.2979 12.5048 40.8232 11.3902 40.2398C9.75489 39.3699 8.19494 37.9097 6.99944 36.5114C6.17969 35.5495 5.64554 34.5483 5.34585 33.5104C6.83569 35.1929 8.62327 36.7292 10.5507 37.2658C11.7984 37.6137 11.6833 36.9893 12.5832 36.9081C13.341 36.8353 13.3897 37.0592 14.1518 37.1963C15.7204 37.4844 15.4214 37.5568 16.4697 35.774C17.2215 34.4887 17.9361 33.2577 18.536 31.9574C18.8878 35.5022 17.8992 39.2938 15.6521 41.7003Z" fill="#FFAABD"/>
<path d="M17.532 28.0499C16.9034 27.4848 16.2517 26.9296 15.4249 26.5507C14.2346 26.0024 13.0289 25.5211 11.7285 25.2946C10.9943 25.1649 10.1871 25.0251 9.60703 25.6242C8.96712 26.2763 9.35607 27.1497 8.92669 27.7863C7.71057 27.5706 7.02009 26.3447 5.99098 27.4375C5.85794 27.5767 5.72814 27.7557 5.58964 27.9852C5.82268 27.2234 6.12944 26.4603 6.47604 25.6941C6.94909 25.9268 7.60238 25.9893 8.07475 26.2333C8.4013 24.7691 8.03975 24.5658 9.33604 24.1123C9.93801 23.8997 11.2487 23.9569 11.8782 23.9443C13.6977 23.9248 15.054 24.4436 16.2805 25.9854C16.7755 26.6047 17.1919 27.3041 17.526 28.0552L17.532 28.0499Z" fill="#FDF2F8"/>
<path d="M30.8405 46.1545C28.8417 47.3582 27.3236 47.4527 25.055 46.8444C20.9798 45.7635 17.4829 43.5509 15.4419 40.3054C15.5129 40.3494 15.5951 40.394 15.6721 40.4327C20.4378 43.1134 26.5996 42.9449 32.0099 43.0252C32.6381 43.0352 33.2602 43.0504 33.8711 43.065C34.2112 44.5585 31.8987 45.5165 30.8578 46.1499L30.8405 46.1545Z" fill="#FFC5D5"/>
<path d="M30.8405 46.1545C28.8417 47.3582 27.3236 47.4527 25.055 46.8444C20.9798 45.7635 17.4829 43.5509 15.4419 40.3054C15.5129 40.3494 15.5951 40.394 15.6721 40.4327C16.9632 42.5902 20.5018 43.7404 22.6193 44.6001C24.377 45.319 25.9118 45.605 27.8427 45.615C29.4735 45.6237 31.4135 45.3907 31.7651 43.7014C31.8199 43.4498 31.6732 43.4409 31.8955 43.1372C31.9261 43.0994 31.9627 43.0564 32.0046 43.0193C32.6328 43.0292 33.2549 43.0444 33.8658 43.059C34.2059 44.5525 31.8934 45.5106 30.8525 46.1439L30.8405 46.1545Z" fill="#FDF2F8"/>
<path d="M30.0645 47.6538C28.4662 48.7913 27.2855 49.5804 25.21 49.0575C23.631 48.6611 22.0778 47.932 20.734 47.0175C18.7045 45.642 17.486 43.6872 15.7544 42.0693C13.6726 42.1181 11.0941 41.7628 9.17731 40.8643C7.36002 40.0059 6.18778 38.5977 5.27307 36.8652C4.5205 35.4486 4.7166 34.5485 4.78218 33.0911C5.52666 33.7992 6.12323 34.7985 6.87081 35.6427C7.06698 35.8643 7.28042 36.0812 7.50122 36.2702C9.76818 38.2153 13.131 40.0232 16.1485 40.3316C16.2945 40.3518 16.4412 40.3608 16.588 40.3697C16.8024 40.3828 16.967 40.4721 17.1175 40.6059C17.4556 40.9154 17.6838 41.4504 18.0498 41.7673C18.7983 42.4076 19.662 42.9247 20.4658 43.4948C21.7041 44.3746 22.9736 45.2053 24.2804 45.9817C24.6684 46.2149 25.2489 46.5448 25.909 46.8682C27.3063 47.5538 29.0582 48.1816 30.0698 47.6598L30.0645 47.6538Z" fill="#FDF2F8"/>
<path d="M16.1484 40.3315C15.1045 40.7324 14.1458 40.6627 12.8332 40.5431C11.6275 40.4357 10.3447 40.3859 9.32269 39.6778C8.55068 39.1437 7.96044 38.3203 7.5349 37.4901C7.4085 37.2388 7.1013 36.3251 6.86474 35.6479C7.06091 35.8695 7.27435 36.0864 7.49515 36.2754C9.76211 38.2205 13.1249 40.0284 16.1424 40.3368L16.1484 40.3315Z" fill="#FFC5D5"/>
<path d="M25.9037 46.8622C25.743 46.8977 25.5822 46.9332 25.4281 46.9522C23.3087 47.2479 20.9213 46.2641 19.3731 44.8897C18.0186 43.6856 17.4367 42.2567 17.1175 40.6058C17.4556 40.9153 17.6838 41.4503 18.0498 41.7672C18.7984 42.4076 19.662 42.9247 20.4659 43.4948C21.7041 44.3745 22.9736 45.2053 24.2804 45.9816C24.6684 46.2148 25.2489 46.5447 25.909 46.8682L25.9037 46.8622Z" fill="#FFC5D5"/>
<path d="M21.1913 38.2483C20.478 38.709 19.8542 39.2827 19.1363 39.7262C18.7714 39.9532 18.3859 40.1449 17.9951 40.3307C18.3662 40.0021 18.7002 39.6316 19.0395 39.2671C19.5843 38.6885 20.1842 38.1359 20.6481 37.4901C20.8272 37.2461 20.5335 36.9507 20.2941 37.1627C19.7016 37.6874 19.2091 38.3371 18.6855 38.9397C18.6182 39.0205 18.5457 39.0954 18.4785 39.1763C18.5298 39.0775 18.5818 38.9673 18.6331 38.8685C19.0309 38.0997 19.5885 37.4029 19.8761 36.5821C19.9035 36.5045 19.7873 36.4577 19.7388 36.5114C19.0729 37.2186 18.625 38.1599 18.0785 38.9537C17.6811 39.5299 17.2498 40.1041 17.0395 40.771C17.0216 40.7869 16.993 40.7908 16.9644 40.7948C16.9386 40.7535 16.9075 40.7063 16.8817 40.6651C16.8877 40.6598 16.9049 40.6552 16.9116 40.6386C17.4121 39.9497 17.7209 39.1528 18.1173 38.4066C18.5829 37.5456 19.1195 36.7286 19.6402 35.8936C19.7654 35.6973 19.4398 35.4623 19.298 35.6519C18.5765 36.6219 17.7624 37.8128 17.241 39.0329C17.3175 38.6128 17.3826 38.1919 17.4809 37.7844C17.7637 36.6687 18.2815 35.6013 18.4972 34.4702C18.5227 34.3301 18.327 34.1936 18.2226 34.3288C17.5397 35.2219 17.2164 36.3521 16.9417 37.4286C16.719 38.2987 16.4684 39.2578 16.5206 40.1729C16.5047 40.155 16.4888 40.137 16.4782 40.125C16.4637 38.4928 16.6634 37.0661 17.1117 35.4621C17.2045 35.1448 16.6896 34.9492 16.5629 35.2644C16.0395 36.5183 15.8238 38.0233 15.9542 39.4247C15.8243 39.2299 15.7118 39.0304 15.6179 38.8038C15.3461 38.1471 15.4092 37.3863 15.1121 36.7734C15.0618 36.6684 14.8851 36.6859 14.8338 36.7848C14.5206 37.4681 14.9159 38.5175 15.2116 39.1529C15.4167 39.6016 15.6676 40.0417 16.0016 40.4189C16.3515 40.8141 16.6103 41.3113 17.2147 41.2462C17.7566 41.1829 18.3275 40.9231 18.8225 40.6983C19.8426 40.2223 20.8405 39.5524 21.518 38.6534C21.6904 38.4259 21.4572 38.0662 21.18 38.2476L21.1913 38.2483Z" fill="#FCFBFC"/>
<path d="M17.0396 34.0301C16.1613 33.5687 15.4385 34.9352 16.3168 35.3965C17.1952 35.8579 17.918 34.4914 17.0396 34.0301Z" fill="#FFDC37"/>
<path d="M15.1402 35.7442C14.2618 35.2829 13.539 36.6493 14.4174 37.1106C15.2958 37.572 16.0186 36.2055 15.1402 35.7442Z" fill="#FFDC37"/>
<path d="M20.1343 35.8727C20.1343 35.8727 20.0958 35.8534 20.0733 35.852C20.2584 35.5064 20.224 35.0455 19.7795 34.8089C19.5381 34.6809 19.305 34.695 19.1182 34.7856C19.4554 34.4549 19.5163 33.8242 18.9783 33.5422C18.0999 33.0808 17.3771 34.4473 18.2554 34.9086C18.4969 35.0366 18.73 35.0225 18.9168 34.9319C18.5795 35.2626 18.5187 35.8933 19.0567 36.1753C19.1722 36.2333 19.2837 36.2628 19.3966 36.2696C19.3624 36.4602 19.4291 36.6681 19.654 36.7895C20.2411 37.1028 20.7214 36.1861 20.1343 35.8727Z" fill="#FFDC37"/>
<path d="M20.8307 36.7194C20.2436 36.4061 19.7632 37.3228 20.3504 37.6361C20.9375 37.9494 21.4178 37.0327 20.8307 36.7194Z" fill="#FFDC37"/>
<path d="M21.8245 37.6129C20.9462 37.1515 20.2234 38.5179 21.1017 38.9793C21.9801 39.4406 22.7029 38.0742 21.8245 37.6129Z" fill="#FFDC37"/>
<path d="M46.7279 14.738C47.6991 14.5083 47.8284 14.992 48.2562 15.6921C48.5591 15.6483 49.0687 15.4641 49.3512 15.6625C49.6391 15.867 49.6167 16.5171 49.6706 16.8432C49.9022 18.0695 49.8949 19.219 48.8371 20.0382C48.0758 20.6376 46.9361 21.4972 45.9511 21.6751C43.5181 22.099 43.509 19.2549 43.626 17.6023C43.6852 16.8129 44.1212 15.7858 44.8225 15.3357C45.329 15.0154 46.1248 14.8769 46.7166 14.7374L46.7279 14.738Z" fill="#FF81A0"/>
<path d="M42.5777 20.6993C42.5103 22.0943 42.8897 23.4996 43.7387 24.4463C43.8235 24.5421 44.7186 24.1661 45.2542 23.9268C45.4462 23.8422 45.5918 23.7775 45.6443 23.7523C46.2391 23.4713 46.7589 23.1178 47.2066 22.6466C48.084 21.7201 49.3382 20.6522 49.5184 19.3604C49.5963 18.8213 49.192 18.015 48.7058 17.7191C48.5419 17.6185 47.1892 17.3209 47.137 17.5273C47.4373 16.3107 46.5845 15.613 45.4536 16.0483C43.6616 16.7378 42.6807 18.7173 42.5837 20.694L42.5777 20.6993Z" fill="#FF8FB3"/>
<path d="M43.3061 19.5202C43.02 19.8483 42.769 20.2522 42.5776 20.6994C42.5102 22.0944 42.8896 23.4997 43.7386 24.4464C43.8234 24.5422 44.7185 24.1662 45.2541 23.9269C46.3125 23.1927 47.1846 22.2602 47.2719 20.9117C47.3286 19.9748 46.9975 19.0823 45.9528 19.5908C46.0437 19.2112 45.9421 18.8311 45.4881 19.1263C45.3837 18.7914 45.3714 18.2469 44.9604 18.2049C44.4147 18.1433 43.6115 19.1536 43.3008 19.5142L43.3061 19.5202Z" fill="#FFA3BE"/>
<path d="M43.7265 24.4568C43.619 23.238 43.2179 22.0977 43.3138 20.795C43.3837 19.9212 43.5033 19.0675 43.7359 18.2207C44.0419 17.0951 44.9082 16.0716 45.4046 15.0765C45.1202 15.1895 44.8678 15.2421 44.7159 15.1309C44.391 14.8845 44.6463 14.6905 44.1526 14.8927C43.3227 15.2216 42.8321 16.6815 42.5765 17.442C41.9892 19.1905 42.0575 21.149 42.7485 22.8338C42.976 23.3801 43.4149 24.1772 43.7152 24.4561L43.7265 24.4568Z" fill="#FFB3CB"/>
<path d="M43.7265 24.4569C43.7265 24.4569 49.1346 21.2063 49.76 18.5481C49.76 18.5481 49.8249 19.4414 50.0482 19.6816C50.2716 19.9218 50.9328 20.4152 50.5976 21.0858C50.2625 21.7565 48.5675 23.9304 43.7325 24.4516L43.7265 24.4569Z" fill="#FFB3CB"/>
<path d="M42.7157 22.254C42.9121 22.7531 43.1264 23.2363 43.5641 23.5859C43.9208 23.8682 44.3343 23.9613 44.7852 24.0001C45.2021 24.0369 45.7425 24.0924 46.1617 23.999C45.8094 24.9519 45.0878 25.2704 44.1651 25.0726C44.0197 25.0411 43.8698 24.9923 43.7205 24.9322C43.6211 25.5436 43.3564 26.1733 43.2313 26.7434C43.0078 27.7211 42.8341 28.7188 42.7116 29.714C42.4819 31.6372 42.4945 33.581 42.2873 35.5056C42.2759 35.6012 42.1278 35.6148 42.0994 35.5225C41.4412 33.6697 41.4062 31.6284 41.5914 29.6911C41.6861 28.6885 41.8485 27.6901 42.0832 26.7131C42.2505 26.0096 42.3956 25.0158 42.8104 24.3387C42.7189 24.2595 42.6334 24.175 42.5539 24.0851C41.8752 23.3187 41.565 22.2689 42.3155 21.38C42.4704 21.6273 42.6087 21.9643 42.7224 22.2374L42.7157 22.254Z" fill="#714120"/>
<path d="M32.9487 49.3189C32.8192 49.3054 32.6904 49.2806 32.5796 49.2398C31.608 48.9144 31.3875 47.7851 31.1893 46.8497C30.9942 45.9541 30.562 45.1404 30.3776 44.2568C30.211 43.4537 30.4936 42.8081 30.6935 42.0329C30.9816 40.9232 30.824 39.5032 31.8685 38.7171C32.1059 38.539 32.3677 38.4246 32.6494 38.3568C33.685 38.0914 34.9554 38.4406 35.8933 38.6677C37.2891 39.002 38.646 39.6058 39.9085 40.2718C40.7537 40.7198 41.903 41.1976 42.6191 41.8133C42.8168 41.916 42.9155 42.0636 42.9271 42.2456C42.9999 43.5699 38.5244 46.6677 37.8039 47.06C36.7438 47.6355 35.3872 48.8047 34.0545 49.205C33.6738 49.3178 33.3025 49.3688 32.9367 49.3295L32.9487 49.3189Z" fill="#FFA3BE"/>
<path d="M32.5796 49.2398C31.608 48.9144 31.3875 47.7851 31.1893 46.8497C30.9942 45.9541 30.562 45.1404 30.3776 44.2568C30.211 43.4537 30.4936 42.8081 30.6935 42.0329C30.9816 40.9232 30.824 39.5032 31.8685 38.7171C32.1059 38.539 32.3677 38.4246 32.6494 38.3568C33.685 38.0914 34.9554 38.4406 35.8933 38.6677C37.2891 39.002 38.646 39.6058 39.9085 40.2718C40.7537 40.7198 41.903 41.1976 42.6191 41.8133C42.8168 41.916 42.9155 42.0636 42.9271 42.2456C41.5781 42.8205 38.5877 41.5055 37.5792 41.4157C35.3026 41.2204 33.4873 41.9199 32.5312 44.1444C31.8526 45.7175 32.1065 47.5116 32.5623 49.2444L32.5796 49.2398Z" fill="#FF81A0"/>
<path d="M32.9487 49.3189C31.6548 49.1721 31.4093 47.8939 31.1893 46.8496C30.9942 45.954 30.562 45.1403 30.3776 44.2568C30.211 43.4536 30.4937 42.808 30.6935 42.0328C30.9816 40.9232 30.824 39.5031 31.8685 38.717C32.1059 38.5389 32.3677 38.4246 32.6494 38.3567C31.8419 39.5311 31.3601 41.6883 31.5068 42.9151C31.633 44.0104 32.3748 44.3897 32.9139 45.2156C33.3132 45.8234 32.9892 46.2172 32.988 46.8912C32.9845 47.7916 33.5657 48.4841 34.0664 49.1943C33.6858 49.3071 33.3145 49.3581 32.9487 49.3189Z" fill="#FFB3CB"/>
<path d="M39.1367 41.6071C36.8818 40.773 34.3886 39.103 33.154 36.8526C32.6787 36.0023 32.3901 35.0614 32.3713 34.0633C32.3337 32.3447 34.22 32.0631 35.2902 31.0406C36.4501 29.9387 37.3583 29.252 38.9883 28.9944C39.8863 28.8509 40.8599 28.7685 41.7379 29.0486C42.3604 29.2451 42.84 29.5576 43.1952 29.9587C43.2376 30.0066 43.28 30.0545 43.3224 30.1024C44.5655 31.6509 44.2416 34.2879 44.1553 36.1802C44.1103 37.2991 43.9338 38.3419 43.6863 39.4371C43.5705 39.9455 43.2993 40.4955 43.1311 41.029C43.0336 41.3289 42.9654 41.6137 42.9769 41.8919C42.9983 42.9412 39.6297 41.79 39.148 41.6077L39.1367 41.6071Z" fill="#FFA3BE"/>
<path d="M39.1367 41.6071C36.8818 40.773 34.3886 39.103 33.154 36.8526C32.6787 36.0023 32.3901 35.0614 32.3713 34.0633C32.3337 32.3447 34.22 32.0631 35.2902 31.0406C36.4501 29.9387 37.3583 29.252 38.9883 28.9944C39.8863 28.8509 40.8599 28.7685 41.7379 29.0486C42.3604 29.2451 42.84 29.5576 43.1952 29.9587C43.2376 30.0066 43.28 30.0545 43.3224 30.1024C42.8238 30.106 42.2601 30.0604 41.9181 30.0962C41.2054 30.1717 40.7218 30.3009 40.0766 30.5731C38.5894 31.185 37.4089 31.8778 36.1018 32.8857C35.1928 33.5838 34.3014 34.1809 34.2522 35.3674C34.2044 36.5314 34.7031 37.6494 35.3669 38.5678C36.0671 39.5395 37.3136 40.6577 38.6087 40.5043C38.5066 38.8214 39.8419 40.4378 40.2219 40.7102C41.1398 41.3609 42.0867 40.5972 43.076 41.003C43.0926 41.0097 43.1092 41.0163 43.1311 41.029C43.0336 41.3289 42.9654 41.6137 42.9769 41.8919C42.9983 42.9412 39.6297 41.79 39.148 41.6077L39.1367 41.6071Z" fill="#FF81A0"/>
<path d="M33.154 36.8526C32.6787 36.0023 32.3901 35.0614 32.3713 34.0633C32.3337 32.3447 34.22 32.0631 35.2902 31.0406C36.4501 29.9387 37.3583 29.252 38.9883 28.9944C39.8863 28.8509 40.8599 28.7685 41.7379 29.0486C42.3604 29.2451 42.84 29.5576 43.1952 29.9587C41.5707 29.3783 38.9731 29.339 38.7832 31.2591C38.6764 32.3685 39.5861 32.7808 38.2802 33.3923C37.4754 33.7738 36.4668 33.7803 35.5785 34.0434C34.1654 34.4615 33.8047 35.7424 33.154 36.8526Z" fill="#FFB3CB"/>
<path d="M40.78 54.9791C40.153 54.2951 39.8558 55.274 39.203 55.2965C38.618 55.3232 37.9405 54.2567 37.6364 53.8529C37.3217 53.4373 37.0045 52.9704 36.7742 52.4693C36.589 52.0671 36.4675 51.6406 36.4431 51.2029C36.3744 49.8109 36.6018 48.4879 37.151 47.2752C37.3536 46.8287 37.6007 46.3962 37.887 45.9718C38.5872 44.9779 39.3619 43.9715 40.4081 43.3441C41.0841 42.9378 41.8655 42.2886 42.6968 42.311C42.7931 42.3112 42.8887 42.3226 42.9836 42.3454C44.4472 42.6838 44.7174 46.1726 44.9857 47.3559C45.1814 48.2401 45.3984 49.052 45.4794 49.867C45.5485 50.5963 45.5094 51.3359 45.2457 52.1356C45.1276 52.4966 44.9675 52.8947 44.763 53.2787C44.1967 54.3998 43.3182 55.5302 42.3147 56.0129C41.0368 56.6318 41.3652 55.6038 40.786 54.9738L40.78 54.9791Z" fill="#FFA3BE"/>
<path d="M40.7799 54.9791C40.1529 54.2951 39.8557 55.274 39.2029 55.2966C38.6179 55.3232 37.9404 54.2567 37.6363 53.853C37.3216 53.4373 37.0044 52.9705 36.7741 52.4693C37.1815 53.0379 37.6375 53.5528 38.0114 53.9268C38.7976 54.6941 39.2299 54.6638 40.2033 54.3039C41.3389 53.8859 40.7944 54.6458 41.5943 55.1873C42.1494 55.561 42.9981 55.1085 43.4616 54.7516C43.9729 54.3522 44.3284 53.8131 44.7376 53.3225C44.7436 53.3172 44.7556 53.3066 44.7616 53.3013C44.1952 54.4224 43.3168 55.5528 42.3133 56.0355C41.0353 56.6544 41.3638 55.6264 40.7845 54.9964L40.7799 54.9791Z" fill="#FFB3CB"/>
<path d="M45.4793 49.867C44.5554 48.4739 44.2019 46.6397 43.4986 45.1581C43.3112 45.2599 43.0694 45.3245 42.8972 45.4556C42.5014 44.6951 42.6934 43.8628 41.8493 44.7064C40.9387 45.6196 41.3344 44.8846 40.8066 44.0594C40.0521 44.546 39.393 44.7664 38.7616 45.4643C38.2274 46.0549 37.6434 46.6254 37.1576 47.2586C37.3602 46.8121 37.6073 46.3796 37.8936 45.9552C38.5938 44.9613 39.3685 43.9549 40.4147 43.3275C41.0907 42.9212 41.8721 42.272 42.7034 42.2944C42.7997 42.2946 42.8953 42.306 42.9902 42.3288C44.4538 42.6672 44.724 46.156 44.9922 47.3393C45.1879 48.2235 45.405 49.0354 45.486 49.8504L45.4793 49.867Z" fill="#FF81A0"/>
<path d="M50.2663 52.9453C50.0398 52.9428 49.8254 52.9298 49.6056 52.9107C49.0546 52.8432 48.5249 52.7033 48.0333 52.4977C46.608 51.9011 45.4532 50.7658 44.678 49.3478C44.1227 48.3227 43.8676 47.2026 43.4391 46.1399C43.2963 45.7856 43.1662 45.4095 43.0652 45.0182C42.8819 44.3046 42.7802 43.5507 42.8857 42.8377C42.9052 42.703 42.9307 42.5629 42.9667 42.4348C42.9089 42.4539 42.8159 42.4936 42.6604 42.5351C42.9238 42.3019 43.2759 42.1931 43.6253 42.1294C44.4848 41.9665 45.5343 41.7528 46.4089 41.7155C46.5736 41.7085 46.7323 41.7069 46.9023 41.7059C47.9501 41.7074 49.0934 41.8167 50.1145 41.8846C51.2652 41.966 52.6289 42.4569 53.3717 43.3801C53.4929 43.5291 53.6068 43.706 53.7141 43.8995C54.331 45.0303 54.6335 46.7707 54.3507 47.8864C54.1802 48.5501 53.9687 48.3956 53.429 48.7026C52.7948 49.0718 52.9159 49.3171 52.9871 50.0125C53.1791 51.8935 52.2364 52.9633 50.243 52.9552L50.2663 52.9453Z" fill="#FFA3BE"/>
<path d="M44.7148 43.3118C44.1402 43.0729 43.5426 43.0252 42.9473 42.8473C42.9307 42.8406 42.9141 42.834 42.8916 42.8326C42.911 42.6978 42.9365 42.5578 42.9726 42.4297C42.9148 42.4488 42.8218 42.4885 42.6663 42.53C42.9297 42.2968 43.2818 42.1879 43.6312 42.1243C44.4907 41.9614 45.5402 41.7477 46.4148 41.7104C46.5795 41.7034 46.7382 41.7017 46.9082 41.7008C47.956 41.7023 49.0993 41.8116 50.1204 41.8794C51.271 41.9608 52.6347 42.4517 53.3775 43.375C53.4988 43.524 53.6127 43.7009 53.7199 43.8943C52.7745 43.4176 51.6583 43.0494 50.9585 43.0067C50.2361 42.9627 49.071 43.2146 48.4163 43.5486C48.5441 43.7773 48.7336 44.0155 48.767 44.3064C48.5132 44.3816 48.245 44.3199 47.9962 44.2198C48.015 44.4702 48.5862 45.1394 48.4857 45.3032C48.266 45.658 47.3689 44.85 47.1733 44.7134C46.4225 44.2032 45.5774 43.6589 44.7208 43.3065L44.7148 43.3118Z" fill="#FF81A0"/>
<path d="M48.0332 52.4979C46.6079 51.9013 45.4531 50.766 44.678 49.3479C44.1226 48.3228 43.8675 47.2027 43.4391 46.14C43.2963 45.7858 43.1661 45.4096 43.0652 45.0183C44.2748 45.902 45.6355 46.6306 46.7514 47.5653C46.0539 47.7664 45.5194 47.7055 46.004 48.5904C46.1933 48.9248 46.7905 49.1651 46.8909 49.4714C46.9537 49.6508 46.7258 49.7672 46.756 49.922C46.8436 50.3465 47.6882 51.5535 48.0272 52.5032L48.0332 52.4979Z" fill="#FF81A0"/>
<path d="M50.2662 52.9455C50.0397 52.9431 49.8253 52.93 49.6055 52.9109C51.6829 52.7486 52.4028 51.5236 52.1615 49.3337C52.0674 48.4556 52.4405 48.467 53.0059 47.9237C53.5234 47.4227 53.5695 46.8478 53.4923 46.1577C53.2877 44.2985 51.9568 43.2658 50.3483 42.6071C49.3868 42.2086 48.4176 42.0307 47.4107 41.822C47.2487 41.7839 47.0868 41.7457 46.9188 41.7128C47.9666 41.7143 49.1099 41.8236 50.1311 41.8914C51.2817 41.9729 52.6454 42.4638 53.3882 43.387C54.2211 44.412 54.6955 46.5878 54.3672 47.8933C54.1967 48.557 53.9852 48.4025 53.4455 48.7095C52.8114 49.0787 52.9325 49.324 53.0036 50.0194C53.1956 51.9004 52.2529 52.9702 50.2595 52.9621L50.2662 52.9455Z" fill="#FFB3CB"/>
<path d="M49.5318 42.5288C47.993 42.6843 46.4764 42.6599 44.9339 42.6906C43.6974 42.7172 42.7681 42.9099 42.9508 41.6691C42.3668 40.7442 42.6146 39.0826 42.6775 38.0442C42.7696 36.6166 42.9735 35.3999 43.5004 34.0895C43.9405 32.9947 44.4629 31.9446 45.1961 31.0603C45.5994 30.575 46.0676 30.139 46.622 29.7763C46.634 29.7657 46.6459 29.7551 46.6632 29.7505C48.6062 28.532 51.9735 30.0796 52.6811 32.1449C52.9996 33.0593 53.3361 33.9578 53.7529 34.8386C54.1737 35.7479 54.7278 36.3254 54.6988 37.3659C54.6839 37.8918 54.5894 38.4242 54.4271 38.9524C54.126 39.9027 53.5959 40.7994 52.9056 41.4428C52.7919 41.5435 52.6782 41.6442 52.5538 41.7329C51.6723 42.3533 50.6203 42.4195 49.5318 42.5288Z" fill="#FFA3BE"/>
<path d="M54.4324 38.9586C54.3173 38.3342 54.2574 37.6395 54.1101 37.1717C53.9206 36.5597 53.7781 36.0129 53.5002 35.4578C52.9138 34.2892 52.3608 33.8817 51.0311 33.6704C49.5049 33.4301 48.2926 33.7132 47.7828 32.0281C47.5947 31.3935 47.2664 30.3596 46.6745 29.7514C48.6175 28.5329 51.9848 30.0805 52.6924 32.1458C53.0109 33.0602 53.3474 33.9587 53.7642 34.8395C54.1849 35.7488 54.7391 36.3263 54.7101 37.3668C54.6952 37.8927 54.6007 38.4251 54.4384 38.9533L54.4324 38.9586Z" fill="#FFB3CB"/>
<path d="M49.5317 42.5291C47.9929 42.6846 46.4763 42.6602 44.9338 42.6909C43.6973 42.7175 42.768 42.9101 42.9507 41.6694C42.3667 40.7445 42.6145 39.0829 42.6774 38.0445C42.7695 36.6169 42.9734 35.4002 43.5003 34.0897C43.9404 32.995 44.4628 31.9449 45.196 31.0605C44.8417 31.6734 44.504 32.2929 44.3043 32.9718C44.0699 33.7562 43.8309 34.5234 43.6077 35.3085C43.241 36.5947 42.7581 38.208 43.4708 39.254C43.5026 39.2899 43.8597 39.3797 43.9584 39.5273C44.13 39.7813 43.9661 40.0546 44.07 40.3045C44.3312 40.9491 44.331 41.0454 45.03 41.1956C45.5782 41.3083 46.2686 41.0388 46.8121 41.2305C47.3669 41.4229 47.3882 41.8207 47.9243 42.0403C48.6204 42.332 50.1015 42.0993 50.8162 41.9899C51.3482 41.9033 51.9473 41.8322 52.565 41.7339C51.6835 42.3543 50.6315 42.4205 49.543 42.5298L49.5317 42.5291Z" fill="#FF81A0"/>
<path d="M45.0967 44.3943C44.7456 43.9254 44.3539 43.4711 43.9376 43.0492C44.0505 43.0561 44.1627 43.0742 44.2749 43.0924C44.875 43.1913 45.4677 43.318 46.0598 43.456C46.1322 43.4774 46.2007 43.374 46.1185 43.3293C45.3901 42.9168 44.3376 42.5241 43.4172 42.57C43.331 42.4968 43.2448 42.4236 43.1579 42.3616C43.1533 42.3443 43.16 42.3278 43.1554 42.3105C43.1666 42.3112 43.1892 42.3126 43.1952 42.3073C43.9603 42.2066 44.7206 41.8111 45.2203 41.2297C45.2756 41.1594 45.1974 41.0471 45.111 41.0701C44.442 41.2673 43.7682 41.5435 43.1382 41.845C43.1259 41.6743 43.1136 41.5036 43.1059 41.3502C43.0901 40.8621 43.1209 40.3541 42.939 39.8955C42.9146 39.8317 42.8176 39.8428 42.7969 39.9039C42.6128 40.4195 42.6788 41.0126 42.6859 41.5512C42.6891 41.591 42.6864 41.6362 42.6836 41.6813C42.4425 41.3607 42.1781 41.0501 41.9137 40.7394C41.5068 40.2558 41.1298 39.7457 40.5959 39.396C40.4924 39.3273 40.372 39.4446 40.4223 39.5497C40.6869 40.1379 41.1304 40.5784 41.5486 41.0627C41.6387 41.1645 41.7288 41.2663 41.819 41.3681C41.819 41.3681 41.8084 41.3561 41.8031 41.3501C41.3076 41.0197 40.6948 40.5689 40.094 40.4813C39.8298 40.4482 39.7807 40.7908 39.9485 40.9199C40.1965 41.1276 40.5191 41.2266 40.8043 41.3799C41.0677 41.5206 41.3304 41.6725 41.5811 41.8351C41.8046 41.979 42.0222 42.1282 42.2337 42.2827C41.4724 42.1343 40.5997 42.2341 39.9248 42.3403C39.8046 42.3613 39.8156 42.5546 39.9397 42.5621C40.4928 42.5958 41.0544 42.6753 41.6114 42.7376C41.96 42.7815 42.3058 42.8705 42.655 42.9031C42.1712 43.1285 41.684 43.4104 41.2896 43.7489C41.2059 43.8231 41.2746 43.9973 41.3962 43.9537C41.8879 43.7854 42.3691 43.5088 42.8012 43.2009C42.9863 43.6993 43.176 44.215 43.4608 44.6572C43.5329 44.7749 43.7342 44.7249 43.704 44.5701C43.5953 44.0253 43.3612 43.4956 43.1376 42.9778C43.6738 43.5713 44.3044 44.1025 44.945 44.5607C45.0697 44.6533 45.1935 44.4795 45.1094 44.3724L45.0967 44.3943Z" fill="#FCFBFC"/>
<path d="M41.2288 39.4232C41.1637 39.0964 40.8161 38.8486 40.488 38.9363C40.1545 39.0179 39.9315 39.3329 40.0013 39.677C40.0725 39.9986 40.414 40.2516 40.7422 40.164C41.0756 40.0823 41.2986 39.7674 41.2288 39.4232Z" fill="#FFDC37"/>
<path d="M40.577 40.8338C40.5203 40.5528 40.2219 40.3363 39.9342 40.4094C39.6466 40.4826 39.4489 40.7537 39.5102 41.052C39.5668 41.333 39.8652 41.5495 40.1529 41.4764C40.4405 41.4033 40.6382 41.1321 40.577 40.8338Z" fill="#FFDC37"/>
<path d="M40.8068 42.2751C40.737 41.931 40.3569 41.6586 40.0062 41.7449C39.6494 41.8365 39.4025 42.1726 39.4763 42.5453C39.546 42.8894 39.9261 43.1618 40.2768 43.0755C40.6336 42.984 40.8805 42.6478 40.8068 42.2751Z" fill="#FFDC37"/>
<path d="M41.4888 43.7329L41.5068 43.717C41.6508 43.3973 41.2908 43.0751 40.9925 43.1362C40.6943 43.1974 40.4923 43.6326 40.7562 43.8582C40.7615 43.8642 40.7668 43.8702 40.7774 43.8822C41.0247 44.1012 41.3402 44.0354 41.4829 43.7382L41.4888 43.7329Z" fill="#FFDC37"/>
<path d="M44.0584 44.3311C43.984 43.9697 43.6039 43.6973 43.2359 43.7882C42.8679 43.8791 42.6143 44.2318 42.6933 44.6105C42.7677 44.9719 43.1478 45.2443 43.5158 45.1534C43.8838 45.0625 44.1374 44.7098 44.0584 44.3311Z" fill="#FFDC37"/>
<path d="M42.5083 41.6765C42.4832 41.6239 42.4521 41.5767 42.4202 41.5408C42.2579 41.3213 41.8395 41.4035 41.7779 41.6716C41.7632 41.7274 41.7545 41.7778 41.7511 41.8342C41.7526 42.0892 41.9661 42.3062 42.2298 42.2543C42.4935 42.2023 42.6069 41.9204 42.5083 41.6765Z" fill="#FFDC37"/>
<path d="M43.8131 42.8604C43.7117 42.384 42.9717 42.5372 43.0732 43.0136C43.1746 43.4899 43.9146 43.3367 43.8131 42.8604Z" fill="#FFDC37"/>
<path d="M43.6849 39.8334C43.4794 38.8296 41.9138 39.1478 42.1245 40.1576C42.33 41.1614 43.8956 40.8432 43.6849 39.8334Z" fill="#FFDC37"/>
<path d="M45.6708 40.8098C45.5871 40.4139 45.1587 40.0989 44.7501 40.2043C44.3416 40.3097 44.0574 40.7002 44.145 41.1247C44.2286 41.5207 44.657 41.8357 45.0656 41.7303C45.4741 41.6249 45.7584 41.2343 45.6708 40.8098Z" fill="#FFDC37"/>
<path d="M45.5356 42.5745C45.4006 41.9035 44.3511 42.1171 44.4973 42.7888C44.6323 43.4598 45.6818 43.2461 45.5356 42.5745Z" fill="#FFDC37"/>
<path d="M46.9703 43.4833C46.7865 42.5885 45.3929 42.8718 45.5767 43.7667C45.7604 44.6615 47.154 44.3782 46.9703 43.4833Z" fill="#FFDC37"/>
<path d="M45.8165 44.8574C45.6367 43.9911 44.2889 44.2658 44.4687 45.1321C44.6485 45.9984 45.9963 45.7237 45.8165 44.8574Z" fill="#FFDC37"/>
<path d="M41.7609 40.7358C41.6786 40.3173 41.0303 40.4534 41.1126 40.8719C41.1949 41.2904 41.8432 41.1543 41.7609 40.7358Z" fill="#FFDC37"/>
<path d="M43.5619 41.4913C43.469 41.0608 42.8034 41.2016 42.891 41.6261C42.9839 42.0566 43.6495 41.9158 43.5619 41.4913Z" fill="#FFDC37"/>
<path d="M42.8246 43.191C42.8246 43.191 42.8312 43.1744 42.8319 43.1631C42.9713 42.8261 42.6239 42.4821 42.2911 42.5524C41.9583 42.6228 41.7723 43.0759 42.0401 43.3302C42.0454 43.3361 42.056 43.3481 42.0613 43.3541C42.3186 43.5964 42.6912 43.5228 42.8299 43.197L42.8246 43.191Z" fill="#FFDC37"/>
<path d="M57.6353 48.4606C57.5734 48.5474 57.5069 48.617 57.4411 48.6753C56.8545 49.1947 56.0163 48.9114 55.3222 48.6822C54.6499 48.4656 53.9427 48.4509 53.2877 48.2297C52.6937 48.0293 52.3684 47.6016 51.9303 47.1671C51.2992 46.5509 50.3006 46.1105 50.1741 45.1115C50.148 44.889 50.1729 44.6639 50.231 44.4522C50.4549 43.6558 51.1719 42.9461 51.6801 42.4106C52.4365 41.6127 53.3553 40.9379 54.2859 40.3488C54.9101 39.9564 55.6648 39.3736 56.3478 39.1319C56.4954 39.0333 56.6315 39.0303 56.7523 39.0943C57.6592 39.5517 58.0133 43.714 57.9923 44.3415C57.9701 45.2692 58.2341 46.6164 57.99 47.6551C57.9211 47.9512 57.8144 48.2166 57.642 48.444L57.6353 48.4606Z" fill="#FFC5D5"/>
<path d="M57.4352 48.6806C56.8486 49.2 56.0104 48.9167 55.3162 48.6875C54.644 48.4709 53.9368 48.4562 53.2818 48.235C52.6878 48.0346 52.3625 47.6069 51.9244 47.1724C51.2933 46.5562 50.2947 46.1158 50.1682 45.1168C50.142 44.8943 50.167 44.6692 50.2251 44.4575C50.4489 43.6611 51.166 42.9514 51.6742 42.4159C52.4306 41.618 53.3494 40.9432 54.28 40.3541C54.9042 39.9617 55.6589 39.3789 56.3419 39.1372C56.4895 39.0386 56.6256 39.0356 56.7464 39.0996C56.611 40.2129 54.5891 41.7041 54.1485 42.3401C53.1433 43.7856 52.9184 45.256 54.0294 46.7398C54.8211 47.7907 56.1091 48.3166 57.4358 48.6693L57.4352 48.6806Z" fill="#FFAABD"/>
<path d="M57.6353 48.4605C57.043 49.2628 56.1 48.9335 55.3162 48.6875C54.6439 48.4709 53.9367 48.4562 53.2817 48.235C52.6878 48.0346 52.3624 47.6069 51.9243 47.1724C51.2932 46.5561 50.2946 46.1158 50.1681 45.1168C50.142 44.8943 50.1669 44.6692 50.225 44.4575C50.6975 45.4493 51.9485 46.5847 52.8204 46.9664C53.5934 47.2967 54.1352 46.9558 54.8909 46.9169C55.4534 46.8888 55.5789 47.2477 56.0333 47.5076C56.6297 47.8555 57.3112 47.7327 57.9833 47.6717C57.9144 47.9677 57.8077 48.2331 57.6353 48.4605Z" fill="#FDF2F8"/>
<path d="M54.8633 41.3865C53.4495 42.5635 51.3767 43.5872 49.4132 43.5526C48.6662 43.5411 47.9288 43.3715 47.2541 43.0075C46.0971 42.3763 46.6274 41.0094 46.3597 39.9112C46.0695 38.7153 45.9635 37.8478 46.4084 36.6741C46.6519 36.0205 46.9764 35.3378 47.4978 34.8655C47.8696 34.5256 48.261 34.3285 48.6569 34.245C48.7028 34.2364 48.7546 34.2226 48.8004 34.2141C50.3101 33.9775 51.9409 35.2041 53.1567 35.9862C53.8823 36.4439 54.5083 36.9578 55.1467 37.5462C55.4418 37.8191 55.7014 38.2087 55.9937 38.5268C56.1527 38.7064 56.3191 38.8581 56.5056 38.9601C57.2127 39.3487 55.1552 41.1493 54.8566 41.4031L54.8633 41.3865Z" fill="#FFC5D5"/>
<path d="M54.8631 41.3866C53.4494 42.5637 51.3766 43.5874 49.4131 43.5527C48.6661 43.5412 47.9287 43.3717 47.254 43.0077C46.097 42.3765 46.6273 41.0096 46.3595 39.9114C46.0694 38.7155 45.9633 37.848 46.4082 36.6742C46.6517 36.0206 46.9763 35.338 47.4977 34.8656C47.8695 34.5257 48.2609 34.3287 48.6568 34.2452C48.7026 34.2366 48.7545 34.2228 48.8003 34.2142C48.6158 34.5485 48.3622 34.9013 48.2568 35.1441C48.0342 35.6404 47.938 36.014 47.8713 36.5538C47.7125 37.7733 47.7167 38.8271 47.8898 40.0839C48.0072 40.9521 48.0649 41.7769 48.8343 42.26C49.5925 42.7423 50.5273 42.8332 51.388 42.744C52.2998 42.6523 53.525 42.2511 53.915 41.3289C52.7606 40.7488 54.3401 40.4824 54.6664 40.3324C55.4472 39.9721 55.2994 39.0454 55.9583 38.5474C55.9703 38.5368 55.9823 38.5262 55.9942 38.5156C56.1533 38.6953 56.3197 38.847 56.5061 38.949C57.2133 39.3376 55.1557 41.1382 54.8572 41.3919L54.8631 41.3866Z" fill="#FFAABD"/>
<path d="M49.4131 43.5527C48.6661 43.5412 47.9287 43.3717 47.254 43.0077C46.097 42.3765 46.6273 41.0096 46.3596 39.9114C46.0694 38.7155 45.9633 37.848 46.4083 36.6742C46.6517 36.0207 46.9763 35.338 47.4977 34.8656C47.8695 34.5257 48.2609 34.3287 48.6568 34.2452C47.6474 35.107 46.6318 36.8181 47.8375 37.6733C48.5326 38.1688 49.1542 37.7252 49.0706 38.8247C49.0124 39.5065 48.6374 40.1804 48.4708 40.8727C48.206 41.9725 48.9206 42.707 49.4072 43.558L49.4131 43.5527Z" fill="#FDF2F8"/>
<path d="M64.3904 45.4167C63.6955 45.5726 64.2331 46.1435 63.9966 46.5879C63.7914 46.9833 62.8198 47.0317 62.432 47.0761C62.0328 47.1197 61.5998 47.1613 61.1835 47.1133C60.8456 47.0814 60.5164 46.999 60.2139 46.8503C59.2631 46.3676 58.4761 45.7079 57.8693 44.8779C57.65 44.57 57.4547 44.2408 57.2833 43.8905C56.887 43.045 56.5167 42.1445 56.4997 41.2088C56.4908 40.6078 56.3506 39.8346 56.6896 39.2887C56.7275 39.2231 56.7708 39.1634 56.8194 39.1097C57.601 38.268 60.0347 39.4245 60.9187 39.6993C61.5804 39.9039 62.2042 40.0778 62.7722 40.3333C63.2904 40.5688 63.7587 40.8806 64.1941 41.3602C64.3903 41.5818 64.5904 41.8319 64.7712 42.1205C65.3004 42.9231 65.7143 43.9452 65.657 44.7971C65.5802 45.88 65.0221 45.2739 64.3791 45.416L64.3904 45.4167Z" fill="#FFC5D5"/>
<path d="M64.3902 45.4167C63.6954 45.5726 64.233 46.1435 63.9965 46.5879C63.7913 46.9833 62.8197 47.0317 62.4319 47.0761C62.0327 47.1197 61.5997 47.1613 61.1834 47.1133C61.7247 47.0613 62.2355 46.9508 62.6268 46.85C63.434 46.616 63.5879 46.3195 63.7147 45.5342C63.8664 44.6201 64.1667 45.2728 64.8379 44.9455C65.2992 44.7187 65.321 43.9836 65.2574 43.5379C65.1852 43.0464 64.9628 42.6023 64.7923 42.1444C64.7923 42.1444 64.7817 42.1325 64.7764 42.1265C65.3055 42.9291 65.7195 43.9512 65.6622 44.8031C65.5853 45.886 65.0273 45.2799 64.3843 45.422L64.3902 45.4167Z" fill="#FDF2F8"/>
<path d="M62.7834 40.3341C61.5096 40.4151 60.1499 39.9527 58.893 39.8479C58.8888 40.0119 58.838 40.1957 58.8616 40.3671C58.2063 40.3385 57.7236 39.8899 57.9645 40.7769C58.2238 41.733 57.8887 41.1858 57.133 41.2248C57.1703 41.9181 57.0652 42.4385 57.2898 43.1263C57.4754 43.7097 57.637 44.3143 57.8744 44.8839C57.6552 44.576 57.4599 44.2469 57.2885 43.8966C56.8922 43.0511 56.5219 42.1505 56.5049 41.2148C56.4959 40.6138 56.3558 39.8406 56.6947 39.2948C56.7327 39.2291 56.776 39.1694 56.8245 39.1158C57.6062 38.274 60.0399 39.4306 60.9239 39.7053C61.5855 39.9099 62.2094 40.0838 62.7774 40.3394L62.7834 40.3341Z" fill="#FFAABD"/>
<path d="M66.6715 38.3333C66.5889 38.4812 66.4897 38.6225 66.3965 38.7584C66.1436 39.0999 65.8483 39.3934 65.5158 39.6451C64.5717 40.3636 63.3792 40.6932 62.1402 40.6687C61.2464 40.6482 60.4009 40.3928 59.5306 40.2661C59.2385 40.2257 58.9418 40.168 58.6411 40.0817C58.0949 39.9351 57.5594 39.7042 57.127 39.3607C57.0461 39.2934 56.9653 39.2262 56.8903 39.1537C56.8816 39.2041 56.8715 39.2772 56.8414 39.3999C56.7894 39.1362 56.8517 38.8568 56.9411 38.596C57.1606 37.9636 57.4176 37.1805 57.7314 36.5822C57.7834 36.4721 57.8467 36.3627 57.9159 36.2479C58.3149 35.5528 58.8287 34.8307 59.2648 34.1776C59.7567 33.4428 60.6046 32.7241 61.5026 32.5805C61.6514 32.5556 61.8048 32.5479 61.9801 32.553C62.9641 32.5789 64.2449 33.0364 64.876 33.6527C65.2505 34.0154 65.0638 34.1059 65.069 34.5821C65.0746 35.1432 65.2831 35.1616 65.7688 35.3724C67.0925 35.9629 67.4487 37.0042 66.6721 38.322L66.6715 38.3333Z" fill="#FFC5D5"/>
<path d="M58.1349 38.3402C57.7546 38.6343 57.4883 39.0089 57.1511 39.3395C57.1391 39.3501 57.1271 39.3607 57.1152 39.3713C57.0343 39.3041 56.9534 39.2369 56.8785 39.1643C56.8698 39.2148 56.8597 39.2878 56.8296 39.4106C56.7776 39.1469 56.8398 38.8674 56.9292 38.6066C57.1488 37.9743 57.4058 37.1912 57.7195 36.5929C57.7715 36.4828 57.8348 36.3733 57.9041 36.2586C58.303 35.5635 58.8169 34.8414 59.2529 34.1882C59.7449 33.4535 60.5927 32.7347 61.4907 32.5912C61.6395 32.5663 61.7929 32.5586 61.9682 32.5636C61.2955 33.0098 60.6191 33.6087 60.3195 34.0663C60.014 34.5291 59.7342 35.4071 59.706 35.9662C59.9099 35.9673 60.1384 35.9359 60.3427 36.0219C60.2966 36.2231 60.1516 36.3728 59.9907 36.5046C60.1612 36.5887 60.8314 36.4652 60.9029 36.5942C61.0558 36.8754 60.1774 37.1618 60.008 37.2477C59.378 37.5492 58.6934 37.9097 58.1349 38.3402Z" fill="#FFAABD"/>
<path d="M65.5159 39.6452C64.5718 40.3637 63.3793 40.6932 62.1403 40.6688C61.2465 40.6483 60.401 40.3929 59.5307 40.2662C59.2386 40.2258 58.9418 40.1681 58.6412 40.0818C59.6945 39.6191 60.6956 38.989 61.744 38.6054C61.615 39.147 61.3687 39.4719 62.1376 39.496C62.4318 39.5026 62.8188 39.192 63.065 39.241C63.2051 39.2665 63.1988 39.4644 63.3156 39.4998C63.6321 39.6041 64.7598 39.5028 65.5159 39.6452Z" fill="#FFAABD"/>
<path d="M66.6713 38.3332C66.5887 38.4811 66.4895 38.6223 66.3963 38.7583C67.0788 37.3101 66.5465 36.3713 64.9905 35.6874C64.3668 35.4172 64.5173 35.1771 64.3775 34.5852C64.2456 34.0503 63.8755 33.8012 63.3898 33.5904C62.0708 33.0172 60.88 33.5055 59.8281 34.3194C59.1985 34.8022 58.7041 35.3895 58.1818 35.9695C58.0967 36.0662 58.0062 36.157 57.921 36.2538C58.32 35.5587 58.8338 34.8366 59.2699 34.1834C59.7619 33.4487 60.6097 32.7299 61.5077 32.5864C62.5087 32.4264 64.1373 32.9391 64.8811 33.6585C65.2557 34.0212 65.0689 34.1118 65.0741 34.5879C65.0798 35.1491 65.2882 35.1674 65.7739 35.3783C67.0977 35.9687 67.4538 37.01 66.6773 38.3279L66.6713 38.3332Z" fill="#FDF2F8"/>
<path d="M59.4575 34.8296C58.9729 35.9104 58.3795 36.9165 57.8127 37.9526C57.3544 38.7857 57.1315 39.4745 56.3688 38.8786C55.5341 38.9127 54.5175 38.1144 53.8529 37.6774C52.9323 37.0719 52.2042 36.4667 51.5364 35.616C50.9732 34.9076 50.4751 34.1522 50.1737 33.3295C50.0085 32.8776 49.8958 32.4006 49.8641 31.8945C49.8648 31.8832 49.8655 31.8719 49.8608 31.8547C49.7862 30.0941 52.1117 28.4514 53.758 28.767C54.4862 28.902 55.215 29.0257 55.9593 29.0823C56.7255 29.1516 57.3233 29.0068 58.0006 29.4219C58.3449 29.6298 58.6685 29.8988 58.9495 30.2161C59.4704 30.7803 59.859 31.4724 60.0258 32.1793C60.0528 32.2942 60.0686 32.4085 60.0843 32.5227C60.1533 33.3483 59.8034 34.0747 59.4568 34.8409L59.4575 34.8296Z" fill="#FFC5D5"/>
<path d="M58.956 30.1994C58.5015 30.0358 58.0164 29.8136 57.6421 29.7285C57.1615 29.6199 56.7493 29.5042 56.2693 29.4806C55.2647 29.4194 54.7816 29.6336 54.1328 30.4324C53.3862 31.3499 53.1098 32.2677 51.7968 31.9668C51.2997 31.8516 50.4892 31.6719 49.8621 31.832C49.7874 30.0715 52.113 28.4288 53.7592 28.7443C54.4874 28.8793 55.2163 29.003 55.9606 29.0596C56.7267 29.129 57.3246 28.9841 58.0019 29.3992C58.3461 29.6071 58.6697 29.8761 58.9507 30.1934L58.956 30.1994Z" fill="#FDF2F8"/>
<path d="M59.4575 34.8294C58.9729 35.9102 58.3795 36.9163 57.8126 37.9524C57.3544 38.7855 57.1314 39.4743 56.3688 38.8784C55.5341 38.9125 54.5175 38.1142 53.8529 37.6772C52.9323 37.0717 52.2042 36.4665 51.5363 35.6158C50.9731 34.9074 50.4751 34.152 50.1737 33.3293C50.4511 33.7994 50.7292 34.2581 51.1017 34.6547C51.5332 35.1058 51.9527 35.5675 52.3902 36.0134C53.1048 36.748 53.9996 37.6861 54.9612 37.6144C55.0011 37.6112 55.1947 37.4077 55.3315 37.3934C55.5646 37.3793 55.6877 37.5907 55.8955 37.6203C56.4233 37.6978 56.489 37.7358 56.8595 37.3222C57.1449 37.0054 57.2302 36.4385 57.5647 36.1529C57.9059 35.8508 58.1746 35.9975 58.5309 35.7246C58.9884 35.373 59.4046 34.2994 59.6 33.7845C59.7481 33.397 59.9328 32.9664 60.0955 32.5232C60.1645 33.3487 59.8147 34.0752 59.4681 34.8414L59.4575 34.8294Z" fill="#FFAABD"/>
<path d="M59.003 38.5007C58.558 38.5529 58.111 38.6389 57.6619 38.7588C57.7171 38.6886 57.7611 38.6176 57.8216 38.5533C58.121 38.192 58.4311 37.8427 58.7517 37.5054C58.7936 37.4683 58.7479 37.3805 58.6894 37.411C58.1371 37.7399 57.4695 38.2883 57.1483 38.9145C57.0673 38.9435 56.9862 38.9726 56.9104 39.0076C56.8998 38.9957 56.8886 38.995 56.872 38.9883C56.878 38.983 56.8899 38.9724 56.8906 38.9611C57.1107 38.4137 57.145 37.7531 56.9461 37.2028C56.9216 37.139 56.8134 37.1494 56.798 37.2165C56.6703 37.7355 56.6029 38.2865 56.5588 38.8276C56.4434 38.7696 56.322 38.7169 56.2178 38.6596C55.8888 38.4809 55.5618 38.2684 55.1913 38.2118C55.1409 38.2031 55.1135 38.2807 55.14 38.3107C55.415 38.6333 55.8291 38.8115 56.1906 39.0148C56.2178 39.0334 56.251 39.0468 56.2782 39.0654C55.97 39.1033 55.6605 39.1637 55.3569 39.2189C54.876 39.3029 54.3972 39.353 53.9585 39.5812C53.8708 39.6269 53.9031 39.7478 53.9934 39.7533C54.4834 39.8001 54.9498 39.6756 55.4314 39.5803C55.5343 39.5639 55.632 39.5415 55.7409 39.5198L55.7289 39.5304C55.3202 39.7321 54.7846 39.9714 54.5017 40.3394C54.3786 40.5018 54.5842 40.6616 54.7403 40.6088C54.9722 40.521 55.1644 40.3401 55.3705 40.211C55.5646 40.0926 55.7587 39.9741 55.9634 39.8676C56.1448 39.771 56.3256 39.6857 56.5117 39.6064C56.1218 40.0585 55.8525 40.6709 55.6697 41.1639C55.6357 41.2581 55.7737 41.3175 55.8183 41.2352C56.0553 40.8758 56.3195 40.5351 56.5784 40.1883C56.7388 39.9715 56.9317 39.7793 57.0868 39.5565C57.0509 39.9622 57.0528 40.3985 57.1312 40.7884C57.149 40.8688 57.289 40.8943 57.3118 40.7994C57.3808 40.4071 57.3835 39.9881 57.3517 39.5783C57.7553 39.6482 58.1702 39.7188 58.574 39.6924C58.6822 39.682 58.725 39.5373 58.6142 39.4966C58.2146 39.359 57.7698 39.3149 57.3423 39.2662C57.9448 39.1386 58.5354 38.9253 59.089 38.6702C59.194 38.6199 59.1292 38.4744 59.0262 38.4908L59.003 38.5007Z" fill="#FCFBFC"/>
<path d="M54.2104 39.166C53.9714 39.0891 53.6744 39.224 53.5969 39.4742C53.5248 39.7304 53.6445 39.9982 53.9053 40.0877C54.1442 40.1646 54.4413 40.0298 54.5187 39.7796C54.5909 39.5234 54.4712 39.2555 54.2104 39.166Z" fill="#FFDC37"/>
<path d="M54.8991 40.1371C54.6881 40.0676 54.4315 40.188 54.3734 40.3997C54.3093 40.6167 54.4198 40.85 54.6361 40.9255C54.8472 40.995 55.1037 40.8747 55.1618 40.6629C55.2259 40.4459 55.1154 40.2126 54.8991 40.1371Z" fill="#FFDC37"/>
<path d="M55.9509 40.5409C55.6954 40.4574 55.3698 40.5962 55.2963 40.8749C55.2174 41.1477 55.3471 41.4388 55.6305 41.5297C55.886 41.6133 56.2116 41.4745 56.2851 41.1957C56.3639 40.923 56.2343 40.6318 55.9509 40.5409Z" fill="#FFDC37"/>
<path d="M57.18 40.6385L57.1641 40.6205C57.013 40.4017 56.6662 40.5166 56.5908 40.7329C56.5154 40.9492 56.7294 41.2511 56.9779 41.17C56.9779 41.17 56.9898 41.1594 57.0011 41.1601C57.2443 41.0729 57.3204 40.8453 57.1747 40.6325L57.18 40.6385Z" fill="#FFDC37"/>
<path d="M58.5549 39.1646C58.2881 39.0803 57.9565 39.2244 57.883 39.5032C57.8095 39.7819 57.9385 40.0843 58.2218 40.1752C58.4886 40.2594 58.8202 40.1154 58.8937 39.8366C58.9673 39.5579 58.8383 39.2555 58.5549 39.1646Z" fill="#FFDC37"/>
<path d="M56.2037 39.1742C56.2037 39.1742 56.1187 39.1747 56.0789 39.1779C55.8677 39.2047 55.7642 39.51 55.9253 39.6557C55.9518 39.6857 55.9836 39.7216 56.0281 39.7356C56.1979 39.831 56.4278 39.777 56.4912 39.5713C56.554 39.3768 56.4122 39.1926 56.2157 39.1636L56.2037 39.1742Z" fill="#FFDC37"/>
<path d="M57.4859 38.7651C57.1249 38.6469 56.944 39.2023 57.305 39.3206C57.666 39.4389 57.8469 38.8834 57.4859 38.7651Z" fill="#FFDC37"/>
<path d="M55.4267 37.6939C54.6767 37.4499 54.2949 38.6106 55.0449 38.8545C55.7948 39.0985 56.1766 37.9378 55.4267 37.6939Z" fill="#FFDC37"/>
<path d="M56.838 36.7431C56.538 36.6455 56.1712 36.8101 56.0843 37.122C55.9975 37.434 56.1469 37.7716 56.4635 37.8759C56.7635 37.9734 57.1303 37.8089 57.2172 37.4969C57.304 37.185 57.1545 36.8474 56.838 36.7431Z" fill="#FFDC37"/>
<path d="M57.9588 37.5025C57.4591 37.3361 57.2081 38.1138 57.7025 38.2742C58.2022 38.4406 58.4532 37.6629 57.9588 37.5025Z" fill="#FFDC37"/>
<path d="M59.1112 36.8987C58.4449 36.6768 58.1045 37.7153 58.7708 37.9372C59.4371 38.159 59.7775 37.1205 59.1112 36.8987Z" fill="#FFDC37"/>
<path d="M59.5879 38.1965C58.9382 37.9813 58.6111 38.9866 59.2608 39.2018C59.9105 39.417 60.2376 38.4116 59.5879 38.1965Z" fill="#FFDC37"/>
<path d="M55.289 39.3111C54.9777 39.2129 54.8182 39.696 55.1295 39.7942C55.4407 39.8925 55.6002 39.4094 55.289 39.3111Z" fill="#FFDC37"/>
<path d="M56.4824 38.4039C56.1659 38.2997 55.9944 38.7934 56.3162 38.9036C56.6328 39.0079 56.8043 38.5142 56.4824 38.4039Z" fill="#FFDC37"/>
<path d="M57.3313 39.5431C57.3313 39.5431 57.3207 39.5311 57.3154 39.5251C57.1477 39.2996 56.7843 39.4078 56.7016 39.652C56.6188 39.8962 56.8554 40.1995 57.1204 40.125C57.1204 40.125 57.1324 40.1144 57.1437 40.1151C57.4035 40.0346 57.4936 39.7625 57.3313 39.5431Z" fill="#FFDC37"/>
</g>
<defs>
<clipPath id="clip0_128_231">
<rect width="53.8553" height="47.4078" fill="white" transform="translate(35.4927) rotate(48.475)"/>
</clipPath>
</defs>
</svg>
