<svg width="54" height="57" viewBox="0 0 54 57" fill="none" xmlns="http://www.w3.org/2000/svg">
<path d="M9 47.3177C7.7625 47.3177 6.7035 46.861 5.823 45.9476C4.941 45.0327 4.5 43.9333 4.5 42.6495V14.6402C4.5 13.3564 4.941 12.2578 5.823 11.3444C6.7035 10.4294 7.7625 9.97195 9 9.97195H45C46.2375 9.97195 47.2972 10.4294 48.1792 11.3444C49.0597 12.2578 49.5 13.3564 49.5 14.6402V42.6495C49.5 43.9333 49.0597 45.0327 48.1792 45.9476C47.2972 46.861 46.2375 47.3177 45 47.3177H9ZM27 30.979L9 19.3084V42.6495H45V19.3084L27 30.979ZM27 26.3107L45 14.6402H9L27 26.3107ZM9 19.3084V14.6402V42.6495V19.3084Z" fill="#701651"/>
</svg>
