<svg width="67" height="19" viewBox="0 0 67 19" fill="none" xmlns="http://www.w3.org/2000/svg">
<path d="M0.958252 18.4825V0.0689392H11.3124C12.5451 0.0689392 13.5923 0.517001 14.4542 1.41313C15.318 2.30721 15.7499 3.39361 15.7499 4.67233V7.74125C15.7499 8.66193 15.4916 9.50588 14.9748 10.2731C14.4561 11.0403 13.827 11.6286 13.0874 12.0377L15.7499 18.4825H11.3124L8.79783 12.3446H5.39575V18.4825H0.958252ZM18.7083 18.4825V13.8791H27.5832V11.5774H21.6666C20.8284 11.5774 20.1253 11.2828 19.5573 10.6936C18.9913 10.1064 18.7083 9.37801 18.7083 8.50848V3.13786C18.7083 2.26834 18.9913 1.53895 19.5573 0.94972C20.1253 0.362532 20.8284 0.0689392 21.6666 0.0689392H32.0207V4.67233H23.1457V6.97402H29.0624C29.9006 6.97402 30.6037 7.26761 31.1717 7.8548C31.7377 8.44404 32.0207 9.17342 32.0207 10.0429V15.4136C32.0207 16.2831 31.7377 17.0115 31.1717 17.5986C30.6037 18.1879 29.9006 18.4825 29.0624 18.4825H18.7083ZM40.1562 18.4825L34.9791 0.0689392H39.4166L42.3749 10.58L45.3332 0.0689392H49.7707L44.5937 18.4825H40.1562ZM51.2499 18.4825V0.0689392H61.6041C62.8367 0.0689392 63.884 0.517001 64.7458 1.41313C65.6097 2.30721 66.0416 3.39361 66.0416 4.67233V7.74125C66.0416 9.01997 65.6097 10.1064 64.7458 11.0005C63.884 11.8966 62.8367 12.3446 61.6041 12.3446H55.6874V18.4825H51.2499ZM5.39575 7.74125H11.3124V4.67233H5.39575V7.74125ZM55.6874 7.74125H61.6041V4.67233H55.6874V7.74125Z" fill="#701651"/>
</svg>
