<svg width="40" height="46" viewBox="0 0 40 46" fill="none" xmlns="http://www.w3.org/2000/svg">
<path d="M20 27.0656C19.3861 27.0656 18.8719 26.8498 18.4573 26.4183C18.0413 25.9882 17.8333 25.4548 17.8333 24.8179C17.8333 24.1811 18.0413 23.6469 18.4573 23.2153C18.8719 22.7853 19.3861 22.5703 20 22.5703C20.6139 22.5703 21.1288 22.7853 21.5448 23.2153C21.9594 23.6469 22.1667 24.1811 22.1667 24.8179C22.1667 25.4548 21.9594 25.9882 21.5448 26.4183C21.1288 26.8498 20.6139 27.0656 20 27.0656ZM11.3333 27.0656C10.7194 27.0656 10.2045 26.8498 9.7885 26.4183C9.37395 25.9882 9.16667 25.4548 9.16667 24.8179C9.16667 24.1811 9.37395 23.6469 9.7885 23.2153C10.2045 22.7853 10.7194 22.5703 11.3333 22.5703C11.9472 22.5703 12.4622 22.7853 12.8782 23.2153C13.2927 23.6469 13.5 24.1811 13.5 24.8179C13.5 25.4548 13.2927 25.9882 12.8782 26.4183C12.4622 26.8498 11.9472 27.0656 11.3333 27.0656ZM28.6667 27.0656C28.0528 27.0656 27.5386 26.8498 27.124 26.4183C26.708 25.9882 26.5 25.4548 26.5 24.8179C26.5 24.1811 26.708 23.6469 27.124 23.2153C27.5386 22.7853 28.0528 22.5703 28.6667 22.5703C29.2806 22.5703 29.7948 22.7853 30.2093 23.2153C30.6253 23.6469 30.8333 24.1811 30.8333 24.8179C30.8333 25.4548 30.6253 25.9882 30.2093 26.4183C29.7948 26.8498 29.2806 27.0656 28.6667 27.0656ZM20 36.0562C19.3861 36.0562 18.8719 35.8405 18.4573 35.4089C18.0413 34.9789 17.8333 34.4454 17.8333 33.8086C17.8333 33.1717 18.0413 32.6383 18.4573 32.2082C18.8719 31.7767 19.3861 31.5609 20 31.5609C20.6139 31.5609 21.1288 31.7767 21.5448 32.2082C21.9594 32.6383 22.1667 33.1717 22.1667 33.8086C22.1667 34.4454 21.9594 34.9789 21.5448 35.4089C21.1288 35.8405 20.6139 36.0562 20 36.0562ZM11.3333 36.0562C10.7194 36.0562 10.2045 35.8405 9.7885 35.4089C9.37395 34.9789 9.16667 34.4454 9.16667 33.8086C9.16667 33.1717 9.37395 32.6383 9.7885 32.2082C10.2045 31.7767 10.7194 31.5609 11.3333 31.5609C11.9472 31.5609 12.4622 31.7767 12.8782 32.2082C13.2927 32.6383 13.5 33.1717 13.5 33.8086C13.5 34.4454 13.2927 34.9789 12.8782 35.4089C12.4622 35.8405 11.9472 36.0562 11.3333 36.0562ZM28.6667 36.0562C28.0528 36.0562 27.5386 35.8405 27.124 35.4089C26.708 34.9789 26.5 34.4454 26.5 33.8086C26.5 33.1717 26.708 32.6383 27.124 32.2082C27.5386 31.7767 28.0528 31.5609 28.6667 31.5609C29.2806 31.5609 29.7948 31.7767 30.2093 32.2082C30.6253 32.6383 30.8333 33.1717 30.8333 33.8086C30.8333 34.4454 30.6253 34.9789 30.2093 35.4089C29.7948 35.8405 29.2806 36.0562 28.6667 36.0562ZM4.83333 45.0469C3.64167 45.0469 2.62117 44.6071 1.77183 43.7275C0.923944 42.8464 0.5 41.7878 0.5 40.5516V9.08428C0.5 7.84807 0.923944 6.79017 1.77183 5.91058C2.62117 5.0295 3.64167 4.58895 4.83333 4.58895H7V2.34129C7 1.70445 7.20728 1.17026 7.62183 0.738707C8.03783 0.308654 8.55278 0.0936279 9.16667 0.0936279C9.78056 0.0936279 10.2955 0.308654 10.7115 0.738707C11.1261 1.17026 11.3333 1.70445 11.3333 2.34129V4.58895H28.6667V2.34129C28.6667 1.70445 28.8747 1.17026 29.2907 0.738707C29.7052 0.308654 30.2194 0.0936279 30.8333 0.0936279C31.4472 0.0936279 31.9614 0.308654 32.376 0.738707C32.792 1.17026 33 1.70445 33 2.34129V4.58895H35.1667C36.3583 4.58895 37.3788 5.0295 38.2282 5.91058C39.0761 6.79017 39.5 7.84807 39.5 9.08428V40.5516C39.5 41.7878 39.0761 42.8464 38.2282 43.7275C37.3788 44.6071 36.3583 45.0469 35.1667 45.0469H4.83333ZM4.83333 40.5516H35.1667V18.0749H4.83333V40.5516Z" fill="#701651"/>
</svg>
