<svg width="54" height="57" viewBox="0 0 54 57" fill="none" xmlns="http://www.w3.org/2000/svg">
<path d="M27 36.7769C27.9375 36.7769 28.734 36.4361 29.3895 35.7545C30.0465 35.0745 30.375 34.2483 30.375 33.2757V30.9416H32.625C33.5625 30.9416 34.359 30.6008 35.0145 29.9193C35.6715 29.2393 36 28.413 36 27.4404C36 26.4679 35.6715 25.6416 35.0145 24.9616C34.359 24.28 33.5625 23.9393 32.625 23.9393H30.375V21.6052C30.375 20.6326 30.0465 19.8063 29.3895 19.1263C28.734 18.4448 27.9375 18.104 27 18.104C26.0625 18.104 25.266 18.4448 24.6105 19.1263C23.9535 19.8063 23.625 20.6326 23.625 21.6052V23.9393H21.375C20.4375 23.9393 19.641 24.28 18.9855 24.9616C18.3285 25.6416 18 26.4679 18 27.4404C18 28.413 18.3285 29.2393 18.9855 29.9193C19.641 30.6008 20.4375 30.9416 21.375 30.9416H23.625V33.2757C23.625 34.2483 23.9535 35.0745 24.6105 35.7545C25.266 36.4361 26.0625 36.7769 27 36.7769ZM27 51.7735H26.4375C26.25 51.7735 26.0812 51.7346 25.9312 51.6568C21.0187 50.0619 16.9687 46.9007 13.7812 42.1733C10.5937 37.4475 9 32.2254 9 26.5068V15.4781C9 14.5056 9.27225 13.6303 9.81675 12.8522C10.3597 12.0742 11.0625 11.5101 11.925 11.16L25.425 5.90825C25.95 5.71374 26.475 5.61649 27 5.61649C27.525 5.61649 28.05 5.71374 28.575 5.90825L42.075 11.16C42.9375 11.5101 43.641 12.0742 44.1855 12.8522C44.7285 13.6303 45 14.5056 45 15.4781V26.5068C45 32.2254 43.4062 37.4475 40.2187 42.1733C37.0312 46.9007 32.9812 50.0619 28.0687 51.6568C27.8812 51.7346 27.525 51.7735 27 51.7735ZM27 47.047C30.9 45.7632 34.125 43.1957 36.675 39.3444C39.225 35.4931 40.5 31.2139 40.5 26.5068V15.4781L27 10.2264L13.5 15.4781V26.5068C13.5 31.2139 14.775 35.4931 17.325 39.3444C19.875 43.1957 23.1 45.7632 27 47.047Z" fill="#701651"/>
</svg>
