<svg width="44" height="47" viewBox="0 0 44 47" fill="none" xmlns="http://www.w3.org/2000/svg">
<path fill-rule="evenodd" clip-rule="evenodd" d="M30 17.4206C30 19.6216 29.1571 21.7325 27.6569 23.2889C26.1566 24.8453 24.1217 25.7196 22 25.7196C19.8783 25.7196 17.8434 24.8453 16.3431 23.2889C14.8429 21.7325 14 19.6216 14 17.4206C14 15.2195 14.8429 13.1086 16.3431 11.5522C17.8434 9.99585 19.8783 9.12149 22 9.12149C24.1217 9.12149 26.1566 9.99585 27.6569 11.5522C29.1571 13.1086 30 15.2195 30 17.4206ZM26 17.4206C26 18.5211 25.5786 19.5765 24.8284 20.3547C24.0783 21.1329 23.0609 21.5701 22 21.5701C20.9391 21.5701 19.9217 21.1329 19.1716 20.3547C18.4214 19.5765 18 18.5211 18 17.4206C18 16.32 18.4214 15.2646 19.1716 14.4864C19.9217 13.7082 20.9391 13.271 22 13.271C23.0609 13.271 24.0783 13.7082 24.8284 14.4864C25.5786 15.2646 26 16.32 26 17.4206Z" fill="#701651"/>
<path fill-rule="evenodd" clip-rule="evenodd" d="M22 0.822418C9.85 0.822418 0 11.0406 0 23.6448C0 36.2491 9.85 46.4673 22 46.4673C34.15 46.4673 44 36.2491 44 23.6448C44 11.0406 34.15 0.822418 22 0.822418ZM4 23.6448C4 27.9811 5.426 31.973 7.816 35.1432C9.49446 32.8566 11.6598 31.0035 14.1429 29.7287C16.6259 28.4539 19.3595 27.7919 22.13 27.7944C24.8647 27.7917 27.5638 28.4366 30.0219 29.6799C32.4799 30.9232 34.6319 32.7322 36.314 34.9689C38.0469 32.6112 39.2137 29.8592 39.7178 26.9408C40.2219 24.0224 40.0489 21.0214 39.213 18.1861C38.3771 15.3508 36.9024 12.7628 34.911 10.6361C32.9195 8.50948 30.4685 6.90534 27.7608 5.95645C25.053 5.00755 22.1664 4.74118 19.3397 5.17937C16.513 5.61756 13.8276 6.74773 11.5055 8.47634C9.18349 10.205 7.29162 12.4823 5.98646 15.12C4.68129 17.7577 4.00036 20.6799 4 23.6448ZM22 42.3177C17.8679 42.3242 13.8605 40.8495 10.656 38.1433C11.9459 36.2278 13.6627 34.6638 15.6604 33.5844C17.6581 32.505 19.8776 31.9423 22.13 31.9439C24.3543 31.9421 26.547 32.4908 28.5259 33.5444C30.5047 34.5981 32.2127 36.1263 33.508 38.0022C30.2786 40.7963 26.2052 42.3239 22 42.3177Z" fill="#701651"/>
</svg>
