<svg width="42" height="25" viewBox="0 0 42 25" fill="none" xmlns="http://www.w3.org/2000/svg">
<g clip-path="url(#clip0_182_459)">
<path d="M33.2657 9.65006H8.73413C10.0321 4.12194 15.0293 0 20.9999 0C26.9705 0 31.9677 4.12194 33.2657 9.65006Z" fill="#701651"/>
<path d="M33.2657 15.3499C31.9677 20.8781 26.9651 25 20.9999 25C15.0347 25 10.0321 20.8834 8.73413 15.3499H33.2657Z" fill="#701651"/>
<path d="M8.40433 12.5C8.40433 13.4822 8.5179 14.4375 8.73423 15.3499H2.87175C1.28715 15.3499 0 14.0726 0 12.5C0 11.711 0.319083 11.0026 0.843678 10.482C1.36827 9.96134 2.08215 9.64468 2.87716 9.64468H8.73963C8.52331 10.5625 8.40973 11.5124 8.40973 12.4946L8.40433 12.5Z" fill="#701651"/>
<path d="M41.9999 12.5C41.9999 13.289 41.6808 13.9974 41.1562 14.518C40.637 15.0333 39.9177 15.3553 39.1227 15.3553H33.2603C33.4766 14.4375 33.5902 13.4875 33.5902 12.5054C33.5902 11.5232 33.4766 10.5678 33.2603 9.65543H39.1227C40.7073 9.65543 41.9945 10.9328 41.9945 12.5054L41.9999 12.5Z" fill="#701651"/>
</g>
<defs>
<clipPath id="clip0_182_459">
<rect width="42" height="25" fill="white"/>
</clipPath>
</defs>
</svg>
