<svg width="84" height="84" viewBox="0 0 84 84" fill="none" xmlns="http://www.w3.org/2000/svg">
<path d="M41.9966 0C65.1913 0 83.9966 18.8018 83.9966 42C83.9966 65.1982 65.1948 84 41.9966 84C18.7984 84 0 65.1913 0 41.9966C0 18.8018 18.8018 0 41.9966 0Z" fill="#701651"/>
<path d="M64.5366 28.6768C63.4547 24.8593 58.7379 23.5534 55.8231 26.2478C55.4234 26.6164 55.0409 27.0058 54.5448 27.4881C54.5448 26.358 54.5517 25.383 54.5448 24.4045C54.4931 18.1854 50.6652 13.0483 44.7976 11.3462C44.0017 11.1154 43.1783 10.9948 42.3686 10.8225H39.9189C39.502 10.8983 39.0851 10.9776 38.6682 11.0465C32.9625 12.0077 28.1906 17.1173 27.7978 22.8678C27.6221 25.4519 27.6807 28.0566 27.7048 30.6545C27.7186 32.074 28.8762 33.1352 30.3061 33.1835C30.6334 33.1938 30.9607 33.1835 31.3018 33.1835C31.4121 34.7615 31.8186 36.1707 32.556 37.4834C33.2898 38.7927 34.289 39.8607 35.6327 40.853H34.9264C33.7377 40.853 32.5525 40.8496 31.3638 40.853C27.1018 40.8737 23.7942 44.1779 23.7666 48.4434C23.7528 50.39 23.7666 52.3402 23.7666 54.2868C23.7666 55.1861 23.7597 59.6204 23.7666 61.6911C23.7666 63.338 23.7666 64.985 23.7666 66.6319C23.7666 67.5725 24.0078 67.8102 24.9519 67.8102C29.2552 67.8102 33.5586 67.8102 37.8585 67.8102C44.367 67.8102 50.8788 67.8102 57.3873 67.8102C58.2039 67.8102 58.4864 67.5242 58.4933 66.7077C58.4967 66.0014 58.4933 65.2985 58.4933 64.5922C58.4933 61.5498 58.4933 58.5075 58.4933 55.4686C58.4933 55.317 58.4864 55.1758 58.4588 55.0414C58.4382 52.7777 58.4519 47.9196 58.2108 46.5621C57.88 44.6913 56.7223 43.2476 55.0341 42.0555C55.1753 41.9142 55.3407 41.7523 55.5199 41.5731C55.606 41.5008 55.6887 41.425 55.761 41.3423C55.7714 41.3319 55.7748 41.3216 55.7852 41.3113C57.9489 39.1682 62.0249 35.1439 63.3479 33.7382C64.6951 32.3049 65.0706 30.5615 64.5366 28.6734V28.6768ZM31.2329 31.5055C30.9228 31.5055 30.6472 31.5193 30.375 31.5055C29.7479 31.4711 29.3896 31.1128 29.3655 30.4788C29.3448 29.9964 29.3586 29.5141 29.362 29.0317C29.3689 28.1255 29.6962 27.8017 30.6127 27.7948C30.8126 27.7948 31.009 27.7948 31.2329 27.7948V31.509V31.5055ZM50.9719 27.8327C51.3647 27.8327 51.754 27.7741 52.1227 27.843C52.8669 27.9843 53.1218 28.9008 52.5947 29.4417C52.1158 29.931 51.6265 30.4133 51.1373 30.8957C51.1131 30.9198 51.0752 30.9301 50.9719 30.9853V27.8327ZM33.6275 35.8606C33.3622 35.1956 33.2003 34.4824 33.0452 33.7795C32.8902 33.0835 33.0108 32.4771 33.531 31.8914C34.3786 30.937 35.1366 29.9 35.9118 28.8801C36.1358 28.5838 36.3701 28.4529 36.7456 28.4632C37.5622 28.4908 38.3788 28.4632 39.1953 28.4735C40.7079 28.4977 42.0344 28.0325 43.1748 27.0333C43.702 26.5717 44.2601 26.141 44.8597 25.6483C46.3584 28.0084 47.8331 30.3306 49.3008 32.6425C47.9295 33.9897 46.5893 35.3093 45.2524 36.6255C42.4892 33.2351 37.066 34.3653 35.9463 38.9511C34.8954 38.107 34.1236 37.0768 33.6344 35.8606H33.6275ZM43.9397 37.9072C43.1714 38.7065 42.4547 39.5093 41.6761 40.2397C41.1661 40.7187 40.5081 40.8599 39.8086 40.6704C39.1884 40.5016 38.5614 40.3431 37.955 40.126C37.8068 40.0744 37.6311 39.8056 37.6414 39.6471C37.7276 38.1621 38.8026 36.9149 40.2944 36.5221C41.6554 36.1638 43.1507 36.7323 43.9432 37.9072H43.9397ZM58.1212 36.5945C57.8766 36.8494 53.9246 40.7669 53.6834 41.0219C53.6318 41.077 53.587 41.1321 53.5456 41.1872C51.3715 43.3544 49.1871 45.5078 47.0475 47.7026C45.6418 49.1428 44.0052 49.8525 41.9862 49.8112C39.4848 49.7595 36.9799 49.8009 34.4751 49.7974C32.9315 49.7974 31.6429 50.328 30.7299 51.6097C30.2682 52.2575 29.8513 52.9397 29.4309 53.615C29.1208 54.1111 29.2173 54.6073 29.6377 54.8795C30.0615 55.1551 30.5335 55.0345 30.878 54.5383C31.2467 54.0043 31.6016 53.4634 31.9427 52.9087C32.5181 51.9715 33.3277 51.5408 34.4406 51.5546C37.0385 51.5856 39.6329 51.5649 42.2308 51.5649C44.4875 51.5649 46.4273 50.7863 48.026 49.1738C49.7625 47.4201 51.5163 45.687 53.2528 43.9367C53.4457 43.7403 53.587 43.4922 53.7489 43.2717C55.4647 44.3639 56.488 45.749 56.6913 47.613C56.8188 48.7776 56.7637 54.2662 56.7947 55.6443C56.7912 58.9141 56.7947 62.1838 56.7912 65.4535C56.7912 65.6671 56.7671 65.8808 56.7568 66.0737H50.7479C50.7479 65.8394 50.7479 65.6534 50.7479 65.4708C50.7479 64.506 50.7583 63.5413 50.7376 62.5766C50.7272 62.0667 50.3586 61.7359 49.8831 61.7428C49.4387 61.7462 49.0872 62.0701 49.039 62.5421C49.0183 62.7454 49.0321 62.9487 49.0321 63.1554C49.0321 64.1305 49.0321 65.109 49.0321 66.1047H25.4618C25.4618 64.7782 25.4618 63.4896 25.4618 62.2045C25.4687 60.9228 25.4618 57.1845 25.4618 57.0466C25.4618 54.2283 25.4549 51.4064 25.4618 48.5881C25.4721 45.0944 28.0045 42.5654 31.5085 42.5585C34.2718 42.5516 37.0385 42.5447 39.8017 42.562C41.2144 42.5689 42.3858 42.0934 43.3884 41.0804C46.4825 37.9554 49.6006 34.858 52.7118 31.7502C52.8531 31.6089 53.0012 31.478 53.1735 31.3126C54.8652 33.0456 56.5294 34.7546 58.1832 36.4498C58.1556 36.529 58.1522 36.5703 58.1281 36.5945H58.1212ZM62.2282 32.4634C61.3633 33.4488 60.3711 34.317 59.4098 35.2576C57.8559 33.6658 56.2916 32.0637 54.7309 30.4547C54.4793 30.1963 54.5103 29.9206 54.7584 29.6726C55.5199 28.9146 56.2537 28.1255 57.0531 27.4089C58.4657 26.1479 60.595 26.2237 61.9525 27.526C63.3169 28.8388 63.4823 31.0232 62.2247 32.4599L62.2282 32.4634Z" fill="white"/>
</svg>
