<svg width="90" height="90" viewBox="0 0 90 90" fill="none" xmlns="http://www.w3.org/2000/svg">
<path d="M45 90C69.8528 90 90 69.8528 90 45C90 20.1472 69.8528 0 45 0C20.1472 0 0 20.1472 0 45C0 69.8528 20.1472 90 45 90Z" fill="#701651"/>
<path d="M40.0236 71.0993C36.7455 71.0993 33.4711 71.0993 30.193 71.0993C28.8678 71.0993 28.4802 70.5381 28.8198 69.2424C29.7353 65.7428 30.6656 62.2432 31.5146 58.7289C31.9908 56.765 31.6254 54.8638 30.6176 53.1214C29.8608 51.8146 29.0191 50.5595 28.1959 49.2933C26.2246 46.2662 24.6963 43.0472 23.9506 39.4922C22.6475 33.2572 24.6299 28.1518 29.3477 24.032C33.6262 20.2961 38.6504 18.6645 44.2948 18.9118C47.3772 19.0447 50.3821 19.6058 53.1582 21.0197C57.0011 22.9762 59.3268 26.2137 60.7111 30.2043C61.6266 32.8474 62.0142 35.5792 62.0844 38.3663C62.0917 38.7096 62.2099 39.0935 62.3908 39.3815C63.5204 41.1645 64.6869 42.9253 65.8313 44.701C66.577 45.8601 66.7025 47.034 65.8903 48.2338C65.7427 48.4516 65.6799 48.7285 65.6061 48.9869C64.6684 52.265 63.7677 55.5541 62.2099 58.607C61.789 59.4303 61.2722 60.2129 60.7406 60.9696C59.7661 62.354 58.3854 62.9963 56.7058 63.0148C55.6795 63.0258 54.6496 62.9963 53.6233 63.0185C52.2538 63.048 51.604 63.4873 51.4121 64.8347C51.2238 66.1452 51.1795 67.4963 51.2607 68.8216C51.3678 70.5861 51.3235 71.162 49.2156 71.1214C46.1553 71.0623 43.0913 71.1066 40.0273 71.1066L40.0236 71.0993ZM60.8071 41.1977C60.6816 40.991 60.593 40.7953 60.4601 40.6329C59.8953 39.9573 59.7402 39.1969 59.755 38.3183C59.7882 36.0775 59.4449 33.8774 58.8026 31.7326C58.0975 29.37 57.0232 27.1956 55.2919 25.3942C55.0483 25.1395 54.8415 25.073 54.4871 25.1727C53.1139 25.5603 51.8255 26.114 50.6516 26.9262C48.9683 28.089 47.8497 29.6431 47.488 31.6772C47.3218 32.6111 47.2591 33.5599 47.1004 34.4975C46.5688 37.6833 45.6865 40.7289 43.5306 43.2539C43.5122 43.2723 43.5306 43.3203 43.5306 43.3905C45.1328 44.1768 46.7423 44.9742 48.3629 45.7531C48.5401 45.838 48.78 45.8343 48.983 45.8121C51.0946 45.5906 53.1287 45.0591 55.1073 44.3023C57.1414 43.5271 59.0462 42.5156 60.8145 41.2014L60.8071 41.1977ZM35.8153 50.733C35.0253 51.4491 34.2944 52.1358 33.5339 52.7929C33.2533 53.0365 33.2164 53.2469 33.353 53.5902C33.9917 55.2145 34.1836 56.9163 33.8514 58.6181C33.4305 60.7814 32.8916 62.9262 32.3711 65.0673C32.072 66.3039 31.7066 67.5221 31.3633 68.7773H48.9092C48.7985 66.6362 48.7579 64.5431 49.773 62.6345C48.6323 62.3355 47.5027 62.0697 46.3953 61.7449C45.1512 61.3794 44.2468 60.6485 43.6598 59.4266C42.5893 57.1932 41.3895 55.0226 40.2636 52.815C40.0938 52.4828 39.924 52.3056 39.5216 52.3314C38.056 52.4348 36.8194 51.9438 35.8153 50.7367V50.733ZM46.9822 47.6468C46.6758 47.4918 46.4026 47.3515 46.1295 47.2149C43.5491 45.9007 40.8321 44.8339 38.5323 43.0029C37.9453 42.534 37.5614 42.6042 37.0483 43.1616C36.657 43.5861 36.5056 44.0956 36.6053 44.6641C36.8452 45.9967 37.0778 47.3331 37.3436 48.6583C37.4949 49.4114 38.0597 49.9245 38.8276 50.0131C39.3629 50.0722 39.9129 50.0796 40.4519 50.0574C41.1422 50.0242 41.5667 50.3195 41.8731 50.9286C42.6705 52.5197 43.5011 54.0923 44.3243 55.6723C44.4055 55.8273 44.5015 55.9787 44.6492 56.2297C45.4465 53.2949 46.2107 50.4819 46.9822 47.6431V47.6468Z" fill="white"/>
</svg>
