<svg width="90" height="91" viewBox="0 0 90 91" fill="none" xmlns="http://www.w3.org/2000/svg">
<path d="M45 0.0625C69.8515 0.0625 90 20.2073 90 45.0625C90 69.9177 69.8552 90.0625 45 90.0625C20.1448 90.0625 0 69.9177 0 45.0625C0 20.2073 20.1448 0.0625 45 0.0625Z" fill="#701651"/>
<path d="M23.8918 56.2295C26.834 54.8969 29.7651 53.5347 32.7257 52.239C34.4497 51.4822 36.1847 50.7291 37.9714 50.1496C39.8799 49.5294 41.8438 49.8026 43.7634 50.2566C46.7462 50.9617 49.7511 51.3936 52.8336 51.3198C55.2885 51.2607 57.4333 52.7853 58.3229 55.0261C58.8102 56.2628 58.1753 57.2115 56.8463 57.2152C53.0182 57.2189 49.19 57.2152 45.3582 57.2152C45.1625 57.2152 44.9669 57.2152 44.7343 57.2152V60.1721C44.9041 60.1721 45.0777 60.1721 45.2548 60.1721C49.2491 60.1721 53.2433 60.15 57.2339 60.1869C58.7807 60.2017 60.1466 59.7919 61.3611 58.8505C63.2549 57.3813 65.1449 55.901 67.0424 54.4355C68.4488 53.3501 70.003 53.0031 71.7233 53.5495C72.9304 53.9334 73.6355 54.8858 74.407 55.9195C73.4583 56.846 72.528 57.7911 71.5571 58.6918C68.1425 61.8555 64.2996 64.3177 59.8365 65.739C56.0748 66.935 52.2208 67.3337 48.3041 66.8944C46.2848 66.6692 44.2766 66.3112 42.2905 65.883C39.5219 65.2849 36.864 65.6282 34.2725 66.6286C31.825 67.5737 29.4144 68.611 26.9706 69.5745C25.9665 69.9695 24.9218 70.2759 23.8955 70.6192C23.8955 65.8202 23.8955 61.0212 23.8955 56.2259L23.8918 56.2295Z" fill="white"/>
<path d="M44.6972 20.1445V26.1285H47.6283V23.2344H56.5028V34.9919H53.5828V32.0904H47.6763V29.1482H44.7083V35.0326H23.8879V20.1445H44.6935H44.6972Z" fill="white"/>
<path d="M55.0596 36.8599C55.7646 37.9083 56.4956 38.8607 57.0825 39.8907C57.8651 41.2676 58.6588 42.663 59.2273 44.1359C59.9066 45.8931 59.3417 47.4879 57.9537 48.7135C56.5731 49.928 54.9525 50.1753 53.2691 49.4259C51.5526 48.6618 50.6703 47.2701 50.6297 45.3874C50.6186 44.9555 50.7257 44.5014 50.8659 44.0879C51.7851 41.4337 53.4427 39.2077 55.0596 36.8562V36.8599Z" fill="white"/>
</svg>
