<svg width="91" height="90" viewBox="0 0 91 90" fill="none" xmlns="http://www.w3.org/2000/svg">
<path d="M45.2759 0C70.1274 0 90.2759 20.1448 90.2759 45C90.2759 69.8552 70.1311 90 45.2759 90C20.4207 90 0.275879 69.8552 0.275879 45C0.275879 20.1448 20.4207 0 45.2759 0Z" fill="#701651"/>
<path d="M15.8763 53.8669C15.5035 53.7893 15.1232 53.734 14.7578 53.6306C12.4173 52.9698 10.937 51.1683 10.8374 48.7098C10.7303 46.1737 11.0109 43.6708 11.9744 41.2971C12.5982 39.7614 13.5027 38.4362 15.0162 37.6277C15.9502 37.1294 16.9543 36.8894 18.0027 36.9116C18.3349 36.9189 18.6819 37.0851 18.9846 37.2512C19.4719 37.517 19.9223 37.8455 20.3948 38.1372C23.1413 39.8316 25.8878 39.8316 28.6306 38.1298C29.0109 37.8935 29.4022 37.6646 29.7602 37.3988C30.4173 36.9079 31.1409 36.8451 31.9198 36.9595C34.0499 37.2733 35.5523 38.4399 36.5675 40.3004C37.4719 41.9616 37.8816 43.7668 38.0625 45.6236C38.1548 46.5797 38.1992 47.5432 38.1881 48.503C38.1549 51.3677 36.1873 53.4977 33.3411 53.8115C33.2709 53.8189 33.2008 53.8521 33.1343 53.8705H15.8837L15.8763 53.8669Z" fill="white"/>
<path d="M32.2117 28.9341C32.2265 33.2901 28.7121 36.8119 24.3155 36.8488C19.9779 36.8857 16.4156 33.3418 16.3934 28.9636C16.3713 24.5855 19.9152 21.0342 24.3007 21.0342C28.6789 21.0342 32.1969 24.5485 32.2117 28.9341Z" fill="white"/>
<path d="M54.191 68.0502C53.8182 67.9727 53.438 67.9173 53.0725 67.8139C50.7321 67.1532 49.2517 65.3517 49.1521 62.8931C49.045 60.357 49.3256 57.8541 50.2891 55.4805C50.9129 53.9448 51.8174 52.6195 53.3309 51.8111C54.2649 51.3127 55.269 51.0728 56.3174 51.0949C56.6496 51.1023 56.9966 51.2684 57.2993 51.4345C57.7866 51.7003 58.237 52.0289 58.7095 52.3205C61.456 54.0149 64.2025 54.0149 66.9453 52.3131C67.3256 52.0769 67.7169 51.848 68.075 51.5822C68.7321 51.0912 69.4556 51.0285 70.2345 51.1429C72.3645 51.4567 73.867 52.6232 74.8822 54.4838C75.7866 56.1449 76.1964 57.9501 76.3773 59.807C76.4695 60.7631 76.5138 61.7266 76.5028 62.6864C76.4695 65.551 74.5019 67.681 71.6557 67.9948C71.5856 68.0022 71.5155 68.0354 71.449 68.0539H54.1984L54.191 68.0502Z" fill="white"/>
<path d="M70.5264 43.1172C70.5412 47.4732 67.0268 50.995 62.6302 51.0319C58.2926 51.0688 54.7303 47.5249 54.7081 43.1467C54.686 38.7686 58.2298 35.2173 62.6154 35.2173C66.9936 35.2173 70.5116 38.7316 70.5264 43.1172Z" fill="white"/>
<path d="M50.7099 39.2595C50.5401 38.9716 50.2115 38.835 49.8904 38.9125C49.5692 38.99 49.3477 39.2669 49.3255 39.5991C49.3182 39.7357 49.3255 39.8797 49.3255 40.02V40.8654H46.0511V40.8727H42.8358C42.8358 40.4482 42.8432 40.0421 42.8358 39.6287C42.8284 39.3334 42.6845 39.1119 42.4224 38.979C42.1529 38.8424 41.8871 38.8608 41.6582 39.0454C41.5327 39.1488 41.4478 39.3075 41.3518 39.4367V43.8186C41.385 43.8703 41.4183 43.9293 41.4552 43.9884C41.625 44.2763 41.9535 44.4129 42.2747 44.3354C42.5959 44.2579 42.8174 43.981 42.8395 43.6488C42.8469 43.5122 42.8395 43.3682 42.8395 43.2279V42.3826H46.1139V42.3752H49.3292C49.3292 42.7997 49.3219 43.2058 49.3292 43.6192C49.3366 43.9146 49.4806 44.1361 49.7427 44.269C50.0122 44.4055 50.278 44.3871 50.5106 44.2025C50.6361 44.0991 50.721 43.9404 50.8169 43.8112V39.4293C50.7837 39.3777 50.7505 39.3186 50.7136 39.2595H50.7099Z" fill="white"/>
</svg>
