<svg width="91" height="90" viewBox="0 0 91 90" fill="none" xmlns="http://www.w3.org/2000/svg">
<path d="M45.06 89.702C20.1753 89.702 0 69.637 0 44.8804C0 20.1237 20.1753 0.0625 45.06 0.0625C69.9446 0.0625 90.1199 20.1274 90.1199 44.8841" fill="#701651"/>
<path d="M90.1198 44.8804C90.1198 69.6333 69.9482 89.7019 45.0598 89.7019L90.1198 44.8804Z" fill="#701651"/>
<path d="M71.3531 67.5817C69.0724 68.1149 66.8878 68.6223 64.7069 69.1297C62.0084 69.7584 59.31 70.3798 56.619 71.0307C56.2604 71.1189 56.12 71.0196 55.9758 70.7255C55.7614 70.2879 55.51 69.8651 55.2698 69.4386C54.4861 68.0377 53.3587 66.9971 51.9134 66.2911C49.019 64.8718 46.1321 63.4415 43.2267 62.048C41.1271 61.0405 40.1032 59.43 40.2621 57.1025C40.3878 55.2824 40.5098 53.4587 40.7316 51.6129C40.8129 51.7563 40.8979 51.8923 40.9718 52.0394C42.0142 54.058 43.0566 56.073 44.099 58.0916C44.1804 58.246 44.2543 58.4078 44.3578 58.5475C44.6572 58.9483 45.1525 59.0513 45.5739 58.816C45.9695 58.5953 46.1469 58.132 45.9916 57.6908C45.9288 57.5107 45.8364 57.3415 45.7477 57.1687C43.5446 52.8998 41.3415 48.6346 39.1273 44.3694C38.8685 43.873 38.7133 43.3692 38.8538 42.8103C39.046 42.0492 39.6744 41.5014 40.4469 41.4058C41.2638 41.3065 41.9699 41.6558 42.3691 42.4059C43.0566 43.7002 43.722 45.0091 44.3948 46.3144C44.4687 46.4542 44.5352 46.5976 44.6239 46.7263C44.8901 47.1013 45.3817 47.2374 45.792 47.0535C46.2023 46.8697 46.4204 46.4211 46.2984 45.9615C46.2504 45.7776 46.158 45.6048 46.0693 45.4357C44.9751 43.3067 43.8736 41.1852 42.7794 39.0562C42.4319 38.3797 42.4615 37.7031 42.9051 37.0744C43.3265 36.4824 43.9216 36.225 44.6387 36.2949C45.3854 36.3721 45.8697 36.8096 46.206 37.4604C47.4185 39.821 48.6457 42.1779 49.8655 44.5348C49.9469 44.6893 50.0171 44.851 50.1206 44.9908C50.4015 45.3768 50.871 45.4945 51.2887 45.2923C51.7027 45.0937 51.9097 44.6525 51.7803 44.1965C51.7323 44.0311 51.6472 43.873 51.5696 43.7185C50.7564 42.1338 49.9247 40.5601 49.1262 38.9643C48.5274 37.7656 49.178 36.4714 50.4681 36.2213C51.2887 36.0632 52.0797 36.4824 52.527 37.3391C53.4659 39.1334 54.39 40.9351 55.3215 42.7368C55.7503 43.5678 56.1976 43.8141 56.7705 43.5347C57.3583 43.2479 57.4359 42.7037 56.9997 41.8654C56.6633 41.2146 56.3196 40.5638 55.9906 39.9093C55.4472 38.8356 55.7355 37.7436 56.6892 37.2398C57.6281 36.7434 58.811 37.1516 59.3544 38.1958C60.9734 41.3102 62.5814 44.4319 64.1931 47.5499C64.5368 48.2154 64.851 48.903 65.2355 49.5465C66.3777 51.4695 66.9063 53.5653 67.043 55.7715C67.2205 58.6174 67.9006 61.3052 69.3718 63.7871C70.0815 64.9821 70.6619 66.2544 71.342 67.5707L71.3531 67.5817Z" fill="white"/>
<path d="M50.9078 71.2365H37.826C37.6966 70.0415 37.6227 68.8722 37.4305 67.725C37.1459 66.0226 36.6025 64.3901 35.549 62.9965C35.05 62.3347 34.4511 61.7133 33.7932 61.2096C31.4126 59.3858 29.4979 57.2091 28.2891 54.444C27.4463 52.5173 25.8753 51.3297 23.9827 50.5796C22.8849 50.1457 21.7168 49.8626 20.5561 49.6236C19.4324 49.392 18.719 48.6713 18.7707 47.5939C18.8188 46.5791 19.6172 45.8768 20.7483 45.8253C24.3672 45.6672 27.742 46.4872 30.8877 48.2778C32.4735 49.1787 33.9299 48.322 33.9336 46.4909C33.941 39.5011 33.941 32.5112 33.9484 25.5214C33.9484 25.2089 33.9447 24.8853 34.0223 24.5875C34.2441 23.7492 35.0684 23.1792 35.926 23.2344C36.8169 23.2895 37.5192 23.9036 37.6782 24.775C37.7151 24.9809 37.7299 25.1905 37.7299 25.4001C37.7299 27.8305 37.741 30.2573 37.7188 32.6877C37.7188 32.9488 37.582 33.265 37.4046 33.4525C35.39 35.5778 35.2939 38.8245 37.2198 41.038C37.4046 41.2513 37.4601 41.402 37.3233 41.6704C36.7577 42.7956 36.7947 43.9281 37.3566 45.0458C37.8297 45.9835 38.3287 46.9027 38.7908 47.844C38.898 48.0646 38.9571 48.344 38.9423 48.5867C38.7649 51.3223 38.5431 54.058 38.3916 56.7973C38.3472 57.6246 38.399 58.4813 38.5653 59.2939C39.0126 61.478 40.5023 62.8164 42.4355 63.7576C45.2079 65.1071 47.9728 66.4712 50.7489 67.8133C51.0889 67.9787 51.1924 68.1589 51.1444 68.534C51.0372 69.4164 50.9854 70.3026 50.9078 71.2402V71.2365Z" fill="white"/>
<path d="M40.8905 39.4461C40.1956 39.6042 39.5376 39.7587 38.8279 39.9204C37.3049 38.7181 37.353 35.9714 38.9794 34.5485C39.6633 33.9491 40.4617 33.6366 41.3673 33.5778C42.1214 33.53 42.3802 33.2763 42.4652 32.5188C42.6131 31.1547 43.4004 30.1913 44.5981 29.9045C45.8327 29.6067 46.9305 30.059 47.7179 31.2098C47.9951 31.6143 48.3389 31.7834 48.8305 31.7283C49.8138 31.6216 50.6196 31.9893 51.2554 32.721C51.906 33.4638 52.3422 33.4932 53.0408 32.8093C54.1756 31.7062 55.7392 31.3937 57.1735 31.9893C58.5375 32.5519 59.4764 33.9197 59.4727 35.339C59.4727 35.4236 59.4579 35.5045 59.4468 35.6221C57.4581 34.6955 55.791 35.0963 54.4048 36.8208C53.7505 35.4456 52.7525 34.5374 51.2073 34.3867C49.6918 34.2396 48.5163 34.8573 47.607 36.1038C46.8936 35.1405 45.9731 34.5595 44.7903 34.4418C43.9955 34.3609 43.2525 34.5411 42.565 34.9309C41.0051 35.8207 40.4063 37.4422 40.8794 39.4388L40.8905 39.4461Z" fill="white"/>
<path d="M39.6483 31.9781C39.6372 31.8016 39.6262 31.6619 39.6262 31.5258C39.6262 27.8783 39.6225 24.2271 39.6262 20.5796C39.6262 19.2817 40.4911 18.4323 41.6777 18.5353C42.5612 18.6125 43.2635 19.2523 43.3633 20.1311C43.4187 20.6127 43.4039 21.1054 43.4039 21.5945C43.4039 23.6903 43.4003 25.7862 43.4113 27.8783C43.4113 28.1982 43.3226 28.3747 43.0269 28.5291C41.9771 29.0807 41.2563 29.9374 40.8423 31.0441C40.5614 31.7979 40.5688 31.8016 39.6483 31.9781Z" fill="white"/>
<path d="M49.0595 29.7828C48.0245 28.5768 46.8121 27.9995 45.3594 27.9186C45.3594 26.8008 45.2781 25.7051 45.3853 24.6241C45.4703 23.7747 46.4166 23.1717 47.2852 23.2269C48.2352 23.2894 49.0226 23.9843 49.0485 24.9183C49.0928 26.4846 49.0595 28.0547 49.0595 29.7828Z" fill="white"/>
<path d="M69.9041 39.2401C69.9041 40.2917 69.0465 41.13 67.9856 41.1153C66.958 41.1043 66.1189 40.2549 66.1189 39.2327C66.1189 38.1922 67.0024 37.3318 68.0411 37.3501C69.0687 37.3685 69.9041 38.2142 69.9041 39.2401Z" fill="white"/>
<path d="M64.2188 29.8089C63.1838 29.8089 62.341 28.9779 62.3336 27.952C62.3225 26.9188 63.2023 26.0437 64.241 26.0511C65.2908 26.0584 66.1336 26.9188 66.1188 27.9741C66.104 29.0036 65.2686 29.8126 64.2225 29.8089H64.2188Z" fill="white"/>
<path d="M52.2312 30.9668C51.8874 30.7535 51.54 30.555 51.211 30.327C51.1001 30.2498 50.9929 30.0991 50.9781 29.974C50.8709 28.9335 51.7248 27.9922 52.7968 27.937C53.8613 27.8856 54.73 28.7349 54.7263 29.8601C54.3123 30.0035 53.8761 30.1248 53.4658 30.305C53.0518 30.4888 52.6637 30.7315 52.2312 30.9668Z" fill="white"/>
</svg>
